<svg width="29" height="30" viewBox="0 0 29 30" fill="none" xmlns="http://www.w3.org/2000/svg">
<g filter="url(#filter0_d_195_603)">
<path d="M14.1976 26.4141C20.9341 26.4141 26.3952 20.7249 26.3952 13.707C26.3952 6.68913 20.9341 1 14.1976 1C7.46105 1 2 6.68913 2 13.707C2 20.7249 7.46105 26.4141 14.1976 26.4141Z" fill="white"/>
<path d="M14.1976 26.9141C21.2294 26.9141 26.8952 20.9816 26.8952 13.707C26.8952 6.43247 21.2294 0.5 14.1976 0.5C7.16582 0.5 1.5 6.43247 1.5 13.707C1.5 20.9816 7.16582 26.9141 14.1976 26.9141Z" stroke="#D9D9D9"/>
</g>
<path d="M15.2278 16.9745H12.9211C12.9271 16.4317 12.9693 15.9644 13.0477 15.5724C13.1321 15.1743 13.2738 14.8155 13.4729 14.4959C13.6779 14.1763 13.9493 13.8596 14.287 13.5461C14.5704 13.2928 14.8177 13.0515 15.0288 12.8224C15.2399 12.5932 15.4057 12.358 15.5263 12.1168C15.6469 11.8695 15.7072 11.5951 15.7072 11.2936C15.7072 10.9438 15.653 10.6543 15.5444 10.4252C15.4419 10.19 15.2851 10.0121 15.074 9.89145C14.869 9.77083 14.6096 9.71053 14.2961 9.71053C14.0367 9.71053 13.7955 9.76782 13.5724 9.8824C13.3492 9.99095 13.1653 10.1598 13.0206 10.389C12.8819 10.6181 12.8095 10.9197 12.8035 11.2936H10.1801C10.1982 10.4674 10.3882 9.78591 10.75 9.24918C11.1179 8.70641 11.6094 8.30537 12.2245 8.04605C12.8396 7.7807 13.5302 7.64803 14.2961 7.64803C15.1404 7.64803 15.864 7.78673 16.4671 8.06414C17.0702 8.33553 17.5315 8.73657 17.8512 9.26727C18.1708 9.79194 18.3306 10.4312 18.3306 11.185C18.3306 11.7097 18.2281 12.1771 18.023 12.5872C17.818 12.9912 17.5496 13.3681 17.2179 13.7179C16.8862 14.0677 16.5214 14.4296 16.1234 14.8035C15.7796 15.111 15.5444 15.4337 15.4178 15.7714C15.2971 16.1091 15.2338 16.5101 15.2278 16.9745ZM12.6497 19.7697C12.6497 19.3838 12.7823 19.0641 13.0477 18.8109C13.313 18.5515 13.6689 18.4219 14.1151 18.4219C14.5554 18.4219 14.9082 18.5515 15.1735 18.8109C15.4449 19.0641 15.5806 19.3838 15.5806 19.7697C15.5806 20.1436 15.4449 20.4603 15.1735 20.7196C14.9082 20.9789 14.5554 21.1086 14.1151 21.1086C13.6689 21.1086 13.313 20.9789 13.0477 20.7196C12.7823 20.4603 12.6497 20.1436 12.6497 19.7697Z" fill="black"/>
<defs>
<filter id="filter0_d_195_603" x="0" y="0" width="28.3945" height="29.4141" filterUnits="userSpaceOnUse" color-interpolation-filters="sRGB">
<feFlood flood-opacity="0" result="BackgroundImageFix"/>
<feColorMatrix in="SourceAlpha" type="matrix" values="0 0 0 0 0 0 0 0 0 0 0 0 0 0 0 0 0 0 127 0" result="hardAlpha"/>
<feOffset dy="1"/>
<feGaussianBlur stdDeviation="0.5"/>
<feComposite in2="hardAlpha" operator="out"/>
<feColorMatrix type="matrix" values="0 0 0 0 0 0 0 0 0 0 0 0 0 0 0 0 0 0 0.25 0"/>
<feBlend mode="normal" in2="BackgroundImageFix" result="effect1_dropShadow_195_603"/>
<feBlend mode="normal" in="SourceGraphic" in2="effect1_dropShadow_195_603" result="shape"/>
</filter>
</defs>
</svg>
