<?xml version="1.0" encoding="utf-8"?>
<!-- Generator: Adobe Illustrator 27.9.0, SVG Export Plug-In . SVG Version: 6.00 Build 0)  -->
<svg version="1.1" id="Layer_1" xmlns="http://www.w3.org/2000/svg" xmlns:xlink="http://www.w3.org/1999/xlink" x="0px" y="0px"
	 viewBox="0 0 345.4 131.7" style="enable-background:new 0 0 345.4 131.7;" xml:space="preserve">
<style type="text/css">
	.st0{fill:#F07281;}
	.st1{fill:#F58A97;}
	.st2{fill:#EB5569;}
	.st3{fill:#FFA6B5;}
	.st4{fill:#FFE6EB;}
</style>
<image style="overflow:visible;" width="561" height="436" xlink:href="DE4ED88F.jpg"  transform="matrix(1 0 0 1 -8026.4683 -8088.5107)">
</image>
<g>
	<path class="st0" d="M204.4,18.1c21.4,0,42.9,0,64.3,0c0,31.8,0,63.7,0,95.5c-21.4,0-42.9,0-64.3,0
		C204.4,81.7,204.4,49.9,204.4,18.1z"/>
	<path class="st1" d="M204.4,18.1c0,31.8,0,63.6,0,95.4c-13.7,0.1-27.4,0.1-41.1,0.2c-7.5,0-14.9,0-22.4,0
		c-0.1-10.7-0.2-21.4-0.2-32.1c0-10.6,0-21.2,0-31.8c0-10.6,0.1-21.2,0.1-31.9C162,18.1,183.2,18.1,204.4,18.1z"/>
	<path class="st2" d="M268.8,113.6c0-31.8,0-63.7,0-95.5c18.1,0,36.1-0.1,54.2-0.1c5.6,0,9.3,3.9,9.4,9.8c0.1,25.2,0.1,50.3,0,75.5
		c0,6.1-3.9,10.3-9.7,10.4C304.6,113.8,286.7,113.6,268.8,113.6z"/>
	<path class="st3" d="M140.7,18.1c0,31.8,0,63.6,0,95.4c-13.7,0.1-27.4,0.1-41.1,0.2c-7.5,0-14.9,0-22.4,0
		C77.1,103.1,77,92.4,77,81.7c0-10.6,0-21.2,0-31.8c0-10.6,0.1-21.2,0.1-31.9C98.3,18.1,119.5,18.1,140.7,18.1z"/>
	<path class="st4" d="M76.7,113.6c0-31.8,0-63.7,0-95.5c-18.1,0-36.1-0.1-54.2-0.1c-5.6,0-9.3,3.9-9.4,9.8
		c-0.1,25.2-0.1,50.3,0,75.5c0,6.1,3.9,10.3,9.7,10.4C40.8,113.8,58.7,113.6,76.7,113.6z"/>
</g>
</svg>
