<?xml version="1.0" encoding="UTF-8"?>
<svg width="499px" height="171px" viewBox="0 0 499 171" version="1.1" xmlns="http://www.w3.org/2000/svg" xmlns:xlink="http://www.w3.org/1999/xlink">
    <!-- Generator: Sketch 47.1 (45422) - http://www.bohemiancoding.com/sketch -->
    <title>CSO_Logo_sans.com</title>
    <desc>Created with Sketch.</desc>
    <defs>
        <polygon id="path-1" points="0.111940299 37.5037313 0.111940299 1.82835821 51.2003713 1.82835821 51.2003713 37.5037313 0.111940299 37.5037313"></polygon>
    </defs>
    <g id="Onaboarding---3.0" stroke="none" stroke-width="1" fill="none" fill-rule="evenodd">
        <g id="CSO_Logo_sans.com" transform="translate(0.000000, -1.000000)">
            <g id="Group-3" transform="translate(0.000000, 48.507463)">
                <mask id="mask-2" fill="white">
                    <use xlink:href="#path-1"></use>
                </mask>
                <g id="Clip-2"></g>
                <path d="M51.1902985,25.7705224 L51.1902985,28.0541045 C51.5037313,35.2201493 44.4962687,37.5037313 31.0279851,37.5037313 L0,37.5037313 L0,31.125 L26.9347015,31.125 C34.2574627,31.125 40.2425373,31.5186567 40.3992537,27.9757463 L40.3992537,26.6343284 C39.6921642,22.2257463 36.7779851,22.8544776 29.6119403,22.8544776 L19.4533582,22.7761194 C6.61567164,22.6977612 0,20.0223881 0,12.2238806 L0,10.1753731 C0.865671642,2.53731343 11.0261194,1.82835821 24.4141791,1.82835821 L48.5895522,1.82835821 L48.5895522,8.28544776 L21.9738806,8.28544776 C10.3955224,7.81343284 10.7891791,11.0429104 10.7891791,11.0429104 L10.7891791,12.619403 C11.0261194,16.8712687 16.5391791,16.3208955 23.7052239,16.3208955 L27.5652985,16.3208955 C40.5578358,16.3992537 50.3246269,16.8712687 51.1902985,25.7705224" id="Fill-1" fill="#1A1919" mask="url(#mask-2)"></path>
            </g>
            <path d="M56.619403,71.6007463 L56.619403,64.9067164 C56.619403,56.8712687 67.6455224,50.4925373 81.0335821,50.4925373 L107.807836,50.4925373 L107.807836,56.8712687 L81.0335821,56.8712687 C73.5503731,56.8712687 67.6455224,60.494403 67.6455224,64.9067164 L67.6455224,71.6007463 C67.6455224,76.0093284 73.5503731,79.6324627 81.0335821,79.6324627 L107.807836,79.6324627 L107.807836,86.011194 L81.0335821,86.011194 C67.6455224,86.011194 56.619403,79.6324627 56.619403,71.6007463" id="Fill-4" fill="#1A1919"></path>
            <path d="M175.371269,65.613806 C177.026119,64.8283582 177.813433,63.9608209 177.970149,61.9123134 C177.813433,60.4179104 177.026119,59.5503731 174.742537,58.5261194 C172.537313,57.5802239 168.755597,56.9514925 164.347015,56.9514925 L153.162313,56.9514925 C148.753731,56.9514925 145.602612,57.8973881 143.320896,59.2350746 C141.192164,60.5727612 139.854478,62.4645522 139.854478,64.3526119 L139.854478,67.1100746 L164.738806,67.1100746 C170.33209,67.1100746 173.639925,66.4813433 175.371269,65.613806 Z M129.065299,71.6007463 L129.065299,64.3526119 C129.065299,60.8115672 131.350746,57.3451493 135.682836,54.7462687 C139.774254,52.1473881 145.998134,50.4925373 153.162313,50.4925373 L164.347015,50.4925373 C170.488806,50.5708955 176.158582,51.3600746 180.882463,53.25 C185.531716,55.0615672 188.916045,58.2891791 188.679104,61.9123134 C188.916045,65.3003731 186.632463,68.6865672 182.065299,70.733209 C177.5,72.7798507 171.669776,73.5690299 164.738806,73.5690299 L140.248134,73.5690299 C141.901119,77.0335821 147.020522,79.5541045 153.479478,79.5541045 L187.735075,79.5541045 L187.735075,86.011194 L153.479478,86.011194 C139.854478,86.011194 129.065299,79.5541045 129.065299,71.6007463 L129.065299,71.6007463 Z" id="Fill-5" fill="#1A1919"></path>
            <path d="M243.257463,64.9067164 C243.177239,60.494403 237.190299,56.9514925 229.708955,56.8712687 L205.296642,56.8712687 L205.296642,86.011194 L194.268657,86.011194 L194.268657,50.4141791 L229.708955,50.4141791 C243.177239,50.4141791 254.123134,56.9514925 254.123134,64.9067164 L254.123134,86.011194 L243.257463,86.011194 L243.257463,64.9067164" id="Fill-6" fill="#1A1919"></path>
            <path d="M259.473881,71.6007463 L259.473881,64.9067164 C259.473881,56.8712687 270.5,50.4925373 283.88806,50.4925373 L310.662313,50.4925373 L310.662313,56.8712687 L283.88806,56.8712687 C276.406716,56.8712687 270.5,60.494403 270.5,64.9067164 L270.5,71.6007463 C270.5,76.0093284 276.406716,79.6324627 283.88806,79.6324627 L310.662313,79.6324627 L310.662313,86.011194 L283.88806,86.011194 C270.5,86.011194 259.473881,79.6324627 259.473881,71.6007463" id="Fill-7" fill="#1A1919"></path>
            <path d="M362.399254,65.613806 C364.052239,64.8283582 364.839552,63.9608209 364.996269,61.9123134 C364.839552,60.4179104 364.052239,59.5503731 361.768657,58.5261194 C359.563433,57.5802239 355.785448,56.9514925 351.371269,56.9514925 L340.192164,56.9514925 C335.779851,56.9514925 332.630597,57.8973881 330.347015,59.2350746 C328.222015,60.5727612 326.880597,62.4645522 326.880597,64.3526119 L326.880597,67.1100746 L351.768657,67.1100746 C357.358209,67.1100746 360.66791,66.4813433 362.399254,65.613806 Z M316.091418,71.6007463 L316.091418,64.3526119 C316.091418,60.8115672 318.376866,57.3451493 322.705224,54.7462687 C326.804104,52.1473881 333.024254,50.4925373 340.192164,50.4925373 L351.371269,50.4925373 C357.514925,50.5708955 363.188433,51.3600746 367.912313,53.25 C372.557836,55.0615672 375.945896,58.2891791 375.708955,61.9123134 C375.945896,65.3003731 373.662313,68.6865672 369.091418,70.733209 C364.526119,72.7798507 358.699627,73.5690299 351.768657,73.5690299 L327.274254,73.5690299 C328.929104,77.0335821 334.048507,79.5541045 340.505597,79.5541045 L374.76306,79.5541045 L374.76306,86.011194 L340.505597,86.011194 C326.880597,86.011194 316.091418,79.5541045 316.091418,71.6007463 L316.091418,71.6007463 Z" id="Fill-8" fill="#1A1919"></path>
            <path d="M12.7350746,33.358209 L12.7350746,27.8171642 C12.7350746,21.1679104 21.8619403,15.886194 32.9458955,15.886194 L55.1100746,15.886194 L55.1100746,21.1679104 L32.9458955,21.1679104 C26.7518657,21.1679104 21.8619403,24.1660448 21.8619403,27.8171642 L21.8619403,33.358209 C21.8619403,37.0093284 26.7518657,40.0074627 32.9458955,40.0074627 L55.1100746,40.0074627 L55.1100746,45.2873134 L32.9458955,45.2873134 C21.8619403,45.2873134 12.7350746,40.0074627 12.7350746,33.358209" id="Fill-9" fill="#1A1919"></path>
            <path d="M98.8526119,39.9421642 L98.8526119,31.5317164 L78.1865672,31.5317164 C73.6902985,31.4682836 70.886194,32.0541045 69.4514925,32.7052239 C68.1473881,33.4235075 67.494403,34.141791 67.4291045,35.8358209 C67.494403,37.0746269 68.1473881,37.7910448 70.0391791,38.6399254 C71.863806,39.3563433 74.9291045,39.9421642 78.5149254,39.9421642 L98.8526119,39.9421642 Z M107.848881,27.8171642 L107.848881,45.2873134 L98.8526119,45.2873134 L78.5149254,45.2220149 C73.4925373,45.2220149 68.6679104,44.5727612 64.9533582,43.0074627 C61.0410448,41.5074627 58.3041045,38.8358209 58.3041045,35.8358209 C58.3041045,32.9664179 60.1940299,30.2294776 63.9085821,28.5335821 C67.6268657,26.8395522 72.5802239,26.1865672 78.1865672,26.1865672 L98.5261194,26.1865672 C97.2220149,23.3190299 92.9197761,21.2313433 87.6380597,21.2313433 L65.8003731,21.2313433 L65.8003731,15.886194 L87.6380597,15.886194 C98.7891791,15.886194 107.848881,21.2313433 107.848881,27.8171642 L107.848881,27.8171642 Z" id="Fill-10" fill="#1A1919"></path>
            <path d="M113.583955,27.7518657 C113.583955,21.1679104 122.710821,15.8227612 133.794776,15.8227612 L143.376866,15.8227612 L143.376866,21.1679104 L133.794776,21.1679104 C127.600746,21.1679104 122.710821,24.1007463 122.710821,27.7518657 L122.710821,45.2873134 L113.583955,45.2873134 L113.583955,27.7518657" id="Fill-11" fill="#1A1919"></path>
            <path d="M186.339552,27.8171642 C186.339552,24.1660448 181.384328,21.1679104 175.190299,21.1679104 L166.063433,21.1679104 C159.871269,21.1679104 154.981343,24.1660448 154.981343,27.8171642 L154.981343,33.358209 C154.981343,37.0093284 159.871269,39.9421642 166.063433,39.9421642 L175.190299,39.9421642 C181.384328,39.9421642 186.339552,37.0093284 186.339552,33.358209 L186.339552,27.8171642 Z M195.399254,33.358209 C195.399254,39.9421642 186.339552,45.2873134 175.190299,45.2873134 L166.063433,45.2873134 C154.981343,45.2873134 145.852612,39.9421642 145.852612,33.358209 L145.852612,27.8171642 C145.852612,21.1679104 154.981343,15.886194 166.063433,15.886194 L175.190299,15.886194 C186.339552,15.886194 195.399254,21.1679104 195.399254,27.8171642 L195.399254,33.358209 L195.399254,33.358209 Z" id="Fill-12" fill="#1A1919"></path>
            <polygon id="Fill-13" fill="#1A1919" points="201.13806 45.2873134 210.26306 45.2873134 210.26306 1.54477612 201.13806 1.54477612"></polygon>
            <path d="M216.192164,45.2873134 L225.322761,45.2873134 L225.322761,15.886194 L216.192164,15.886194 L216.192164,45.2873134 Z M216.192164,7.60634328 L225.322761,7.60634328 L225.322761,1.67537313 L216.192164,1.67537313 L216.192164,7.60634328 Z" id="Fill-14" fill="#1A1919"></path>
            <path d="M272.912313,27.8171642 C272.847015,24.1660448 267.893657,21.2313433 261.699627,21.1679104 L241.490672,21.1679104 L241.490672,45.2873134 L232.36194,45.2873134 L232.36194,15.8227612 L261.699627,15.8227612 C272.847015,15.8227612 281.908582,21.2313433 281.908582,27.8171642 L281.908582,45.2873134 L272.912313,45.2873134 L272.912313,27.8171642" id="Fill-15" fill="#1A1919"></path>
            <path d="M326.88806,39.9421642 L326.88806,31.5317164 L306.223881,31.5317164 C301.727612,31.4682836 298.921642,32.0541045 297.490672,32.7052239 C296.184701,33.4235075 295.533582,34.141791 295.468284,35.8358209 C295.533582,37.0746269 296.184701,37.7910448 298.076493,38.6399254 C299.902985,39.3563433 302.966418,39.9421642 306.552239,39.9421642 L326.88806,39.9421642 Z M335.886194,27.8171642 L335.886194,45.2873134 L326.88806,45.2873134 L306.552239,45.2220149 C301.531716,45.2220149 296.70709,44.5727612 292.988806,43.0074627 C289.080224,41.5074627 286.339552,38.8358209 286.339552,35.8358209 C286.339552,32.9664179 288.231343,30.2294776 291.947761,28.5335821 C295.664179,26.8395522 300.615672,26.1865672 306.223881,26.1865672 L326.565299,26.1865672 C325.259328,23.3190299 320.95709,21.2313433 315.677239,21.2313433 L293.839552,21.2313433 L293.839552,15.886194 L315.677239,15.886194 C326.826493,15.886194 335.886194,21.2313433 335.886194,27.8171642 L335.886194,27.8171642 Z" id="Fill-16" fill="#1A1919"></path>
            <polyline id="Fill-17" fill="#1A1919" points="243.716418 91.130597 243.716418 153.630597 230.882463 153.630597 180.009328 105.268657 180.009328 153.630597 166.98694 153.630597 166.98694 91.130597 180.102612 91.130597 230.882463 139.212687 230.882463 91.130597 243.716418 91.130597"></polyline>
            <path d="M267.720149,136.610075 C267.720149,141.81903 274.697761,146.097015 283.529851,146.097015 L296.554104,146.097015 L318.781716,146.003731 L318.781716,153.630597 L283.529851,153.630597 C267.720149,153.630597 254.699627,146.003731 254.699627,136.610075 L254.699627,91.130597 L267.720149,91.130597 L267.720149,136.610075" id="Fill-18" fill="#1A1919"></path>
            <polygon id="Fill-19" fill="#1A1919" points="327.992537 153.630597 341.01306 153.630597 341.01306 91.2238806 327.992537 91.2238806"></polygon>
            <polyline id="Fill-20" fill="#1A1919" points="426.858209 91.130597 426.858209 153.630597 414.024254 153.630597 363.149254 105.268657 363.149254 153.630597 350.128731 153.630597 350.128731 91.130597 363.244403 91.130597 414.024254 139.212687 414.024254 91.130597 426.858209 91.130597"></polyline>
            <path d="M498.199627,153.630597 L462.951493,153.630597 C447.139925,153.630597 434.121269,146.003731 434.121269,136.610075 L434.121269,108.244403 C434.121269,98.8507463 447.139925,91.2238806 462.951493,91.2238806 L498.199627,91.2238806 L498.199627,98.8507463 C498.199627,98.8507463 488.248134,98.7593284 462.951493,98.7593284 C454.115672,98.8507463 447.139925,103.035448 447.139925,108.244403 L447.139925,115.033582 L497.73694,115.033582 L497.73694,122.660448 L447.139925,122.660448 L447.139925,136.610075 C447.139925,141.81903 454.115672,146.003731 462.951493,146.003731 L498.199627,146.003731 L498.199627,153.630597" id="Fill-21" fill="#1A1919"></path>
            <path d="M128.320896,88.8376866 L128.320896,101.682836 C139.720149,105.841418 147.882463,116.79291 147.882463,129.613806 C147.882463,146.003731 134.552239,159.337687 118.164179,159.337687 C101.776119,159.337687 88.4440299,146.003731 88.4440299,129.613806 C88.4440299,116.79291 96.6063433,105.841418 108.007463,101.682836 L108.007463,88.8376866 C89.7276119,93.3936567 76.1380597,109.942164 76.1380597,129.613806 C76.1380597,152.789179 94.9925373,171.641791 118.164179,171.641791 C141.337687,171.641791 160.188433,152.789179 160.188433,129.613806 C160.188433,109.942164 146.602612,93.3936567 128.320896,88.8376866" id="Fill-22" fill="#0072AD"></path>
            <polygon id="Fill-23" fill="#0072AD" points="113.445896 129.315299 122.882463 129.315299 122.882463 49.5522388 113.445896 49.5522388"></polygon>
            <path d="M493.5,81.1399254 L493.934701,81.1399254 C494.445896,81.1399254 494.858209,80.9701493 494.858209,80.5578358 C494.858209,80.1940299 494.591418,79.9514925 494.009328,79.9514925 C493.766791,79.9514925 493.597015,79.9757463 493.5,80 L493.5,81.1399254 Z M493.475746,83.3712687 L492.554104,83.3712687 L492.554104,79.3936567 C492.91791,79.3451493 493.427239,79.2723881 494.08209,79.2723881 C494.833955,79.2723881 495.173507,79.3936567 495.440299,79.5876866 C495.682836,79.7574627 495.852612,80.0485075 495.852612,80.4365672 C495.852612,80.9216418 495.488806,81.2369403 495.027985,81.3824627 L495.027985,81.4309701 C495.414179,81.5522388 495.610075,81.8675373 495.731343,82.4011194 C495.852612,83.0074627 495.949627,83.2257463 496.022388,83.3712687 L495.052239,83.3712687 C494.93097,83.2257463 494.858209,82.886194 494.73694,82.4011194 C494.664179,81.988806 494.421642,81.7947761 493.912313,81.7947761 L493.475746,81.7947761 L493.475746,83.3712687 Z M491.026119,81.3097015 C491.026119,83.0802239 492.360075,84.4869403 494.130597,84.4869403 C495.852612,84.511194 497.162313,83.0802239 497.162313,81.3339552 C497.162313,79.5634328 495.852612,78.1324627 494.08209,78.1324627 C492.360075,78.1324627 491.026119,79.5634328 491.026119,81.3097015 Z M498.18097,81.3097015 C498.18097,83.5410448 496.386194,85.3115672 494.106343,85.3115672 C491.826493,85.3115672 490.007463,83.5410448 490.007463,81.3097015 C490.007463,79.0783582 491.826493,77.3320896 494.130597,77.3320896 C496.386194,77.3320896 498.18097,79.0783582 498.18097,81.3097015 L498.18097,81.3097015 Z" id="Fill-24" fill="#1A1919"></path>
        </g>
    </g>
</svg>