<svg width="41" height="40" viewBox="0 0 41 40" fill="none" xmlns="http://www.w3.org/2000/svg">
<path d="M32.1643 10.0348C31.2334 11.1252 30.2962 12.2094 29.3733 13.3062C26.0845 17.2161 22.9411 21.2366 20.0964 25.4847C19.5259 26.3365 18.9822 27.2089 18.3848 28.0434C17.8649 28.7719 17.2137 29.363 16.2987 29.5605C15.2414 29.7881 14.2932 29.5542 13.5093 28.8019C13.2391 28.5428 13.0447 28.203 12.8202 27.8964C11.5069 26.0995 10.1952 24.301 8.88191 22.5025C8.70016 22.2528 8.70648 21.9525 8.89929 21.7076C9.52987 20.9031 10.4718 20.6582 11.4848 21.0375C12.068 21.2556 12.5405 21.6175 12.9008 22.1311C13.7306 23.3164 14.5682 24.4938 15.4042 25.6743C15.5496 25.8814 15.6049 25.8845 15.7645 25.6886C16.6811 24.5681 17.5425 23.4065 18.4623 22.2891C21.288 18.8549 24.4978 15.8174 27.9841 13.066C29.2816 12.0419 30.6123 11.0604 31.9699 10.1154C32.0268 10.0759 32.0852 10.0379 32.1437 10C32.1516 10.0111 32.1579 10.0221 32.1643 10.0348Z" fill="#ED1B24"/>
<rect x="1.5" y="1.5" width="38" height="37" rx="4.5" stroke="#333333" stroke-width="3"/>
</svg>
