<svg width="40" height="41" viewBox="0 0 40 41" fill="none" xmlns="http://www.w3.org/2000/svg">
<path d="M19.6813 40.0618C30.551 40.0618 39.3626 31.0937 39.3626 20.0309C39.3626 8.96815 30.551 0 19.6813 0C8.81162 0 0 8.96815 0 20.0309C0 31.0937 8.81162 40.0618 19.6813 40.0618Z" fill="white"/>
<path d="M24.9707 30.5554C21.3038 30.5554 17.6374 30.5554 13.9705 30.5554C13.9552 30.4927 13.8944 30.498 13.8526 30.4848C12.9918 30.218 12.522 29.6333 12.4373 28.7445C12.3733 28.0733 12.3247 27.4011 12.2686 26.7295C12.1046 24.7778 11.9384 22.8255 11.776 20.8738C11.6279 19.0897 11.4882 17.3046 11.33 15.521C11.3115 15.3112 11.3671 15.2891 11.5501 15.2891C16.8581 15.2933 22.1656 15.2928 27.4736 15.2928C27.5091 15.2928 27.5445 15.2964 27.5794 15.2922C27.6969 15.2769 27.7122 15.326 27.7027 15.4351C27.5249 17.5128 27.3509 19.5906 27.1789 21.6688C26.989 23.9637 26.7975 26.2587 26.616 28.5547C26.5636 29.2142 26.3578 29.781 25.8007 30.1895C25.5479 30.3756 25.2542 30.4489 24.9707 30.5554ZM16.9772 27.4322C16.937 26.759 16.9068 26.2471 16.8751 25.7357C16.7671 23.9975 16.6581 22.2593 16.5497 20.5211C16.4799 19.3997 16.4105 18.2783 16.3375 17.157C16.3222 16.9245 16.2143 16.7426 16.0021 16.6319C15.5678 16.4057 15.0615 16.7157 15.0757 17.2165C15.0911 17.7638 15.1366 18.3105 15.171 18.8572C15.2778 20.5675 15.3858 22.2777 15.4932 23.9875C15.5646 25.1299 15.6334 26.2724 15.7069 27.4148C15.7249 27.6922 15.8661 27.8909 16.1328 27.9858C16.5899 28.1492 16.992 27.8045 16.9772 27.4322ZM23.949 17.3446C23.9506 17.3446 23.9522 17.3446 23.9538 17.3446C23.9538 17.2956 23.9549 17.2466 23.9538 17.197C23.9453 16.8459 23.6866 16.5723 23.3512 16.5596C23.0094 16.547 22.7111 16.8106 22.6883 17.1622C22.5867 18.7454 22.4899 20.3292 22.391 21.9129C22.2973 23.4123 22.2032 24.9117 22.1095 26.411C22.0899 26.7263 22.063 27.0416 22.0556 27.3574C22.0466 27.7328 22.3148 28.0159 22.6693 28.0248C23.0253 28.0338 23.2988 27.7702 23.3221 27.3927C23.3967 26.1875 23.4692 24.9823 23.5448 23.7771C23.6782 21.6324 23.8141 19.4883 23.949 17.3446ZM18.8786 22.2693C18.8786 23.5683 18.8786 24.8674 18.8786 26.1664C18.8786 26.5808 18.8722 26.9952 18.8823 27.409C18.8902 27.7401 19.1447 27.9969 19.4642 28.0222C19.7812 28.0475 20.0774 27.8234 20.1362 27.5061C20.1526 27.4175 20.1473 27.3242 20.1473 27.233C20.1478 23.9395 20.1478 20.646 20.1478 17.3526C20.1478 17.2824 20.152 17.2113 20.1441 17.1422C20.115 16.8833 19.9811 16.6962 19.7362 16.6018C19.3008 16.4336 18.8807 16.7531 18.8796 17.255C18.877 18.9268 18.8786 20.598 18.8786 22.2693Z" fill="#333333"/>
<path d="M21.9034 8.96928C22.2399 8.96928 22.5748 9.03254 22.8822 9.16856C22.9785 9.21127 23.0721 9.26188 23.1589 9.32725C23.6763 9.71791 23.935 10.2377 23.9546 10.8799C23.9593 11.0275 23.9673 11.1762 23.9525 11.3222C23.9371 11.4756 23.9948 11.5036 24.1387 11.5025C25.3227 11.4962 26.5073 11.4972 27.6913 11.4999C28.3235 11.5015 28.8065 11.8441 28.9737 12.3988C29.1869 13.1073 28.7568 13.8354 28.0315 13.9946C27.8997 14.0236 27.7664 14.0289 27.632 14.0289C22.2188 14.0284 16.8049 14.0289 11.3917 14.0284C10.743 14.0284 10.2584 13.7226 10.0775 13.2017C9.7791 12.3429 10.3695 11.5099 11.2964 11.5009C12.3323 11.4909 13.3687 11.4988 14.4051 11.4988C14.5813 11.4988 14.758 11.492 14.9337 11.5015C15.0458 11.5073 15.0755 11.4714 15.0739 11.3612C15.0681 11.0038 15.0495 10.6437 15.1665 10.2973C15.3728 9.6847 15.7844 9.27506 16.397 9.0647C16.3997 9.06365 16.4018 9.06312 16.4044 9.06207C16.6235 8.99564 16.8531 8.96875 17.0822 8.96875H21.9034V8.96928ZM19.5015 11.4988C20.5014 11.4988 21.5014 11.4962 22.5013 11.502C22.6409 11.503 22.7071 11.482 22.6896 11.3248C22.6748 11.193 22.688 11.0586 22.6864 10.9252C22.6812 10.4903 22.4267 10.2377 21.9865 10.2346C21.6135 10.2319 21.24 10.234 20.867 10.234C19.6137 10.234 18.3604 10.2335 17.107 10.234C16.5727 10.234 16.3415 10.4676 16.341 11.0064C16.341 11.1119 16.3515 11.2183 16.3383 11.3217C16.3187 11.4746 16.3791 11.503 16.5235 11.502C17.5155 11.4957 18.5085 11.4988 19.5015 11.4988Z" fill="#C4C4C4"/>
<path d="M19.5018 11.4984C18.5088 11.4984 17.5162 11.4953 16.5232 11.5021C16.3793 11.5032 16.3185 11.4742 16.338 11.3218C16.3513 11.2185 16.3407 11.1115 16.3407 11.0066C16.3412 10.4683 16.5724 10.2347 17.1068 10.2342C18.3601 10.2337 19.6134 10.2342 20.8667 10.2342C21.2397 10.2342 21.6132 10.2321 21.9862 10.2347C22.4259 10.2379 22.6809 10.4904 22.6862 10.9254C22.6878 11.0588 22.6745 11.1932 22.6893 11.325C22.7068 11.4821 22.6407 11.5032 22.501 11.5021C21.5016 11.4958 20.5017 11.4984 19.5018 11.4984Z" fill="#FEFEFE"/>
<path d="M27.6873 8.96875L29.4731 11.5088L31.2815 8.96875H32.9166L30.2492 12.4114L32.9995 15.9443H31.387L29.5033 13.3269L27.6195 15.9443H25.9995L28.7422 12.4114L26.0824 8.96875H27.6873Z" fill="#D36438"/>
</svg>
