<svg width="33" height="35" viewBox="0 0 33 35" fill="none" xmlns="http://www.w3.org/2000/svg">
<path d="M19.2891 26.8283C20.2264 26.8283 21.1063 26.8229 21.988 26.8319C22.1765 26.8337 22.2376 26.7942 22.2358 26.5913C22.2286 24.1816 22.2304 21.7719 22.2304 19.3622C22.2304 18.7661 22.5051 18.486 23.1103 18.4842C24.5522 18.4806 25.9941 18.4824 27.4361 18.4824C27.9101 18.4824 28.3824 18.4824 28.8564 18.4824C29.0827 18.4824 29.2982 18.5291 29.4849 18.6673C29.6717 18.8074 29.7435 18.9941 29.7435 19.2276C29.7399 21.6803 29.7435 24.1331 29.7381 26.5859C29.7381 26.7744 29.7758 26.8355 29.9787 26.8337C30.8317 26.8211 31.6864 26.8283 32.5394 26.8283C32.5717 26.8283 32.6094 26.8103 32.6399 26.8498C32.6274 26.9253 32.5609 26.963 32.5142 27.0132C30.3918 29.3475 28.2657 31.68 26.145 34.0178C26.0265 34.1471 25.9726 34.1812 25.8343 34.0268C23.7495 31.7249 21.6576 29.4301 19.5674 27.1335C19.483 27.0474 19.404 26.9558 19.2891 26.8283Z" fill="#D36438"/>
<path d="M13.0045 0.568045C14.8559 0.568045 16.7054 0.56984 18.5568 0.564453C18.7363 0.564453 18.8602 0.61473 18.9841 0.744012C21.7297 3.57746 24.4789 6.40551 27.2263 9.23537C27.7812 9.80636 28.3342 10.3792 28.8927 10.9466C28.9735 11.0292 29.0112 11.11 29.0094 11.2285C29.0058 13.2288 29.004 15.2308 29.0112 17.2311C29.0112 17.3909 28.9735 17.4376 28.8101 17.434C28.3378 17.4215 27.8638 17.4215 27.3897 17.434C27.2137 17.4394 27.1617 17.3927 27.1634 17.2132C27.1706 15.9078 27.1652 14.6024 27.1724 13.297C27.1742 13.1228 27.1383 13.0708 26.9534 13.0725C25.1667 13.0797 23.3817 13.0869 21.595 13.0743C19.9466 13.0618 18.5693 12.4405 17.5171 11.1584C16.806 10.2912 16.454 9.28205 16.4504 8.1616C16.445 6.31753 16.4468 4.47525 16.4522 2.63118C16.4522 2.46419 16.4307 2.40134 16.2385 2.40314C13.3618 2.41032 10.4852 2.40673 7.61029 2.40853C6.70167 2.40853 5.93851 2.90052 5.61708 3.6834C5.50934 3.94555 5.46984 4.22028 5.46804 4.50219C5.46624 4.67097 5.54525 4.89363 5.43392 4.99777C5.32439 5.10012 5.10531 5.0247 4.93472 5.0265C4.55404 5.03009 4.17515 5.02829 3.79447 5.02829C3.71546 5.02829 3.64363 5.04266 3.63645 4.91697C3.57001 3.67622 3.88605 2.57372 4.80364 1.69208C5.57758 0.946914 6.51133 0.577023 7.58156 0.573432C9.38981 0.562658 11.1963 0.568045 13.0045 0.568045ZM18.4382 2.81792C18.4275 2.87718 18.4203 2.89693 18.4203 2.91668C18.4203 4.71586 18.4023 6.51684 18.4328 8.31423C18.4454 9.06658 18.7543 9.72377 19.3343 10.2409C19.9915 10.8263 20.7529 11.11 21.6274 11.1082C22.8969 11.1082 24.1647 11.1082 25.4342 11.11C25.7736 11.11 26.113 11.11 26.4937 11.11C23.793 8.32859 21.1264 5.58493 18.4382 2.81792Z" fill="#999999"/>
<path d="M7.61907 15.1788C5.45348 15.1788 3.28609 15.1788 1.1205 15.1788C0.355543 15.1788 0.00179469 14.8287 0.00179469 14.0619C-9.86356e-07 11.6666 0 9.2713 0 6.87419C0 6.27446 0.407617 5.87045 1.02174 5.87045C3.31662 5.86865 5.61329 5.86865 7.90817 5.86865C9.98039 5.86865 12.0544 5.86865 14.1266 5.86865C14.8503 5.86865 15.2292 6.24752 15.2292 6.96756C15.2292 9.37006 15.2292 11.7726 15.2292 14.1769C15.2292 14.7784 14.8179 15.177 14.1841 15.1788C12.4979 15.1824 10.8136 15.1788 9.12744 15.1788C8.62465 15.1788 8.12186 15.1788 7.61907 15.1788ZM5.74258 10.5282C5.74258 11.4242 5.74258 12.3202 5.74258 13.2162C5.74258 13.3222 5.73181 13.4083 5.88983 13.4048C6.49138 13.394 7.09473 13.4048 7.69628 13.3886C8.62465 13.3635 9.23518 12.893 9.56558 12.0329C9.87265 11.2321 9.8906 10.4061 9.75234 9.57655C9.57277 8.50817 9.03406 7.92281 8.07338 7.73068C7.34433 7.58344 6.60092 7.65706 5.86469 7.64449C5.70846 7.6409 5.74438 7.75402 5.74438 7.83842C5.74258 8.73621 5.74258 9.63222 5.74258 10.5282ZM1.25698 10.5139H1.25518C1.25518 11.4099 1.25877 12.3059 1.25159 13.2001C1.24979 13.3563 1.2875 13.4119 1.4545 13.4048C1.75438 13.3904 2.05605 13.3922 2.35773 13.4048C2.50497 13.4101 2.55166 13.3724 2.54807 13.218C2.53909 12.638 2.54986 12.0581 2.54089 11.4763C2.53909 11.3201 2.56962 11.2608 2.73841 11.2716C3.04547 11.2895 3.35433 11.2698 3.66139 11.2375C4.32938 11.1692 4.80704 10.8532 5.02252 10.1996C5.13564 9.85487 5.15899 9.49396 5.1123 9.13663C4.99199 8.20831 4.47483 7.72889 3.53749 7.66604C2.84256 7.61936 2.14763 7.65347 1.4527 7.63731C1.28391 7.63372 1.25338 7.68938 1.25518 7.8456C1.26057 8.73621 1.25698 9.62503 1.25698 10.5139ZM10.6717 10.53C10.6717 11.426 10.6753 12.322 10.6681 13.218C10.6663 13.3706 10.7112 13.4119 10.8585 13.4066C11.1655 13.3958 11.4744 13.3958 11.7833 13.4066C11.9287 13.4119 11.9628 13.3635 11.961 13.2252C11.9538 12.5878 11.9628 11.9485 11.9556 11.3111C11.9538 11.1603 11.9987 11.1172 12.1478 11.1208C12.5841 11.1315 13.0223 11.1208 13.4604 11.1279C13.5951 11.1297 13.6543 11.101 13.6454 10.952C13.6328 10.7455 13.6328 10.5354 13.6454 10.3289C13.6526 10.1835 13.613 10.1296 13.4568 10.135C13.0133 10.1458 12.568 10.1332 12.1226 10.1422C11.988 10.144 11.9538 10.1027 11.9574 9.97338C11.9664 9.58553 11.9664 9.19948 11.9574 8.81163C11.9538 8.67157 11.9933 8.63027 12.137 8.63207C12.7386 8.63925 13.3419 8.63028 13.9435 8.63746C14.0817 8.63925 14.1535 8.6195 14.1428 8.4561C14.1284 8.24243 14.132 8.02516 14.1428 7.81148C14.15 7.67502 14.0979 7.64449 13.9704 7.64449C12.9307 7.64988 11.891 7.65168 10.8513 7.64449C10.6861 7.6427 10.6699 7.70734 10.6717 7.8438C10.6753 8.73621 10.6717 9.63401 10.6717 10.53Z" fill="#D36438"/>
<path d="M22.2333 31.8365C22.1543 31.8886 22.0896 31.8688 22.0286 31.8688C17.2162 31.8706 12.4037 31.8724 7.58951 31.8688C5.60529 31.867 4.01252 30.5257 3.67852 28.5901C3.63902 28.3567 3.63722 28.1196 3.63722 27.8826C3.63722 24.0024 3.63902 20.1221 3.63184 16.2418C3.63184 16.0586 3.68032 16.0156 3.8563 16.0209C4.32856 16.0353 4.80262 16.0353 5.27668 16.0227C5.44727 16.0173 5.47241 16.0748 5.47061 16.2274C5.46702 20.1005 5.48677 23.9736 5.45625 27.8467C5.44547 29.1054 6.39718 30.0499 7.66134 30.0481C11.9009 30.0391 16.1387 30.0463 20.3783 30.0427C20.5328 30.0427 20.6423 30.0804 20.7483 30.2007C21.2349 30.7466 21.7305 31.2835 22.2333 31.8365Z" fill="#999999"/>
<path d="M13.9477 19.1559C12.0047 19.1559 10.0618 19.1541 8.11889 19.1613C7.93932 19.1613 7.88904 19.1182 7.89443 18.9386C7.90879 18.4879 7.9052 18.0354 7.89443 17.583C7.89083 17.4267 7.94291 17.398 8.08836 17.398C11.4517 17.4016 14.815 17.4016 18.1765 17.4016C18.7134 17.4016 19.2521 17.407 19.789 17.398C19.9309 17.3962 19.9704 17.4339 19.9686 17.5758C19.9596 18.0408 19.9578 18.5077 19.9686 18.9745C19.9722 19.1308 19.9201 19.1613 19.7746 19.1595C17.8353 19.1541 15.8906 19.1559 13.9477 19.1559Z" fill="#999999"/>
<path d="M13.9477 22.2136C12.0047 22.2136 10.0618 22.2118 8.11887 22.2172C7.9411 22.2172 7.88903 22.1777 7.89441 21.9963C7.90878 21.5385 7.90699 21.0788 7.89801 20.6209C7.89621 20.4827 7.93931 20.4575 8.0668 20.4575C11.9742 20.4611 15.8816 20.4611 19.7908 20.4575C19.9309 20.4575 19.974 20.4916 19.9704 20.6353C19.9614 21.1003 19.9596 21.5672 19.9704 22.0341C19.974 22.1921 19.9201 22.219 19.7764 22.219C17.8353 22.2118 15.8906 22.2136 13.9477 22.2136Z" fill="#999999"/>
<path d="M13.9226 23.5195C15.8439 23.5195 17.7653 23.5231 19.6867 23.5142C19.8968 23.5142 19.9848 23.5483 19.9722 23.7871C19.9507 24.2162 19.9578 24.6472 19.9722 25.0763C19.9776 25.2397 19.9327 25.2756 19.7711 25.2756C17.0039 25.2702 14.2368 25.272 11.4697 25.272C10.3438 25.272 9.21788 25.2685 8.09378 25.2774C7.92319 25.2792 7.89267 25.229 7.89626 25.0745C7.90524 24.631 7.90883 24.1857 7.89446 23.7422C7.88908 23.5662 7.93397 23.516 8.11533 23.516C10.0511 23.5231 11.9868 23.5213 13.9226 23.5195Z" fill="#999999"/>
<path d="M5.74249 10.5281C5.74249 9.63212 5.74249 8.73612 5.74429 7.84012C5.74429 7.75393 5.70837 7.6426 5.8646 7.64619C6.60082 7.65876 7.34424 7.58514 8.07328 7.73238C9.03397 7.9263 9.57268 8.50987 9.75224 9.57825C9.89051 10.406 9.87255 11.232 9.56549 12.0346C9.23509 12.8947 8.62456 13.3652 7.69619 13.3903C7.09464 13.4065 6.49129 13.3957 5.88973 13.4065C5.73172 13.41 5.74249 13.3239 5.74249 13.2179C5.74249 12.3201 5.74249 11.4241 5.74249 10.5281ZM7.02461 10.5084C7.02461 11.0883 7.02461 11.6701 7.02461 12.2501C7.02461 12.3399 7.01742 12.4081 7.1503 12.4171C7.79675 12.4584 8.18282 12.2106 8.34623 11.5857C8.52579 10.9034 8.53477 10.2067 8.37675 9.52079C8.22951 8.87258 7.87037 8.62299 7.20058 8.62658C7.05872 8.62658 7.01742 8.66788 7.01922 8.80974C7.02999 9.37535 7.02461 9.94276 7.02461 10.5084Z" fill="#FDFDFD"/>
<path d="M1.25767 10.5137C1.25767 9.62491 1.26126 8.73609 1.25408 7.84907C1.25228 7.69465 1.28461 7.63719 1.45161 7.64078C2.14653 7.65694 2.84146 7.62462 3.53639 7.66951C4.47373 7.73236 4.99269 8.20998 5.1112 9.1401C5.15789 9.49742 5.13454 9.85834 5.02142 10.2031C4.80593 10.8567 4.32828 11.1727 3.66029 11.2409C3.35323 11.2715 3.04437 11.293 2.73731 11.2751C2.56852 11.2643 2.53799 11.3235 2.53979 11.4798C2.54877 12.0597 2.53799 12.6415 2.54697 13.2215C2.54877 13.3759 2.50387 13.4136 2.35663 13.4082C2.05675 13.3957 1.75508 13.3939 1.4534 13.4082C1.2882 13.4154 1.25049 13.3597 1.25049 13.2035C1.25767 12.3075 1.25408 11.4115 1.25408 10.5173C1.25767 10.5137 1.25767 10.5137 1.25767 10.5137ZM2.54517 9.41303C2.54517 9.52077 2.54517 9.62671 2.54517 9.73444C2.54517 10.3593 2.56852 10.3755 3.1988 10.2677C3.42685 10.23 3.60822 10.1402 3.69082 9.91221C3.79317 9.6285 3.81292 9.33941 3.72314 9.05032C3.64413 8.79176 3.48072 8.61399 3.19342 8.59245C3.03719 8.58167 2.87917 8.58706 2.72295 8.5727C2.58647 8.56013 2.53261 8.60143 2.53979 8.74687C2.55415 8.96952 2.54517 9.19217 2.54517 9.41303Z" fill="#FDFDFD"/>
<path d="M10.6713 10.5299C10.6713 9.63393 10.6731 8.73793 10.6677 7.84193C10.6677 7.70546 10.6839 7.64082 10.8473 7.64261C11.887 7.6498 12.9267 7.648 13.9664 7.64261C14.0939 7.64261 14.1459 7.67314 14.1388 7.80961C14.128 8.02508 14.1244 8.24055 14.1388 8.45422C14.1495 8.61762 14.0777 8.63737 13.9394 8.63558C13.3379 8.63019 12.7345 8.63917 12.133 8.63019C11.9893 8.62839 11.9498 8.66969 11.9534 8.80975C11.9624 9.1958 11.9624 9.58365 11.9534 9.9715C11.9498 10.1026 11.9839 10.1439 12.1186 10.1403C12.5621 10.1313 13.0075 10.1439 13.4528 10.1331C13.609 10.1295 13.6485 10.1816 13.6414 10.327C13.6306 10.5335 13.6288 10.7436 13.6414 10.9501C13.6503 11.0991 13.5929 11.1279 13.4564 11.1261C13.02 11.1189 12.5819 11.1297 12.1438 11.1189C11.9929 11.1153 11.9498 11.1584 11.9516 11.3092C11.9588 11.9466 11.9516 12.5859 11.957 13.2233C11.9588 13.3616 11.9247 13.4101 11.7792 13.4047C11.4722 13.3939 11.1633 13.3939 10.8545 13.4047C10.7054 13.4101 10.6623 13.3706 10.6641 13.2161C10.6767 12.3219 10.6713 11.4259 10.6713 10.5299Z" fill="#FDFDFD"/>
<path d="M7.02464 10.5083C7.02464 9.94267 7.03003 9.37527 7.02105 8.80965C7.01926 8.6678 7.06056 8.6283 7.20242 8.6265C7.87221 8.62291 8.23134 8.8725 8.37859 9.52071C8.53481 10.2066 8.52763 10.9033 8.34806 11.5856C8.18286 12.2105 7.79858 12.4583 7.15214 12.417C7.01926 12.408 7.02464 12.3398 7.02644 12.25C7.02644 11.67 7.02464 11.0901 7.02464 10.5083Z" fill="#F30101"/>
<path d="M2.54556 9.41299C2.54556 9.19213 2.55454 8.96948 2.54197 8.74862C2.53299 8.60139 2.58686 8.56188 2.72513 8.57445C2.88135 8.58882 3.03937 8.58163 3.1956 8.5942C3.48291 8.61575 3.64631 8.79351 3.72532 9.05208C3.81331 9.34117 3.79536 9.63206 3.693 9.91396C3.6104 10.142 3.42904 10.23 3.20098 10.2695C2.5725 10.3754 2.54736 10.3593 2.54736 9.7362C2.54556 9.62846 2.54556 9.52073 2.54556 9.41299Z" fill="#F30101"/>
</svg>
