<svg width="37" height="37" viewBox="0 0 37 37" fill="none" xmlns="http://www.w3.org/2000/svg">
<g clip-path="url(#clip0_322_32)">
<path d="M29.0641 17.1491C28.8925 17.3456 28.7209 17.5422 28.5483 17.7387C28.2171 18.0351 27.8769 18.3233 27.6345 18.7062C27.5636 18.7551 27.4828 18.7938 27.423 18.8539C25.6163 20.6972 23.8126 22.5436 22.0079 24.389C21.6208 24.7902 21.2347 25.1905 20.8476 25.5917C20.7468 25.6854 20.6421 25.774 20.5463 25.8728C17.8896 28.5828 15.2349 31.2948 12.5783 34.0048C12.4556 34.1301 12.3229 34.2452 12.1942 34.3643C11.6076 34.3796 11.4709 34.2645 11.3622 33.6932C11.2464 33.0852 11.1068 32.4813 11.005 31.8713C10.9711 31.6676 10.8883 31.6268 10.7127 31.6299C10.2648 31.637 9.81682 31.634 9.36889 31.6309C9.1973 31.6299 9.01573 31.6452 8.901 31.468C8.99079 31.3641 9.07559 31.2541 9.17136 31.1563C14.6733 25.5388 20.1762 19.9222 25.6791 14.3057C25.7749 14.2079 25.8796 14.1173 25.9804 14.0236C27.01 15.0644 28.0365 16.1072 29.0641 17.1491Z" fill="#3787C8"/>
<path d="M25.9825 14.0226C25.8817 14.1163 25.777 14.2059 25.6812 14.3047C20.1783 19.9212 14.6753 25.5378 9.17342 31.1554C9.07764 31.2531 8.99284 31.3631 8.90306 31.467C8.88211 31.4629 8.86016 31.4578 8.83921 31.4527C8.75341 31.2796 8.72847 31.0963 8.73147 30.9028C8.73745 30.4985 8.71451 30.0932 8.73945 29.6899C8.7574 29.3955 8.64667 29.2988 8.37332 29.253C7.80068 29.1583 7.23402 29.0269 6.66538 28.9047C6.13164 28.7896 6.04585 28.6745 6.05383 28.1062C6.74618 27.2986 7.53032 26.5847 8.25959 25.8148C8.4651 25.5979 8.67759 25.386 8.8871 25.1722C9.29812 24.7638 9.7261 24.3717 10.0932 23.9185C10.4125 23.6008 10.7347 23.2861 11.05 22.9653C13.0682 20.9071 15.0854 18.8489 17.0986 16.7866C17.2023 16.6796 17.3899 16.6083 17.335 16.3955C17.8159 16.2081 18.1042 15.8089 18.3845 15.4005C18.5431 15.3659 18.6259 15.2294 18.7297 15.1245C20.1284 13.7079 21.5241 12.2882 22.9207 10.8706C23.9403 11.8992 24.9599 12.9278 25.9795 13.9554C25.9835 13.9778 25.9845 14.0002 25.9825 14.0226Z" fill="#5298D2"/>
<path d="M18.3844 15.4005C18.1041 15.8079 17.8158 16.2071 17.3349 16.3955C15.7477 16.0258 14.1625 15.6449 12.7518 14.764C12.1692 14.4004 11.6844 13.9279 11.4778 13.2303C11.2584 12.4899 11.4709 11.8279 11.8589 11.2077C12.4535 10.2606 13.2905 9.56092 14.1595 8.89793C14.9855 8.26753 15.8864 7.74305 16.6765 7.06173C17.0676 6.72463 17.4377 6.36819 17.73 5.93638C18.2827 5.12267 18.1969 4.54625 17.4207 3.94335C16.8301 3.48404 16.1478 3.20704 15.4494 2.97382C13.6716 2.37907 11.834 2.06743 9.9844 1.82912C6.8718 1.42889 3.74423 1.26899 0.609679 1.21706C0.186685 1.20993 -0.0517488 0.986894 -0.0557393 0.615174C-0.0597299 0.231232 0.191673 -0.00402159 0.635618 5.20601e-05C3.52176 0.0275492 6.40091 0.180311 9.27109 0.50824C11.3472 0.74553 13.4093 1.06226 15.4165 1.6733C16.3592 1.9605 17.2751 2.31898 18.0782 2.91984C19.4589 3.9515 19.6634 5.29886 18.6548 6.71343C18.0153 7.61065 17.1663 8.27364 16.2794 8.88876C15.3846 9.50898 14.4817 10.117 13.6946 10.8828C13.3514 11.2169 13.0242 11.5641 12.7927 11.9919C12.4595 12.607 12.5433 13.0612 13.084 13.495C13.7794 14.0531 14.5974 14.3576 15.4285 14.6265C16.3992 14.9412 17.3928 15.1673 18.3844 15.4005Z" fill="#356287"/>
<path d="M33.9105 6.0127C34.512 6.6268 35.2144 7.14823 35.5546 7.99351C35.9905 9.0771 35.7701 10.3216 34.958 11.1526C34.117 12.0132 33.263 12.8615 32.415 13.715C31.3955 12.6721 30.3759 11.6292 29.3573 10.5864C29.3773 10.5548 29.3932 10.5182 29.4192 10.4927C30.8328 9.04757 32.2464 7.60447 33.6601 6.15935C33.7299 6.08806 33.8007 6.01677 33.9105 6.0127Z" fill="#D0D0D0"/>
<path d="M33.9106 6.0128C33.8019 6.01687 33.731 6.08816 33.6592 6.16047C32.2456 7.60458 30.8309 9.04869 29.4183 10.4938C29.3923 10.5203 29.3764 10.5559 29.3564 10.5875C29.3325 10.5865 29.3085 10.5845 29.2846 10.5814C29.1769 10.4602 29.0731 10.336 28.9604 10.2199C28.0725 9.30125 27.1826 8.38468 26.2937 7.46811C27.1906 6.46497 28.1303 5.50257 29.107 4.58396C29.9281 3.81201 31.5313 3.85274 32.4421 4.5636C32.9858 4.98827 33.4487 5.49952 33.9106 6.0128Z" fill="#EDEDEE"/>
<path d="M29.2845 10.5814C29.3085 10.5855 29.3324 10.5875 29.3564 10.5875C30.3759 11.6304 31.3955 12.6732 32.4141 13.7161C31.8784 14.3628 31.2578 14.926 30.6772 15.5299C30.1485 16.0798 29.6018 16.6104 29.0631 17.1502C28.0355 16.1083 27.0089 15.0655 25.9814 14.0237C25.9834 14.0013 25.9814 13.9788 25.9784 13.9564C26.6478 13.3729 27.2384 12.7058 27.8599 12.0734C28.3428 11.5835 28.8536 11.1222 29.2845 10.5814Z" fill="#E9B221"/>
<path d="M10.0932 23.9195C9.72607 24.3727 9.29809 24.7648 8.88706 25.1732C7.12824 25.2536 5.38938 25.4594 3.77721 26.2395C2.33364 26.9371 1.38789 28.0533 1.25121 29.7347C1.15444 30.9252 1.64927 31.9303 2.32167 32.8591C2.57407 33.2074 2.87336 33.5119 3.17464 33.8154C3.445 34.0884 3.45497 34.4346 3.21654 34.6933C2.9821 34.9479 2.65787 34.9856 2.38552 34.7228C0.871114 33.2594 -0.181384 31.5658 0.0969543 29.3263C0.327407 27.4758 1.37392 26.1743 2.95117 25.2974C4.26006 24.5693 5.69266 24.2658 7.15418 24.0835C8.12887 23.9623 9.10953 23.892 10.0932 23.9195Z" fill="#356287"/>
<path d="M20.8486 25.5918C21.2357 25.1906 21.6218 24.7903 22.0089 24.3891C22.0817 24.4033 22.1545 24.4278 22.2274 24.4298C24.0929 24.4634 25.9565 24.442 27.7861 24.0011C28.6521 23.7923 29.4981 23.499 30.1356 22.838C31.3217 21.6068 31.2719 20.5242 29.8193 19.6637C29.129 19.2542 28.3867 18.9681 27.6345 18.7074C27.8779 18.3244 28.2171 18.0362 28.5483 17.7399C29.4233 18.0393 30.2613 18.4151 30.9925 18.9996C32.2575 20.0119 32.5129 21.3481 31.7078 22.7688C30.9895 24.0377 29.8223 24.6732 28.5024 25.0684C26.7686 25.5878 24.9818 25.659 23.1921 25.6652C22.4119 25.6672 21.6298 25.6173 20.8486 25.5918Z" fill="#356287"/>
<path d="M29.2845 10.5814C28.8545 11.1222 28.3427 11.5835 27.8619 12.0734C27.2394 12.7058 26.6498 13.3729 25.9804 13.9564C24.9608 12.9278 23.9412 11.8992 22.9216 10.8716C24.012 9.7524 25.1024 8.63214 26.1949 7.51393C26.2188 7.48948 26.2607 7.48337 26.2946 7.46912C27.1835 8.38569 28.0734 9.30226 28.9613 10.2209C29.072 10.3349 29.1758 10.4602 29.2845 10.5814Z" fill="#FFCA2A"/>
<path d="M8.83807 31.4528C8.85902 31.4579 8.88097 31.4619 8.90192 31.467C9.01664 31.6442 9.19821 31.6289 9.3698 31.63C9.81774 31.633 10.2657 31.6361 10.7136 31.6289C10.8882 31.6259 10.972 31.6666 11.0059 31.8703C11.1077 32.4803 11.2473 33.0843 11.3631 33.6922C11.4718 34.2626 11.6085 34.3787 12.1951 34.3634C11.9517 34.7178 11.6324 34.9306 11.2054 35.0182C10.2058 35.2229 9.21318 35.4623 8.21754 35.6873C7.64889 35.0956 7.08025 34.5029 6.5116 33.9112C6.67122 33.735 6.82884 33.5568 6.99146 33.3827C7.59901 32.7329 8.26343 32.1371 8.83807 31.4528Z" fill="#FAB17F"/>
<path d="M8.8381 31.4527C8.26247 32.1371 7.59904 32.7329 6.99049 33.3826C6.82787 33.5557 6.67025 33.735 6.51063 33.9112C6.48669 33.9081 6.46374 33.905 6.4398 33.902C5.88711 33.3164 5.33442 32.7298 4.78174 32.1442C4.91143 31.1187 5.23765 30.1349 5.41224 29.1205C5.49005 28.6704 5.72051 28.3659 6.05372 28.1062C6.04573 28.6745 6.13153 28.7906 6.66526 28.9046C7.23291 29.0268 7.80056 29.1582 8.3732 29.2529C8.64655 29.2977 8.75729 29.3955 8.73933 29.6898C8.71439 30.0931 8.73734 30.4985 8.73135 30.9028C8.72736 31.0963 8.7533 31.2796 8.8381 31.4527Z" fill="#FCCBAB"/>
<path d="M6.43977 33.9021C6.46372 33.9052 6.48666 33.9082 6.51061 33.9113C7.07925 34.503 7.6479 35.0947 8.21655 35.6874C7.02638 36.0408 5.80628 36.2679 4.60214 36.5632C4.39164 36.6151 4.15022 36.6141 4.02551 36.3534C4.87549 35.5825 5.66561 34.7504 6.43977 33.9021Z" fill="#2C5170"/>
<path d="M6.43978 33.902C5.66661 34.7513 4.87549 35.5824 4.02551 36.3533C3.84893 36.2138 3.8639 36.0142 3.9038 35.8329C4.16917 34.6312 4.44552 33.4315 4.71986 32.2318C4.72685 32.1992 4.75977 32.1727 4.78072 32.1432C5.3344 32.7298 5.88709 33.3164 6.43978 33.902Z" fill="#356287"/>
</g>
<defs>
<clipPath id="clip0_322_32">
<rect width="37" height="37" fill="white"/>
</clipPath>
</defs>
</svg>
