<svg width="40" height="41" viewBox="0 0 40 41" fill="none" xmlns="http://www.w3.org/2000/svg">
<path d="M19.7119 40.2022C30.5816 40.2022 39.3932 31.2026 39.3932 20.1011C39.3932 8.99956 30.5816 0 19.7119 0C8.84226 0 0.0306396 8.99956 0.0306396 20.1011C0.0306396 31.2026 8.84226 40.2022 19.7119 40.2022Z" fill="white"/>
<g clip-path="url(#clip0_217_100)">
<path d="M27 20.9394C26.9619 21.2232 26.9386 21.5101 26.8833 21.7903C26.4168 24.143 25.1635 25.9332 23.0498 27.0932C21.8513 27.7507 20.5609 28.0599 19.1944 27.9909C17.0127 27.8807 15.1975 27.0008 13.7696 25.3391C13.6213 25.1665 13.63 24.997 13.7924 24.8314C14.2 24.4177 14.6097 24.0054 15.0193 23.5937C15.232 23.3804 15.4198 23.3881 15.6102 23.6257C16.2081 24.372 16.9503 24.9259 17.8604 25.2178C19.8097 25.8438 21.5467 25.4321 23.0244 24.0328C23.8381 23.2621 24.3071 22.2818 24.4482 21.1648C24.6523 19.5468 24.1696 18.141 23.0396 16.9778C22.2584 16.1736 21.2868 15.6989 20.1716 15.5517C18.8122 15.372 17.5787 15.701 16.4787 16.5199C16.3508 16.6148 16.235 16.726 16.0914 16.8494C16.3264 17.0784 16.5513 17.2941 16.7721 17.5135C16.9975 17.7368 17.2254 17.9582 17.4411 18.1907C17.7553 18.5289 17.6406 19.0564 17.2223 19.2076C17.133 19.2396 17.031 19.2462 16.9345 19.2462C15.5188 19.2488 14.1031 19.2488 12.6873 19.2472C12.2574 19.2467 12.0026 18.9914 12.002 18.5654C12.001 17.1494 12.001 15.734 12.002 14.318C12.0026 13.9342 12.1624 13.7326 12.531 13.6336C12.7031 13.5874 12.8559 13.6321 12.9797 13.7443C13.2107 13.954 13.433 14.1743 13.6538 14.3952C13.8772 14.6185 14.0949 14.8485 14.302 15.0618C14.6746 14.7795 15.0071 14.4987 15.3675 14.2596C16.4467 13.5422 17.635 13.1224 18.933 13.0249C18.9762 13.0218 19.0183 13.0086 19.0604 13C19.3533 13 19.6462 13 19.9391 13C19.9767 13.0081 20.0142 13.0213 20.0523 13.0239C20.9828 13.0858 21.8675 13.3229 22.7036 13.7321C25.0081 14.8607 26.3807 16.7057 26.8828 19.2102C26.9386 19.4899 26.9614 19.7768 26.9995 20.0601C27 20.353 27 20.646 27 20.9394Z" fill="#033333"/>
</g>
<defs>
<clipPath id="clip0_217_100">
<rect width="15" height="15" fill="white" transform="translate(12 13)"/>
</clipPath>
</defs>
</svg>
