<svg width="38" height="38" viewBox="0 0 38 38" fill="none" xmlns="http://www.w3.org/2000/svg">
<path d="M18.5198 37.4009C28.748 37.4009 37.0396 29.0284 37.0396 18.7005C37.0396 8.37248 28.748 0 18.5198 0C8.29159 0 0 8.37248 0 18.7005C0 29.0284 8.29159 37.4009 18.5198 37.4009Z" fill="white"/>
<path d="M8 15.1323C8.164 14.4435 8.2788 13.7383 8.50019 13.0741C9.77935 9.25305 13.6578 6.68652 17.6101 7.03091C21.874 7.4081 25.2441 10.483 25.8591 14.5911C26.2363 17.133 25.6459 19.4454 24.0962 21.4953C24.0142 21.6019 23.9322 21.7085 23.8338 21.8397C25.8837 24.1028 27.9255 26.3578 30 28.6455C29.3932 29.1949 28.8028 29.7279 28.1879 30.2937C26.1215 28.0141 24.0716 25.7592 22.0298 23.5043C21.505 23.7666 21.013 24.0536 20.4883 24.275C15.0436 26.612 8.80358 23.0205 8.0738 17.133C8.0656 17.0428 8.0246 16.9526 8 16.8624C8 16.2885 8 15.7063 8 15.1323ZM16.9624 22.5285C20.5949 22.5367 23.4976 19.634 23.5058 16.0015C23.5058 12.3936 20.6113 9.48264 17.0034 9.47444C13.3791 9.46624 10.4599 12.3772 10.4599 16.0015C10.4517 19.6094 13.3627 22.5285 16.9624 22.5285Z" fill="#333333"/>
<path d="M20.2178 17.2068C18.0612 17.2068 15.9293 17.2068 13.7563 17.2068C13.7563 16.4115 13.7563 15.6325 13.7563 14.8125C15.8965 14.8125 18.0448 14.8125 20.2178 14.8125C20.2178 15.6161 20.2178 16.3951 20.2178 17.2068Z" fill="#333333"/>
</svg>
