<svg width="40" height="41" viewBox="0 0 40 41" fill="none" xmlns="http://www.w3.org/2000/svg">
<path d="M19.6813 40.2022C30.551 40.2022 39.3626 31.2026 39.3626 20.1011C39.3626 8.99956 30.551 0 19.6813 0C8.81162 0 0 8.99956 0 20.1011C0 31.2026 8.81162 40.2022 19.6813 40.2022Z" fill="white"/>
<path d="M15.2387 15.3304C17.665 15.3304 19.9504 15.3304 22.2359 15.3304C25.7552 15.3304 28.5624 17.8064 29.0096 21.3008C29.4484 24.6794 26.9394 28.091 23.5691 28.6127C22.65 28.7535 21.706 28.7204 20.7702 28.7369C19.9173 28.7535 19.0644 28.7121 18.2115 28.7452C17.1516 28.7866 16.7458 28.0496 16.7458 27.4783C16.7458 26.7413 17.342 26.2444 18.2032 26.2444C19.5695 26.2444 20.9276 26.2527 22.2939 26.2444C24.538 26.2361 26.2935 24.638 26.5419 22.3856C26.7572 20.3734 25.3412 18.4274 23.271 17.9389C22.9646 17.8643 22.6417 17.8229 22.3353 17.8229C20.0747 17.8146 17.8223 17.8146 15.5617 17.8146C15.4954 17.8146 15.4292 17.8229 15.3712 17.8312C15.3464 17.8726 15.3215 17.9057 15.2884 17.9471C15.6859 18.3115 16.1082 18.6676 16.4891 19.0568C16.8866 19.4708 16.9363 20.0753 16.6547 20.5473C16.3814 21.011 15.8515 21.2594 15.3132 21.1104C15.0731 21.0441 14.833 20.9034 14.6508 20.7212C13.566 19.6612 12.4978 18.5847 11.4296 17.5165C10.8582 16.9452 10.8582 16.2247 11.4213 15.6451C12.4978 14.5603 13.5743 13.4755 14.6673 12.399C15.189 11.8856 15.9591 11.8691 16.4477 12.3411C16.9528 12.8296 16.9528 13.6163 16.4311 14.1546C16.0751 14.5272 15.6941 14.8833 15.2387 15.3304Z" fill="black"/>
</svg>
