<svg width="35" height="36" viewBox="0 0 35 36" fill="none" xmlns="http://www.w3.org/2000/svg">
<path d="M17.4078 35.3482C27.0218 35.3482 34.8156 27.4352 34.8156 17.6741C34.8156 7.91296 27.0218 0 17.4078 0C7.79373 0 0 7.91296 0 17.6741C0 27.4352 7.79373 35.3482 17.4078 35.3482Z" fill="white"/>
<path d="M18.3491 18.3361C18.3491 20.2035 18.3491 22.0569 18.3491 23.9521C19.3374 23.9521 20.3118 23.9521 21.2862 23.9521C21.3001 23.9799 21.314 23.9939 21.328 24.0217C19.9777 25.9866 18.6275 27.9654 17.2216 30C16.0106 27.9654 14.8413 26.0006 13.6303 23.966C14.6743 23.966 15.6487 23.966 16.6509 23.966C16.6509 22.0708 16.6509 20.2174 16.6509 18.3361C14.7996 18.3361 12.9482 18.3361 11.0551 18.3361C11.0551 19.3255 11.0551 20.3149 11.0551 21.2904C11.0273 21.3043 11.0134 21.3183 10.9855 21.3183C9.00891 19.9666 7.04621 18.6148 5 17.2074C7.03229 16.0089 9.00891 14.8383 11.0412 13.626C11.0412 14.6711 11.0412 15.6466 11.0412 16.6499C12.9482 16.6499 14.7996 16.6499 16.6648 16.6499C16.6648 14.7826 16.6648 12.9292 16.6648 11.0479C15.6765 11.0479 14.6882 11.0479 13.6303 11.0479C14.8413 9.01338 16.0245 7.03456 17.2355 5C18.6275 7.03456 19.9777 9.01338 21.3697 11.034C20.3257 11.034 19.3513 11.034 18.3491 11.034C18.3491 12.9292 18.3491 14.7826 18.3491 16.6499C20.2004 16.6499 22.0518 16.6499 23.9449 16.6499C23.9449 15.6745 23.9449 14.6851 23.9449 13.6957C23.9727 13.6817 23.9866 13.6817 24.0145 13.6678C25.9911 14.8523 27.9677 16.0229 30 17.2352C27.9677 18.6288 25.9911 19.9805 23.9588 21.374C23.9588 20.3289 23.9588 19.3534 23.9588 18.3501C22.0796 18.3361 20.2283 18.3361 18.3491 18.3361Z" fill="#252525"/>
</svg>
