<svg width="38" height="38" viewBox="0 0 38 38" fill="none" xmlns="http://www.w3.org/2000/svg">
<path d="M18.5198 37.6062C28.748 37.6062 37.0396 29.1878 37.0396 18.8031C37.0396 8.41844 28.748 0 18.5198 0C8.29159 0 0 8.41844 0 18.8031C0 29.1878 8.29159 37.6062 18.5198 37.6062Z" fill="white"/>
<path d="M18.7699 28.7709H18.3652" stroke="black" stroke-width="0.606941" stroke-linecap="round" stroke-linejoin="round"/>
<path d="M16.9424 28.7709H11.979" stroke="black" stroke-width="0.606941" stroke-linecap="round" stroke-linejoin="round" stroke-dasharray="1.42 1.42"/>
<path d="M11.2707 28.7709H9.26109C8.56648 28.7709 8 28.2246 8 27.5502V9.22063C8 8.54625 8.56648 8 9.26109 8H24.3739C25.0685 8 25.635 8.54625 25.635 9.22063V14.8719" stroke="black" stroke-width="0.606941" stroke-linecap="round" stroke-linejoin="round" stroke-dasharray="0.85 0.85"/>
<path d="M25.635 15.5801V15.9847" stroke="black" stroke-width="0.606941" stroke-linecap="round" stroke-linejoin="round"/>
<path d="M30.4838 28.2651C30.0185 28.7372 29.5599 29.2092 29.0946 29.6813C28.6697 30.1129 28.164 30.1062 27.7256 29.6611C26.3836 28.2718 25.0348 26.8961 23.6928 25.5136L23.5984 25.4192C23.4366 25.7834 23.2747 26.1408 23.1264 26.505C22.742 27.4558 22.371 28.4135 21.9934 29.3643C21.8855 29.6341 21.7034 29.8297 21.3999 29.8162C21.083 29.8094 20.9144 29.6004 20.7997 29.3171C19.6331 26.3903 18.4664 23.4703 17.293 20.5435C16.4837 18.5271 15.6812 16.5107 14.872 14.4943C14.8382 14.4134 14.8045 14.3392 14.791 14.2583C14.6831 13.739 15.1012 13.3681 15.607 13.5434C15.7959 13.6108 15.9712 13.6918 16.1533 13.7727C18.5203 14.7843 20.8874 15.7958 23.2545 16.8074C25.5339 17.7785 27.8065 18.7496 30.0859 19.7207C30.1601 19.7544 30.2343 19.7814 30.3017 19.8151C30.531 19.9365 30.6727 20.1253 30.6727 20.3951C30.6727 20.6716 30.5243 20.8537 30.2815 20.9548C29.8499 21.1369 29.4183 21.3123 28.9867 21.4876C28.1302 21.8383 27.2805 22.1822 26.4241 22.5261C26.3903 22.5396 26.3634 22.5531 26.3162 22.5801C26.795 23.0656 27.2536 23.5444 27.7121 24.0165C28.636 24.9606 29.5599 25.9115 30.4771 26.8624C30.9087 27.3075 30.9087 27.8268 30.4838 28.2651Z" fill="black"/>
</svg>
