<svg width="40" height="41" viewBox="0 0 40 41" fill="none" xmlns="http://www.w3.org/2000/svg">
<path d="M19.6813 40.2022C30.551 40.2022 39.3626 31.2026 39.3626 20.1011C39.3626 8.99956 30.551 0 19.6813 0C8.81162 0 0 8.99956 0 20.1011C0 31.2026 8.81162 40.2022 19.6813 40.2022Z" fill="white"/>
<path d="M9.8874 8C14.9645 8 20.0346 8 25.1117 8C25.1257 8.014 25.1466 8.03501 25.1606 8.04201C26.3565 8.34306 26.9928 9.14819 26.9928 10.3804C26.9928 11.5006 26.9928 12.6278 26.9928 13.748C26.9928 13.832 26.9789 13.916 26.9719 14C26.3215 14 25.6641 14.007 25.0138 14.007C22.8389 14.007 20.664 14.007 18.4961 14.007C17.8247 14.007 17.1534 14.007 16.482 14.007C14.3281 14.007 12.1742 14.007 10.0203 14.007C9.34892 14 8.67757 14 8.00622 13.993C8.00622 12.7328 7.99223 11.4796 8.00622 10.2194C8.01321 9.31622 8.45378 8.67211 9.23003 8.23104C9.43983 8.12602 9.6776 8.09102 9.8874 8Z" fill="#333333"/>
<path d="M32 23.1923V23.7524C31.7832 24.3685 31.2866 24.7605 30.8531 25.1946C29.6432 26.4128 28.4264 27.631 27.2166 28.8422C27.1466 28.9122 27.0837 29.0033 26.9858 29.0313C26.9578 28.9262 26.8669 28.8702 26.797 28.8002C25.9718 27.9741 25.1466 27.1549 24.3214 26.3288C23.3983 25.4047 22.4682 24.4805 21.5381 23.5633C21.3912 23.4233 21.3842 23.3393 21.5381 23.1923C21.9297 22.8142 22.3073 22.4152 22.685 22.0231C23.4612 21.239 24.2445 20.4618 25.0277 19.6777C25.2655 19.4467 25.5172 19.2226 25.741 18.9776C26.0837 18.6065 26.4893 18.4105 26.9928 18.3965C27.4334 18.4105 27.804 18.5855 28.1117 18.9006C28.7131 19.5097 29.3146 20.1188 29.916 20.7279C30.4475 21.26 30.9789 21.7991 31.5104 22.3311C31.7552 22.5762 31.8951 22.8772 32 23.1923Z" fill="#333333"/>
<path d="M26.804 28.8099C25.9779 27.9845 25.1518 27.166 24.3257 26.3405C23.4016 25.417 22.4705 24.4936 21.5394 23.5701C21.3924 23.4302 21.3854 23.3463 21.5394 23.1994C21.9315 22.8216 22.3095 22.4229 22.6875 22.0381C21.3924 22.0381 20.0973 22.0311 18.8021 22.0381C18.5711 22.0381 18.4871 21.9821 18.4941 21.7373C18.5081 20.9188 18.5081 20.1003 18.4941 19.2818C18.4941 19.0789 18.5501 19.0089 18.7601 19.0089C20.7693 19.0159 22.7716 19.0159 24.7808 19.0089C24.9768 19.0089 25.0468 19.0789 25.0328 19.2678C25.0258 19.4077 25.0328 19.5476 25.0328 19.6875C25.2708 19.4567 25.5228 19.2328 25.7469 18.9879C26.0899 18.6172 26.4959 18.4213 27 18.4073C27 16.9382 26.993 15.4761 26.993 14.007C26.3419 14.007 25.6839 14.014 25.0328 14.014C25.0328 14.9374 25.0328 15.8539 25.0398 16.7773C25.0398 16.9662 24.9698 17.0222 24.7948 17.0222C22.7786 17.0152 20.7623 17.0152 18.7461 17.0222C18.5641 17.0222 18.5011 16.9662 18.5011 16.7773C18.5081 15.8539 18.5081 14.9374 18.5081 14.014H16.4919C16.4919 14.9444 16.4919 15.8679 16.5059 16.7983C16.5059 16.9662 16.4429 17.0082 16.2819 17.0082C14.2657 17.0082 12.2564 17.0082 10.2402 17.0082C10.0862 17.0082 10.0162 16.9662 10.0162 16.7983C10.0232 15.8679 10.0232 14.9444 10.0232 14.014C9.35114 14.014 8.67907 14.007 8.007 14C8.007 14.0909 8 14.1889 8 14.2798C8 18.3234 8 22.3669 8 26.4104C8 27.9145 9.07812 28.9988 10.5833 28.9988C13.5586 28.9988 16.5339 28.9918 19.5162 28.9848C19.7052 28.9848 19.8382 29.0338 19.9713 29.1667C20.2233 29.4186 20.4753 29.6704 20.7273 29.9223C21.2524 30.4469 21.7844 30.9716 22.3165 31.4963C22.9956 32.1679 23.8847 32.1679 24.5637 31.4963C25.3268 30.7408 26.0899 29.9782 26.853 29.2157C26.909 29.1597 26.979 29.1248 26.993 29.0338C26.972 28.9359 26.874 28.8799 26.804 28.8099ZM10.0162 19.2818C10.0162 19.0929 10.0652 19.0229 10.2682 19.0229C12.2705 19.0299 14.2657 19.0299 16.2679 19.0229C16.4569 19.0229 16.5059 19.0929 16.5059 19.2678C16.4989 20.1003 16.4989 20.9398 16.5059 21.7723C16.5059 21.9751 16.4289 22.0171 16.2399 22.0171C15.2388 22.0101 14.2377 22.0171 13.2436 22.0171C12.2705 22.0171 11.2903 22.0101 10.3172 22.0241C10.0722 22.0311 10.0162 21.9471 10.0162 21.7163C10.0302 20.9048 10.0232 20.0933 10.0162 19.2818ZM16.5059 26.7322C16.5059 26.9281 16.4639 27.0051 16.2469 27.0051C14.3637 26.9981 12.4805 26.9981 10.5973 26.9981C10.1982 26.9981 10.0232 26.8232 10.0232 26.4244C10.0232 25.6969 10.0302 24.9693 10.0162 24.2417C10.0162 24.0599 10.0792 23.9969 10.2612 23.9969C11.2623 24.0039 12.2634 23.9969 13.2646 23.9969C14.2517 23.9969 15.2318 24.0039 16.2189 23.9899C16.4429 23.9899 16.5129 24.0529 16.5129 24.2837C16.4919 25.1092 16.4919 25.9207 16.5059 26.7322ZM18.5291 26.2705C18.4731 26.2425 18.5081 26.1726 18.5011 26.1166C18.5011 25.501 18.5081 24.8853 18.4941 24.2697C18.4941 24.0738 18.5431 23.9899 18.7601 23.9969C19.3902 24.0109 20.0203 23.9969 20.7273 23.9969C19.9853 24.8084 19.1942 25.473 18.5291 26.2705Z" fill="#D9D9D9" stroke="black" stroke-width="0.1" stroke-miterlimit="10"/>
<path d="M24.3145 26.3359L20.72 29.9415" stroke="black" stroke-width="0.1" stroke-miterlimit="10"/>
</svg>
