<svg width="38" height="38" viewBox="0 0 38 38" fill="none" xmlns="http://www.w3.org/2000/svg">
<path d="M18.5198 37.6062C28.748 37.6062 37.0396 29.1878 37.0396 18.8031C37.0396 8.41844 28.748 0 18.5198 0C8.29159 0 0 8.41844 0 18.8031C0 29.1878 8.29159 37.6062 18.5198 37.6062Z" fill="white"/>
<path d="M30.8869 12.5152C30.8869 16.8505 30.8869 21.1827 30.8869 25.518C30.8804 25.557 30.8674 25.596 30.8641 25.635C30.8121 26.272 30.6594 26.8798 30.4059 27.468C29.4894 29.6032 27.3672 31.0397 24.9558 31.0299C20.9454 31.0137 16.9382 31.0234 12.9278 31.0267C11.9301 31.0267 10.9844 30.8154 10.1102 30.3344C8.46896 29.4244 7.46474 28.0432 7.0975 26.2005C7.052 25.9763 7.0325 25.7455 7 25.5148C7 21.1794 7 16.8473 7 12.5119C7.0065 12.4729 7.0195 12.4339 7.02275 12.3949C7.07475 11.7579 7.22749 11.1502 7.48099 10.562C8.40071 8.42351 10.5327 6.9903 12.9311 7.00005C16.9415 7.0163 20.9486 7.00655 24.959 7.0033C25.739 7.0033 26.4995 7.1203 27.2145 7.43229C29.1677 8.27727 30.3571 9.74948 30.7894 11.8294C30.8349 12.0569 30.8544 12.2877 30.8869 12.5152ZM8.52746 20.8739C8.54046 20.8804 8.55346 20.8869 8.56646 20.8934C8.59246 20.8609 8.61196 20.8252 8.64121 20.7959C10.0159 19.4115 11.3939 18.027 12.7718 16.6425C12.8401 16.5743 12.9148 16.5093 12.9993 16.4638C13.3113 16.2948 13.6591 16.363 13.9386 16.6458C15.8788 18.5957 17.8222 20.5489 19.7592 22.5021C19.7949 22.5379 19.8112 22.5931 19.8372 22.6386C19.9249 22.5704 19.9542 22.5314 19.9866 22.4956C21.3029 21.1697 22.6191 19.847 23.9385 18.5242C24.01 18.4527 24.088 18.3845 24.1758 18.3357C24.478 18.17 24.7835 18.222 25.102 18.4917C26.4832 19.6487 27.8644 20.8089 29.2456 21.9659C29.2749 21.9919 29.3074 22.0114 29.3496 22.0439C29.3529 21.9886 29.3561 21.9561 29.3561 21.9204C29.3561 18.9272 29.3561 15.9308 29.3561 12.9376C29.3561 11.6702 28.9012 10.5912 27.9814 9.72348C27.1365 8.924 26.116 8.54376 24.9525 8.54701C20.9161 8.55026 16.8765 8.54701 12.8401 8.54701C12.0991 8.54701 11.3939 8.71925 10.7569 9.09624C9.29119 9.96397 8.53721 11.2542 8.52746 12.9571C8.51446 15.5571 8.52421 18.1602 8.52421 20.7602C8.52746 20.7959 8.52746 20.8349 8.52746 20.8739ZM13.3536 18.235C13.3243 18.2642 13.2951 18.287 13.2723 18.313C11.7156 19.8795 10.1557 21.4459 8.60221 23.0124C8.55996 23.0546 8.53071 23.1294 8.53071 23.1911C8.52421 23.8313 8.51446 24.4748 8.53396 25.1151C8.54371 25.4498 8.56971 25.791 8.64121 26.116C9.06694 28.0562 10.8024 29.4797 12.7913 29.4862C16.883 29.4992 20.9714 29.4894 25.063 29.4894C25.6967 29.4894 26.3077 29.3594 26.8732 29.0735C28.2902 28.3617 29.1222 27.2178 29.3204 25.6415C29.3789 25.1638 29.3464 24.6763 29.3594 24.1953C29.3626 24.1011 29.3366 24.0393 29.2619 23.9776C27.9717 22.8986 26.6847 21.8196 25.3978 20.7407C25.128 20.5132 24.8583 20.2889 24.5853 20.0582C24.5495 20.0907 24.5203 20.1167 24.491 20.1459C23.1521 21.4947 21.8099 22.8401 20.4709 24.1888C20.1069 24.5561 19.6454 24.5561 19.2782 24.1856C17.4972 22.3949 15.7163 20.6042 13.9353 18.8135C13.7436 18.6217 13.5518 18.43 13.3536 18.235Z" fill="black"/>
<path d="M13.2465 17.936C13.4447 18.1375 13.6365 18.3357 13.8315 18.534C15.6254 20.3832 17.4161 22.2356 19.2101 24.0848C19.5806 24.4651 20.042 24.4683 20.4093 24.0881C21.758 22.6971 23.1067 21.3029 24.4554 19.9119C24.4847 19.8827 24.5139 19.8534 24.5497 19.8209C24.8259 20.0582 25.0989 20.2922 25.3687 20.5262C26.6654 21.6409 27.9621 22.7589 29.2588 23.8736C29.3335 23.9386 29.3595 24.0036 29.3563 24.0978C29.3433 24.5951 29.3758 25.102 29.3173 25.5928C29.1191 27.221 28.2806 28.4007 26.8539 29.1384C26.2819 29.4342 25.6709 29.5674 25.0307 29.5674C20.913 29.5674 16.7921 29.5772 12.6745 29.5642C10.6726 29.5577 8.9241 28.0887 8.49511 26.0835C8.42361 25.7455 8.39436 25.3945 8.38461 25.05C8.36836 24.3871 8.37811 23.7241 8.38136 23.0611C8.38136 22.9994 8.41061 22.9214 8.45286 22.8759C10.0193 21.2541 11.5858 19.6357 13.1555 18.0172C13.188 17.9912 13.214 17.9652 13.2465 17.936Z" fill="#0A0A0A"/>
<path d="M22.2132 10.7602C23.9194 10.7667 25.3039 12.1609 25.3006 13.8704C25.2941 15.5863 23.9032 16.9773 22.1905 16.974C20.4875 16.9708 19.1095 15.5701 19.1128 13.8541C19.116 12.1414 20.507 10.7537 22.2132 10.7602ZM20.6403 13.8639C20.6403 14.7283 21.339 15.4336 22.197 15.4368C23.0614 15.4401 23.7667 14.7283 23.7667 13.8639C23.7667 12.9961 23.0647 12.2909 22.1937 12.2941C21.3357 12.2941 20.6403 12.9961 20.6403 13.8639Z" fill="black"/>
</svg>
