<svg width="38" height="38" viewBox="0 0 38 38" fill="none" xmlns="http://www.w3.org/2000/svg">
<path d="M18.5198 37.4009C28.748 37.4009 37.0396 29.0284 37.0396 18.7005C37.0396 8.37248 28.748 0 18.5198 0C8.29159 0 0 8.37248 0 18.7005C0 29.0284 8.29159 37.4009 18.5198 37.4009Z" fill="white"/>
<path d="M30 28.6297C29.4016 29.1626 28.8032 29.6954 28.1802 30.2528C26.1145 27.9739 24.0733 25.7197 22.0076 23.449C19.5484 24.9983 16.9252 25.3918 14.1627 24.4983C12.0396 23.8097 10.4083 22.4653 9.26068 20.5553C6.99001 16.7764 7.85894 11.8743 11.2854 9.03805C14.6873 6.22635 19.6877 6.34111 22.9749 9.27577C26.3686 12.3006 27.1637 17.7928 23.8438 21.8259C24.557 22.6129 25.2701 23.3998 25.9833 24.1868C27.2129 25.5475 28.4425 26.9001 29.6721 28.2527C29.7705 28.3592 29.8852 28.4494 30 28.5478C30 28.5724 30 28.5969 30 28.6297ZM10.4657 15.9566C10.4493 19.5635 13.3512 22.4817 16.9498 22.4899C20.5648 22.4981 23.4913 19.6126 23.5077 16.0222C23.5323 12.399 20.6222 9.44791 17.0154 9.43972C13.3921 9.43152 10.4821 12.3252 10.4657 15.9566Z" fill="#333333"/>
<path d="M20.2206 17.2025C19.5485 17.2025 18.9091 17.2025 18.2205 17.2025C18.2205 17.8829 18.2205 18.5305 18.2205 19.2027C17.3844 19.2027 16.5974 19.2027 15.7613 19.2027C15.7613 18.5469 15.7613 17.8993 15.7613 17.2025C15.0645 17.2025 14.4169 17.2025 13.7529 17.2025C13.7529 16.3746 13.7529 15.604 13.7529 14.7679C14.3923 14.7679 15.0399 14.7679 15.7367 14.7679C15.7367 14.0711 15.7367 13.4235 15.7367 12.7432C16.581 12.7432 17.3762 12.7432 18.2123 12.7432C18.2123 13.399 18.2123 14.0465 18.2123 14.7351C18.9091 14.7351 19.5567 14.7351 20.2206 14.7351C20.2206 15.5713 20.2206 16.3582 20.2206 17.2025Z" fill="#333333"/>
</svg>
