<svg width="40" height="41" viewBox="0 0 40 41" fill="none" xmlns="http://www.w3.org/2000/svg">
<path d="M20.0092 40.2022C30.8789 40.2022 39.6905 31.2026 39.6905 20.1011C39.6905 8.99956 30.8789 0 20.0092 0C9.1395 0 0.327881 8.99956 0.327881 20.1011C0.327881 31.2026 9.1395 40.2022 20.0092 40.2022Z" fill="white"/>
<path d="M17.1604 25.5751C18.7412 25.5751 20.3292 25.5751 21.9319 25.5751C21.9319 25.3263 21.9392 25.0848 21.9319 24.836C21.9172 24.492 22.1587 24.3164 22.3783 24.3164C22.649 24.3091 22.832 24.5286 22.832 24.8506C22.832 25.2238 22.832 25.6044 22.832 25.9776C22.832 26.3069 22.649 26.4899 22.327 26.4899C20.4682 26.4899 18.6021 26.4899 16.7433 26.4899C16.4213 26.4899 16.2384 26.3069 16.2384 25.9776C16.2384 25.5751 16.231 25.1799 16.2384 24.7774C16.2384 24.5359 16.4067 24.353 16.6335 24.3164C16.8458 24.2871 17.058 24.4262 17.1165 24.6384C17.1385 24.7116 17.1312 24.7994 17.1312 24.8726C17.1312 25.0921 17.1312 25.3116 17.1385 25.5385C17.1385 25.5458 17.1531 25.5605 17.1604 25.5751Z" fill="#333333"/>
<path d="M16.4287 21.1984C16.8678 21.1984 17.2776 21.1984 17.6874 21.1984C17.7752 21.1984 17.8045 21.1838 17.8045 21.0886C17.8045 19.969 17.8045 18.842 17.8045 17.7223C17.8045 17.4442 17.9289 17.3125 18.2143 17.3125C18.8876 17.3125 19.5609 17.3125 20.2268 17.3125C20.4463 17.3125 20.6659 17.3125 20.8854 17.3125C20.9879 17.3125 21.0903 17.3345 21.1782 17.4003C21.266 17.4662 21.2953 17.554 21.2953 17.6638C21.2953 18.8054 21.2953 19.947 21.2953 21.0886C21.2953 21.1765 21.3099 21.2057 21.405 21.2057C21.8002 21.1984 22.2027 21.2057 22.5979 21.2057C22.6125 21.2057 22.6271 21.1984 22.6418 21.2131C22.6345 21.2496 22.6052 21.2643 22.5832 21.2862C21.5953 22.3766 20.6073 23.4597 19.6194 24.5501C19.5609 24.6087 19.5389 24.6233 19.473 24.5574C18.4997 23.4817 17.5264 22.4132 16.5531 21.3448C16.5165 21.2935 16.4799 21.257 16.4287 21.1984Z" fill="#333333"/>
<path d="M22.0489 9.00732C22.8173 9.13904 23.3589 9.63667 23.9004 10.1489C25.086 11.2832 26.2788 12.4102 27.4717 13.5299C28.0498 14.0714 28.3279 14.7301 28.3279 15.5204C28.3206 19.9552 28.3279 24.39 28.3206 28.8247C28.3206 30.0176 27.6034 30.9616 26.4764 31.2324C26.2715 31.2836 26.0593 31.2983 25.8544 31.2983C21.8367 31.3056 17.8264 31.3056 13.8088 31.2983C12.3671 31.2983 11.3352 30.2591 11.3352 28.8101C11.3352 23.0434 11.3426 17.2841 11.3279 11.5174C11.3206 10.0831 12.3598 9.14636 13.3697 9.02927C13.3916 9.02927 13.4063 9.00732 13.4282 9C16.2969 9.00732 19.1729 9.00732 22.0489 9.00732ZM21.5294 10.3173C21.4196 10.3173 21.3464 10.3173 21.2732 10.3173C18.7997 10.3173 16.3189 10.3173 13.8453 10.3173C13.0843 10.3173 12.6379 10.7563 12.6379 11.5174C12.6379 17.2841 12.6379 23.0434 12.6379 28.8101C12.6379 29.5712 13.0843 30.0103 13.8453 30.0103C17.8337 30.0103 21.8221 30.0103 25.8031 30.0103C26.5789 30.0103 27.0106 29.5712 27.0106 28.7955C27.0106 24.4632 27.0106 20.1235 27.0106 15.7912C27.0106 15.718 27.0106 15.6375 27.0106 15.5497C26.9008 15.5497 26.8204 15.5497 26.7472 15.5497C25.5616 15.5497 24.3834 15.5497 23.1979 15.5497C22.1441 15.5497 21.522 14.9277 21.522 13.8665C21.522 12.7688 21.522 11.6711 21.522 10.5807C21.5294 10.4929 21.5294 10.4124 21.5294 10.3173ZM22.832 10.9539C22.832 12.0004 22.832 12.9884 22.832 13.9763C22.832 14.1885 22.9564 14.2398 23.1467 14.2398C24.1492 14.2398 25.1518 14.2398 26.1471 14.2398C26.1764 14.2398 26.213 14.2324 26.2861 14.2251C25.1299 13.1274 24.0029 12.059 22.832 10.9539Z" fill="black"/>
</svg>
