<svg width="16" height="15" viewBox="0 0 16 15" fill="none" xmlns="http://www.w3.org/2000/svg">
<path d="M8.27808 0.317505C6.8318 0.317505 5.41801 0.746376 4.21547 1.54988C3.01294 2.35339 2.07568 3.49545 1.52221 4.83163C0.968745 6.16782 0.823933 7.63812 1.10609 9.0566C1.38824 10.4751 2.08469 11.7781 3.10736 12.8007C4.13003 13.8234 5.433 14.5198 6.85148 14.802C8.26997 15.0842 9.74027 14.9393 11.0765 14.3859C12.4126 13.8324 13.5547 12.8951 14.3582 11.6926C15.1617 10.4901 15.5906 9.07628 15.5906 7.63C15.5883 5.6913 14.8172 3.83264 13.4463 2.46176C12.0754 1.09089 10.2168 0.319746 8.27808 0.317505ZM11.0906 8.1925H5.46558C5.3164 8.1925 5.17332 8.13324 5.06783 8.02775C4.96234 7.92226 4.90308 7.77919 4.90308 7.63C4.90308 7.48082 4.96234 7.33775 5.06783 7.23226C5.17332 7.12677 5.3164 7.0675 5.46558 7.0675H11.0906C11.2398 7.0675 11.3828 7.12677 11.4883 7.23226C11.5938 7.33775 11.6531 7.48082 11.6531 7.63C11.6531 7.77919 11.5938 7.92226 11.4883 8.02775C11.3828 8.13324 11.2398 8.1925 11.0906 8.1925Z" fill="#333333"/>
</svg>
