<svg width="13" height="15" viewBox="0 0 13 15" fill="none" xmlns="http://www.w3.org/2000/svg">
<path fill-rule="evenodd" clip-rule="evenodd" d="M6.27808 0.630005C6.68178 0.630005 7.04588 0.872755 7.20118 1.2454L10.9426 10.2247C10.9487 10.2386 10.9546 10.2526 10.9601 10.2668L12.2012 13.2454C12.4136 13.7552 12.1725 14.3407 11.6627 14.5531C11.1529 14.7655 10.5674 14.5244 10.355 14.0146L9.36143 11.63H3.19478L2.20118 14.0146C1.98878 14.5244 1.40328 14.7655 0.893481 14.5531C0.383681 14.3407 0.142581 13.7552 0.355031 13.2454L1.59608 10.2668C1.60163 10.2526 1.60748 10.2386 1.61363 10.2248L5.35503 1.2454C5.51028 0.872755 5.87438 0.630005 6.27808 0.630005ZM4.02808 9.63H8.52808L6.27808 4.23001L4.02808 9.63Z" fill="#333333"/>
</svg>
