<svg width="16" height="15" viewBox="0 0 16 15" fill="none" xmlns="http://www.w3.org/2000/svg">
<g clip-path="url(#clip0_268_248)">
<path d="M15.5931 7.315C15.5931 9.25506 14.8224 11.1157 13.4506 12.4875C12.0788 13.8593 10.2182 14.63 8.27813 14.63C6.33808 14.63 4.47748 13.8593 3.10565 12.4875C1.73382 11.1157 0.963135 9.25506 0.963135 7.315C0.963135 5.37494 1.73382 3.51434 3.10565 2.14251C4.47748 0.770685 6.33808 0 8.27813 0C10.2182 0 12.0788 0.770685 13.4506 2.14251C14.8224 3.51434 15.5931 5.37494 15.5931 7.315ZM8.73532 4.11469C8.73532 3.99343 8.68715 3.87715 8.60142 3.79141C8.51568 3.70567 8.39939 3.6575 8.27813 3.6575C8.15688 3.6575 8.04059 3.70567 7.95485 3.79141C7.86912 3.87715 7.82095 3.99343 7.82095 4.11469V6.85781H5.07782C4.95657 6.85781 4.84028 6.90598 4.75454 6.99172C4.6688 7.07746 4.62063 7.19375 4.62063 7.315C4.62063 7.43625 4.6688 7.55254 4.75454 7.63828C4.84028 7.72402 4.95657 7.77219 5.07782 7.77219H7.82095V10.5153C7.82095 10.6366 7.86912 10.7529 7.95485 10.8386C8.04059 10.9243 8.15688 10.9725 8.27813 10.9725C8.39939 10.9725 8.51568 10.9243 8.60142 10.8386C8.68715 10.7529 8.73532 10.6366 8.73532 10.5153V7.77219H11.4784C11.5997 7.77219 11.716 7.72402 11.8017 7.63828C11.8875 7.55254 11.9356 7.43625 11.9356 7.315C11.9356 7.19375 11.8875 7.07746 11.8017 6.99172C11.716 6.90598 11.5997 6.85781 11.4784 6.85781H8.73532V4.11469Z" fill="#333333"/>
</g>
<defs>
<clipPath id="clip0_268_248">
<rect width="14.63" height="14.63" fill="white" transform="translate(0.963135)"/>
</clipPath>
</defs>
</svg>
