<svg width="21" height="20" viewBox="0 0 21 20" fill="none" xmlns="http://www.w3.org/2000/svg">
<path d="M6.61407 4.16667H18.268V5.83333H6.61407V4.16667ZM6.61407 10.8333V9.16667H18.268V10.8333H6.61407ZM4.1168 3.75C4.44796 3.75 4.76555 3.8817 4.99972 4.11612C5.23388 4.35054 5.36544 4.66848 5.36544 5C5.36544 5.33152 5.23388 5.64946 4.99972 5.88388C4.76555 6.1183 4.44796 6.25 4.1168 6.25C3.78564 6.25 3.46805 6.1183 3.23388 5.88388C2.99972 5.64946 2.86816 5.33152 2.86816 5C2.86816 4.66848 2.99972 4.35054 3.23388 4.11612C3.46805 3.8817 3.78564 3.75 4.1168 3.75M4.1168 8.75C4.44796 8.75 4.76555 8.8817 4.99972 9.11612C5.23388 9.35054 5.36544 9.66848 5.36544 10C5.36544 10.3315 5.23388 10.6495 4.99972 10.8839C4.76555 11.1183 4.44796 11.25 4.1168 11.25C3.78564 11.25 3.46805 11.1183 3.23388 10.8839C2.99972 10.6495 2.86816 10.3315 2.86816 10C2.86816 9.66848 2.99972 9.35054 3.23388 9.11612C3.46805 8.8817 3.78564 8.75 4.1168 8.75M6.61407 15.8333V14.1667H18.268V15.8333H6.61407ZM4.1168 13.75C4.44796 13.75 4.76555 13.8817 4.99972 14.1161C5.23388 14.3505 5.36544 14.6685 5.36544 15C5.36544 15.3315 5.23388 15.6495 4.99972 15.8839C4.76555 16.1183 4.44796 16.25 4.1168 16.25C3.78564 16.25 3.46805 16.1183 3.23388 15.8839C2.99972 15.6495 2.86816 15.3315 2.86816 15C2.86816 14.6685 2.99972 14.3505 3.23388 14.1161C3.46805 13.8817 3.78564 13.75 4.1168 13.75V13.75Z" fill="#333333"/>
</svg>
