<svg width="46" height="45" viewBox="0 0 46 45" fill="none" xmlns="http://www.w3.org/2000/svg">
<rect width="46" height="45" rx="2.78788" fill="#ED1B23"/>
<path d="M32.6973 13.129C32.6973 16.9705 32.6973 20.812 32.6973 24.6535C32.6834 24.672 32.6695 24.6905 32.6649 24.7137C32.3779 26.0466 31.4569 26.7964 30.0915 26.7964C25.2457 26.7964 20.4045 26.7964 15.5586 26.7964C15.3735 26.7964 15.1883 26.7918 15.0078 26.7594C13.7582 26.5326 12.9529 25.5283 12.9482 24.2046C12.9482 20.6732 12.9482 17.1371 12.9482 13.6057C12.9482 12.0599 14.0081 11 15.5447 11C17.3498 11 19.1548 11 20.9599 11C24.0284 11 27.1016 11 30.1702 11C31.3041 11 32.2344 11.6665 32.5769 12.7125C32.6186 12.8513 32.6556 12.9902 32.6973 13.129ZM30.6978 20.451C30.7117 20.3723 30.7163 20.3399 30.7163 20.3122C30.7163 18.0443 30.7163 15.7764 30.7163 13.5085C30.7163 13.1475 30.5266 12.9809 30.1378 12.9809C25.2642 12.9809 20.3906 12.9809 15.517 12.9809C15.0958 12.9809 14.9245 13.1522 14.9245 13.5733C14.9245 16.5679 14.9245 19.5578 14.9245 22.5523C14.9245 22.6171 14.9338 22.6772 14.943 22.8115C15.0402 22.6957 15.0912 22.6263 15.1513 22.5662C15.9705 21.7469 16.7851 20.9277 17.6043 20.1131C18.0764 19.6411 18.6411 19.4652 19.2983 19.6179C19.6454 19.6966 19.9324 19.891 20.1777 20.1455C20.5387 20.5204 20.9043 20.8907 21.2838 21.2749C21.3857 21.1591 21.4551 21.0758 21.5245 20.9925C22.6399 19.6549 23.7554 18.3127 24.8708 16.9752C25.6854 15.9986 26.861 15.9847 27.694 16.9428C28.0227 17.3223 28.3466 17.7018 28.6752 18.0859C29.3325 18.8542 29.9989 19.6318 30.6978 20.451Z" fill="#F8B49B"/>
<path d="M9 26.0884C9.43043 24.6444 9.86549 23.2004 10.2959 21.7563C10.6477 20.5761 11.0041 19.3959 11.3558 18.2157C11.3743 18.1555 11.3975 18.0907 11.4623 18.0352C11.4623 18.1138 11.4623 18.1971 11.4623 18.2758C11.4623 20.3447 11.4484 22.4089 11.4669 24.4778C11.4808 25.9588 12.1334 27.0974 13.4339 27.8333C14.0171 28.1619 14.6558 28.273 15.3269 28.273C19.9367 28.2684 24.5511 28.2684 29.1609 28.2684C29.2628 28.2684 29.3599 28.2684 29.4988 28.2684C29.4757 28.3609 29.4571 28.4303 29.434 28.4951C29.1609 29.3699 28.8879 30.2446 28.6102 31.1194C28.2306 32.3228 27.0828 32.9522 25.8563 32.6282C22.1166 31.6285 18.377 30.6242 14.6373 29.6245C13.3599 29.282 12.0825 28.9348 10.8004 28.597C9.84698 28.347 9.24993 27.7592 9.03703 26.7873C9.0324 26.7688 9.01388 26.7503 9 26.7318C9 26.5235 9 26.306 9 26.0884Z" fill="#F8B49B"/>
<path d="M17.8772 17.9055C16.7896 17.9009 15.9055 17.0122 15.9102 15.9292C15.9148 14.8369 16.8173 13.9529 17.9096 13.9575C18.988 13.9668 19.8766 14.8693 19.8628 15.9477C19.8489 17.04 18.9649 17.9101 17.8772 17.9055Z" fill="#F8B49B"/>
<path d="M30.0545 31.5284C30.0008 31.4823 30.0362 31.3943 30.1069 31.3942C30.5233 31.3938 30.9203 31.3925 31.3181 31.3959C31.4165 31.3967 31.4484 31.3793 31.4475 31.2902C31.4437 30.2315 31.4447 29.1728 31.4447 28.1141C31.4447 27.8521 31.5881 27.7291 31.904 27.7283C32.6567 27.7267 33.4095 27.7275 34.1622 27.7275C34.4097 27.7275 34.6563 27.7275 34.9037 27.7275C35.0219 27.7275 35.1343 27.748 35.2318 27.8087C35.3293 27.8703 35.3668 27.9523 35.3668 28.0549C35.3649 29.1325 35.3668 30.2102 35.364 31.2878C35.364 31.3706 35.3837 31.3975 35.4896 31.3967C35.9349 31.3911 36.3811 31.3943 36.8264 31.3943C36.8614 31.3943 36.8745 31.4261 36.8474 31.4484C36.8361 31.4576 36.8237 31.4661 36.8133 31.4756C35.7052 32.5011 34.5953 33.5259 33.4882 34.5531C33.4264 34.6099 33.3982 34.6249 33.3261 34.557C32.2377 33.5456 31.1456 32.5374 30.0545 31.5284Z" fill="#F8B49B"/>
</svg>
