<svg width="20" height="17" viewBox="0 0 20 17" fill="none" xmlns="http://www.w3.org/2000/svg">
<path d="M20 0.0290808C19.2215 0.941155 18.4376 1.84794 17.6656 2.7653C14.9149 6.03555 12.2857 9.39832 9.90641 12.9514C9.42922 13.6639 8.9745 14.3936 8.47485 15.0915C8.03996 15.7009 7.49536 16.1953 6.73001 16.3605C5.8457 16.5508 5.05259 16.3552 4.39695 15.726C4.17092 15.5092 4.00833 15.225 3.82063 14.9686C2.72217 13.4656 1.62504 11.9614 0.526586 10.4571C0.374574 10.2483 0.379861 9.99712 0.541127 9.79224C1.06854 9.11942 1.85636 8.91453 2.70367 9.23177C3.19143 9.41419 3.58666 9.71689 3.88804 10.1465C4.58201 11.1379 5.28259 12.1226 5.98185 13.1101C6.10346 13.2832 6.14972 13.2859 6.28323 13.122C7.0499 12.1848 7.7703 11.2132 8.53962 10.2787C10.9031 7.4063 13.5877 4.86571 16.5037 2.56438C17.589 1.70782 18.702 0.886958 19.8374 0.0964942C19.885 0.063448 19.9339 0.0317243 19.9828 0C19.9894 0.00925292 19.9947 0.018506 20 0.0290808Z" fill="#BDBDBD"/>
</svg>
