<?xml version="1.0" encoding="utf-8"?>
<!-- Generator: Adobe Illustrator 26.4.1, SVG Export Plug-In . SVG Version: 6.00 Build 0)  -->
<svg version="1.1" id="Layer_1" xmlns="http://www.w3.org/2000/svg" xmlns:xlink="http://www.w3.org/1999/xlink" x="0px" y="0px"
	 viewBox="0 0 450 450" style="enable-background:new 0 0 450 450;" xml:space="preserve">
<style type="text/css">
	.st0{fill:#E3F0FF;}
</style>
<path d="M237,33c4.35,0.97,8.76,1.74,13.05,2.93c33.6,9.31,57.22,39.51,57.45,74.27c0.29,42.62,0.35,85.24-0.01,127.85
	c-0.35,41.97-34.38,75.89-76.31,77.12c-16.49,0.48-32.52-0.93-47.15-9.24c-26.17-14.86-40.94-37.3-41.43-67.51
	c-0.69-42.73-0.42-85.49-0.11-128.23c0.28-38.93,29.71-71.5,68.43-76.53c0.71-0.09,1.38-0.44,2.07-0.67C221,33,229,33,237,33z
	 M166.64,238.5c0,1.64-0.14,2.88,0.02,4.08c2.27,17.24,10.65,30.66,25.2,40.21c11.88,7.8,25.15,8.87,38.86,8.38
	c23.19-0.83,43.55-16.04,50.35-38.19c1.4-4.55,1.95-9.35,2.98-14.48c-6.43,0-11.91,0.16-17.38-0.08c-2.29-0.1-4.75-0.66-6.76-1.72
	c-4.7-2.49-6.81-7.95-5.57-13.17c1.18-4.98,5.79-8.84,11.16-8.98c5.95-0.16,11.9-0.04,17.88-0.04c0-9.7,0-18.89,0-27.89
	c-0.31-0.27-0.4-0.42-0.5-0.42c-5.75-0.06-11.49-0.03-17.23-0.18c-6.71-0.17-11.7-5.49-11.59-12.17c0.11-6.6,5.12-11.58,12.09-11.76
	c5.7-0.14,11.42-0.03,17.22-0.03c0-9.63,0-18.81,0-28.38c-3.06,0-5.91,0.01-8.76,0c-3-0.01-6,0.08-9-0.06
	c-7.28-0.34-12.18-6.08-11.48-13.32c0.59-6.13,5.61-10.48,12.43-10.6c5.58-0.1,11.16-0.02,16.8-0.02c0-1.63,0.13-2.75-0.02-3.84
	c-2.87-20.67-13.67-35.53-32.64-44.34c-9.58-4.45-19.79-4.67-30.1-4.54c-22.79,0.29-43.27,14.51-50.88,35.94
	c-1.84,5.18-2.6,10.76-4,16.78c6.4,0,11.79-0.41,17.06,0.15c3.28,0.35,6.89,1.54,9.47,3.5c3.91,2.98,4.62,7.65,3.02,12.27
	c-1.65,4.77-5.17,7.74-10.31,7.94c-6.07,0.24-12.17,0.06-18.35,0.06c0,9.75,0,18.93,0,28.45c5.31,0,10.41-0.02,15.51,0
	c8.34,0.03,13.77,4.74,13.81,11.97c0.04,7.32-5.27,12.01-13.64,12.03c-5.2,0.01-10.41,0-15.7,0c0,9.69,0,18.88,0,28.44
	c5.53,0,10.87-0.02,16.21,0.01c7.74,0.04,13.06,4.85,13.13,11.83c0.08,7.18-5.26,12.12-13.18,12.16
	C177.41,238.52,172.07,238.5,166.64,238.5z"/>
<path d="M156,417c-4.22-1.92-7.86-4.43-8.92-9.32c-1.7-7.84,3.93-14.62,12.28-14.66c16.37-0.07,32.74-0.02,49.11-0.02
	c1.35,0,2.71,0,4.29,0c0-12.18,0-24.09,0-35.75c-7.93-1.78-15.88-2.93-23.42-5.37c-43.38-14.04-71.52-43.16-84.61-86.79
	c-2.31-7.69,1-14.21,7.83-16.15c6.9-1.96,12.89,1.83,15.17,9.56c10.29,34.87,32.44,58.68,67.04,69.95
	c53.62,17.46,111.55-13.88,126.95-68.13c0.24-0.84,0.47-1.68,0.72-2.52c2.09-6.94,8.09-10.62,14.59-8.95
	c6.71,1.73,10.78,8.18,8.47,15.12c-3.06,9.2-6.06,18.63-10.73,27.05c-20.83,37.49-52.54,59.59-95.31,65.33
	c-0.72,0.1-1.43,0.31-2.28,0.5c0,11.96,0,23.79,0,36.15c1.32,0,2.64,0,3.96,0c15.75,0,31.49,0,47.24,0c8.08,0,13.07,3.13,14.51,9.09
	c1.51,6.28-1.4,11.17-8.88,14.91C248,417,202,417,156,417z"/>
<path d="M33,147.75c1.64-7.66,2.81-15.47,5.02-22.97c4.59-15.6,13-29.1,24.24-40.83c5.8-6.05,12.91-6.71,18.18-1.69
	c5.17,4.92,4.85,12.28-0.8,18.26c-29.28,31.05-30.36,77.14-2.54,109.33c1.22,1.42,2.57,2.73,3.81,4.13
	c4.46,5.09,4.24,12.4-0.48,16.88c-4.74,4.49-12.07,4.43-16.87-0.41c-15.58-15.71-25.32-34.47-29.07-56.31c-0.52-3.05-1-6.1-1.5-9.15
	C33,159.25,33,153.5,33,147.75z"/>
<path d="M417,165c-1.76,8.14-2.97,16.45-5.38,24.39c-4.68,15.43-13.15,28.76-24.4,40.3c-5.32,5.46-12.68,5.92-17.67,1.17
	c-5-4.76-4.87-12.15,0.32-17.7c30.88-33.06,30.98-80.06,0.23-112.92c-5.41-5.78-5.62-13.11-0.52-17.98
	c5.17-4.93,12.37-4.37,17.92,1.44c16.51,17.29,26.24,37.75,28.86,61.56c0.09,0.85,0.43,1.67,0.65,2.5C417,153.5,417,159.25,417,165z
	"/>
<path d="M74.93,151.36c0.12-11.35,5.78-25.88,17.22-38.11c5.24-5.6,12.57-6.21,17.65-1.61c5.18,4.7,5.25,11.88,0.17,17.7
	c-14.99,17.19-14.89,37.43,0.28,54.75c4.74,5.41,4.65,12.54-0.2,17.16c-5.01,4.76-12.15,4.4-17.4-0.88
	C81.44,189.09,74.97,173.15,74.93,151.36z"/>
<path d="M375.05,161c-0.22,12.44-5.92,26.96-17.45,39.11c-5.32,5.6-12.55,6.02-17.64,1.15c-4.96-4.74-4.94-11.83,0.04-17.43
	c14.8-16.63,14.9-37.62,0.28-54.19c-5.33-6.03-5.36-13.19-0.08-17.98c5.17-4.69,12.5-3.93,17.92,1.86
	C369.12,125.27,375.08,140.47,375.05,161z"/>
<path class="st0" d="M166.64,238.5c5.43,0,10.77,0.02,16.11,0c7.92-0.04,13.26-4.98,13.18-12.16c-0.07-6.99-5.39-11.79-13.13-11.83
	c-5.34-0.03-10.68-0.01-16.21-0.01c0-9.56,0-18.76,0-28.44c5.3,0,10.5,0.01,15.7,0c8.37-0.02,13.68-4.71,13.64-12.03
	c-0.04-7.22-5.46-11.94-13.81-11.97c-5.1-0.02-10.19,0-15.51,0c0-9.52,0-18.7,0-28.45c6.19,0,12.28,0.18,18.35-0.06
	c5.15-0.2,8.66-3.16,10.31-7.94c1.6-4.62,0.89-9.29-3.02-12.27c-2.58-1.97-6.19-3.15-9.47-3.5c-5.28-0.56-10.66-0.15-17.06-0.15
	c1.4-6.02,2.16-11.6,4-16.78c7.62-21.43,28.09-35.64,50.88-35.94c10.31-0.13,20.52,0.09,30.1,4.54
	c18.97,8.81,29.77,23.68,32.64,44.34c0.15,1.08,0.02,2.21,0.02,3.84c-5.65,0-11.23-0.08-16.8,0.02c-6.82,0.12-11.84,4.47-12.43,10.6
	c-0.7,7.24,4.2,12.98,11.48,13.32c2.99,0.14,6,0.05,9,0.06c2.85,0.01,5.69,0,8.76,0c0,9.57,0,18.75,0,28.38
	c-5.8,0-11.52-0.12-17.22,0.03c-6.97,0.18-11.98,5.16-12.09,11.76c-0.11,6.68,4.88,12,11.59,12.17c5.74,0.15,11.49,0.12,17.23,0.18
	c0.1,0,0.19,0.15,0.5,0.42c0,9,0,18.19,0,27.89c-5.98,0-11.94-0.12-17.88,0.04c-5.37,0.14-9.98,4-11.16,8.98
	c-1.24,5.22,0.87,10.68,5.57,13.17c2.01,1.06,4.47,1.62,6.76,1.72c5.47,0.24,10.95,0.08,17.38,0.08c-1.03,5.13-1.59,9.94-2.98,14.48
	c-6.8,22.15-27.16,37.36-50.35,38.19c-13.71,0.49-26.98-0.58-38.86-8.38c-14.56-9.55-22.93-22.97-25.2-40.21
	C166.5,241.38,166.64,240.13,166.64,238.5z"/>
</svg>
