<svg xmlns="http://www.w3.org/2000/svg" width="56.016" height="59.5" viewBox="0 0 56.016 59.5">
  <g id="Notes" transform="translate(-44.385 -33.077)">
    <path id="Path_1" data-name="Path 1" d="M68.093,147.674H47.407c-.1-.147-.27-.143-.409-.194a3.737,3.737,0,0,1-2.443-2.582c-.069-.236.054-.516-.169-.711v-45.9l39.519,0c.154,0,.309.013.463.02q0,3.771,0,7.542c-.251.005-.5.016-.754.016l-33.339,0a1.947,1.947,0,0,0-.8.072.881.881,0,0,0-.624.94.856.856,0,0,0,.839.814c.192.017.387.007.581.007H83.6c.251,0,.5.009.755.015q0,2.261.006,4.521c-.251.006-.5.016-.754.016l-33.394,0a1.8,1.8,0,0,0-.746.069.9.9,0,0,0,.218,1.758c.193.015.387.008.58.008H83.6c.251,0,.5.01.754.015q0,2.26,0,4.52c-.251.006-.5.016-.754.016H50.272a3.857,3.857,0,0,0-.637.019.908.908,0,0,0,.113,1.81c.193.013.387,0,.581,0H83.607c.251,0,.5.01.754.016q.009,2.8.018,5.6c-.157.17-.309.345-.473.509q-6.119,6.122-12.239,12.243a1.506,1.506,0,0,0-.444.527,10.873,10.873,0,0,0-1.705,3.485c-.635,1.129-1.043,2.36-1.6,3.523A1,1,0,0,0,68.093,147.674Zm-5.955-20.817q6.1,0,12.2,0c.742,0,1.177-.345,1.181-.91s-.417-.92-1.159-.92q-12.2,0-24.394,0c-.682,0-1.123.357-1.134.9s.435.915,1.113.931c.135,0,.271,0,.406,0Zm-3.215,4.552q-4.5,0-9,0c-.668,0-1.109.393-1.09.94a1.025,1.025,0,0,0,1.1.893c.1,0,.194,0,.291,0H67.7a3.1,3.1,0,0,0,.579-.022.914.914,0,0,0,.711-1.191.987.987,0,0,0-1.067-.625Q63.426,131.416,58.923,131.409Zm-3.13,6.389c-1.955,0-3.91,0-5.865,0a.951.951,0,0,0-1,.533c-.309.7.2,1.3,1.1,1.3q5.748.006,11.5,0c.7,0,1.192-.389,1.191-.919,0-.57-.436-.912-1.173-.913Q58.667,137.795,55.793,137.8Z" transform="translate(0 -55.097)" fill="#e9f1fe"/>
    <path id="Path_2" data-name="Path 2" d="M84.367,43.206c-.154-.007-.309-.02-.463-.02l-39.519,0V36.331c.141-.372.266-.751.425-1.115a4.116,4.116,0,0,1,2.6-2.139H87.966c.084.143.24.1.364.134a3.658,3.658,0,0,1,2.655,3.3c.027,2.223,0,4.446,0,6.669Z" transform="translate(0)" fill="#fecf64"/>
    <path id="Path_3" data-name="Path 3" d="M293.048,298.46q0,7.4,0,14.8a3.648,3.648,0,0,1-2.434,3.346c-.195.068-.43.034-.585.211h-6.508a5.043,5.043,0,0,0,2.3-1.565,4.884,4.884,0,0,0,.7-3.032c.064-2.2.021-4.4.017-6.6,0-.185.062-.391-.109-.545.427-.443.846-.895,1.282-1.329Q290.375,301.1,293.048,298.46Z" transform="translate(-202.063 -224.241)" fill="#c8dffc"/>
    <path id="Path_4" data-name="Path 4" d="M216.752,341.162c.171.154.109.359.109.545,0,2.2.047,4.4-.017,6.6a4.883,4.883,0,0,1-.7,3.032,5.042,5.042,0,0,1-2.3,1.565H201.061c.1-.057.191-.121.293-.169,1.187-.562,2.437-.982,3.593-1.613.8-.333,1.591-.67,2.389-1a2.46,2.46,0,0,0,1.046-.686q2.308-2.284,4.617-4.567Q214.874,343.013,216.752,341.162Z" transform="translate(-132.387 -260.323)" fill="#e9f1fe"/>
    <path id="Path_5" data-name="Path 5" d="M361.2,210.7c-.777,1.559-2.2,2.536-3.371,3.741a30.932,30.932,0,0,0-2.264-2.324c-.834-.832-1.617-1.718-2.53-2.469a14.923,14.923,0,0,1,1.972-2.1,3.909,3.909,0,0,1,1.143-.966,2.148,2.148,0,0,1,2.615.346c.621.581,1.206,1.2,1.808,1.8A3.43,3.43,0,0,1,361.2,210Z" transform="translate(-260.803 -146.363)" fill="#c8dffc"/>
    <path id="Path_6" data-name="Path 6" d="M199.951,388.8c-1.156.63-2.407,1.051-3.593,1.613-.1.048-.2.112-.293.169h-.581a1,1,0,0,1-.173-1.3c.556-1.164.964-2.395,1.6-3.523Z" transform="translate(-127.391 -298.002)"/>
    <path id="Path_7" data-name="Path 7" d="M230.645,259.246q-1.877,1.852-3.754,3.705-2.309,2.282-4.617,4.567c-.138-.158-.268-.325-.416-.474q-2.175-2.188-4.356-4.371a1.505,1.505,0,0,1,.444-.527q6.118-6.124,12.239-12.243c.164-.164.316-.339.473-.509q2.4-2.38,4.8-4.759c.162-.16.3-.362.539-.418l4.788,4.8q-1.547,1.568-3.093,3.138c-.148.151-.284.313-.426.471q-2.669,2.645-5.337,5.291C231.491,258.351,231.072,258.8,230.645,259.246Z" transform="translate(-146.28 -178.408)"/>
    <path id="Path_8" data-name="Path 8" d="M307.591,120.9c-.244.056-.378.258-.539.418q-2.4,2.377-4.8,4.759-.009-2.8-.018-5.6c.441,0,.884.014,1.324-.013a.921.921,0,0,0,0-1.841c-.44-.028-.883-.01-1.324-.012q0-2.26,0-4.52c.426,0,.853.008,1.278-.012a.886.886,0,0,0,.945-.887.907.907,0,0,0-.94-.962c-.425-.024-.852-.006-1.278-.007q0-2.261-.006-4.521c.425,0,.851.006,1.276-.012a.884.884,0,0,0,.948-.88.92.92,0,0,0-.94-.967c-.424-.026-.851-.006-1.276-.006q0-3.771,0-7.542l6.618-.022q.005,10.574.01,21.148C308.522,119.982,307.87,120.279,307.591,120.9Z" transform="translate(-217.875 -55.089)" fill="#c8dffc"/>
    <path id="Path_9" data-name="Path 9" d="M108.576,229.446c.441,0,.884-.016,1.324.012a.921.921,0,0,1,0,1.841c-.44.027-.883.01-1.324.013-.251-.005-.5-.016-.754-.016H74.542c-.193,0-.388.01-.581,0a.908.908,0,0,1-.113-1.81,3.857,3.857,0,0,1,.637-.019h33.337C108.073,229.462,108.325,229.452,108.576,229.446Z" transform="translate(-24.214 -165.923)" fill="#64a2f6"/>
    <path id="Path_10" data-name="Path 10" d="M108.64,147.026c.426,0,.852-.02,1.276.006a.92.92,0,0,1,.94.967.884.884,0,0,1-.948.88c-.425.018-.851.009-1.276.012-.251-.005-.5-.014-.755-.015H74.539c-.194,0-.388.01-.581-.007a.856.856,0,0,1-.839-.814.881.881,0,0,1,.624-.94,1.946,1.946,0,0,1,.8-.072l33.339,0C108.137,147.042,108.389,147.032,108.64,147.026Z" transform="translate(-24.274 -96.278)" fill="#64a2f6"/>
    <path id="Path_11" data-name="Path 11" d="M108.639,188.236c.426,0,.853-.017,1.278.007a.907.907,0,0,1,.94.962.886.886,0,0,1-.945.887c-.425.02-.852.009-1.278.012-.251-.005-.5-.015-.754-.015H74.543c-.193,0-.388.007-.58-.008a.9.9,0,0,1-.218-1.758,1.8,1.8,0,0,1,.746-.069l33.394,0C108.136,188.252,108.388,188.241,108.639,188.236Z" transform="translate(-24.275 -131.1)" fill="#64a2f6"/>
    <path id="Path_12" data-name="Path 12" d="M86.356,272.609H74.565c-.135,0-.271,0-.406,0-.678-.016-1.124-.39-1.113-.931s.453-.9,1.134-.9q12.2,0,24.394,0c.742,0,1.163.34,1.159.92s-.439.91-1.181.91Q92.454,272.612,86.356,272.609Z" transform="translate(-24.217 -200.849)" fill="#64a2f6"/>
    <path id="Path_13" data-name="Path 13" d="M83.138,311.946q4.5,0,9,0a.987.987,0,0,1,1.067.625.914.914,0,0,1-.711,1.191,3.105,3.105,0,0,1-.579.022H74.433c-.1,0-.194,0-.291,0a1.025,1.025,0,0,1-1.1-.893c-.019-.547.422-.939,1.09-.94Q78.635,311.942,83.138,311.946Z" transform="translate(-24.215 -235.634)" fill="#64a2f6"/>
    <path id="Path_14" data-name="Path 14" d="M80.047,353.158q2.874,0,5.749,0c.737,0,1.171.344,1.173.913,0,.53-.49.919-1.191.919q-5.748,0-11.5,0c-.906,0-1.41-.605-1.1-1.3a.951.951,0,0,1,1-.533C76.138,353.161,78.092,353.158,80.047,353.158Z" transform="translate(-24.254 -270.458)" fill="#64a2f6"/>
    <path id="Path_15" data-name="Path 15" d="M208.21,363.269q2.178,2.185,4.356,4.371c.148.149.278.315.416.474a2.458,2.458,0,0,1-1.046.686c-.8.329-1.593.666-2.389,1l-3.042-3.044A10.872,10.872,0,0,1,208.21,363.269Z" transform="translate(-136.987 -279.003)" fill="#fecf64"/>
    <path id="Path_16" data-name="Path 16" d="M336.786,230.463c.279-.619.932-.916,1.279-1.477.475-.276.706-.841,1.241-1.046.913.751,1.7,1.637,2.53,2.469a30.919,30.919,0,0,1,2.264,2.324l-2.527,2.531Z" transform="translate(-247.071 -164.653)" fill="#aaa"/>
  </g>
</svg>
