<svg width="33" height="34" viewBox="0 0 33 34" fill="none" xmlns="http://www.w3.org/2000/svg">
<path d="M19.2892 26.2638C20.2265 26.2638 21.1064 26.2585 21.9881 26.2674C22.1766 26.2692 22.2377 26.2297 22.2359 26.0268C22.2287 23.6171 22.2305 21.2075 22.2305 18.7978C22.2305 18.2016 22.5052 17.9215 23.1104 17.9197C24.5523 17.9161 25.9943 17.9179 27.4362 17.9179C27.9102 17.9179 28.3825 17.9179 28.8566 17.9179C29.0828 17.9179 29.2983 17.9646 29.4851 18.1029C29.6718 18.2429 29.7436 18.4297 29.7436 18.6631C29.74 21.1159 29.7436 23.5687 29.7382 26.0214C29.7382 26.21 29.776 26.271 29.9789 26.2692C30.8318 26.2567 31.6866 26.2638 32.5395 26.2638C32.5718 26.2638 32.6095 26.2459 32.6401 26.2854C32.6275 26.3608 32.5611 26.3985 32.5144 26.4488C30.3919 28.7831 28.2658 31.1155 26.1451 33.4534C26.0266 33.5827 25.9727 33.6168 25.8344 33.4624C23.7497 31.1604 21.6577 28.8657 19.5675 26.5691C19.4831 26.4829 19.4041 26.3913 19.2892 26.2638Z" fill="#D36438"/>
<path d="M13.0043 0.00359195C14.8556 0.00359195 16.7052 0.00538678 18.5565 0C18.7361 0 18.86 0.0502766 18.9839 0.179559C21.7295 3.013 24.4787 5.84106 27.226 8.67091C27.7809 9.24191 28.334 9.81471 28.8924 10.3821C28.9733 10.4647 29.011 10.5455 29.0092 10.664C29.0056 12.6643 29.0038 14.6664 29.011 16.6667C29.011 16.8265 28.9732 16.8732 28.8098 16.8696C28.3376 16.857 27.8635 16.857 27.3895 16.8696C27.2135 16.875 27.1614 16.8283 27.1632 16.6487C27.1704 15.3433 27.165 14.0379 27.1722 12.7325C27.174 12.5584 27.1381 12.5063 26.9531 12.5081C25.1664 12.5153 23.3815 12.5225 21.5948 12.5099C19.9464 12.4973 18.5691 11.876 17.5168 10.594C16.8057 9.72672 16.4538 8.7176 16.4502 7.59715C16.4448 5.75308 16.4466 3.9108 16.452 2.06673C16.452 1.89974 16.4304 1.83689 16.2383 1.83869C13.3616 1.84587 10.4849 1.84228 7.61004 1.84407C6.70143 1.84407 5.93826 2.33606 5.61684 3.11894C5.5091 3.3811 5.46959 3.65582 5.4678 3.93773C5.466 4.10652 5.54501 4.32917 5.43368 4.43332C5.32414 4.53567 5.10507 4.46025 4.93448 4.46205C4.55379 4.46564 4.17491 4.46384 3.79422 4.46384C3.71521 4.46384 3.64339 4.47821 3.6362 4.35252C3.56976 3.11176 3.8858 2.00927 4.8034 1.12763C5.57733 0.382461 6.51109 0.0125697 7.58131 0.00897851C9.38956 -0.00179504 11.196 0.00359195 13.0043 0.00359195ZM18.438 2.25347C18.4272 2.31272 18.42 2.33248 18.42 2.35223C18.42 4.15141 18.4021 5.95239 18.4326 7.74978C18.4452 8.50213 18.754 9.15932 19.334 9.67645C19.9913 10.2618 20.7526 10.5455 21.6271 10.5437C22.8967 10.5437 24.1644 10.5437 25.434 10.5455C25.7733 10.5455 26.1127 10.5455 26.4934 10.5455C23.7927 7.76414 21.1261 5.02048 18.438 2.25347Z" fill="#999999"/>
<path d="M7.61907 14.6143C5.45348 14.6143 3.28609 14.6143 1.1205 14.6143C0.355543 14.6143 0.00179469 14.2642 0.00179469 13.4975C-9.86356e-07 11.1022 0 8.70685 0 6.30973C0 5.71 0.407617 5.306 1.02174 5.306C3.31662 5.3042 5.61329 5.3042 7.90817 5.3042C9.98039 5.3042 12.0544 5.3042 14.1266 5.3042C14.8503 5.3042 15.2292 5.68307 15.2292 6.4031C15.2292 8.80561 15.2292 11.2081 15.2292 13.6124C15.2292 14.2139 14.8179 14.6125 14.1841 14.6143C12.4979 14.6179 10.8136 14.6143 9.12744 14.6143C8.62465 14.6143 8.12186 14.6143 7.61907 14.6143ZM5.74258 9.96376C5.74258 10.8598 5.74258 11.7558 5.74258 12.6518C5.74258 12.7577 5.73181 12.8439 5.88983 12.8403C6.49138 12.8295 7.09473 12.8403 7.69628 12.8241C8.62465 12.799 9.23518 12.3286 9.56559 11.4685C9.87265 10.6676 9.8906 9.84166 9.75234 9.0121C9.57277 7.94372 9.03406 7.35836 8.07338 7.16623C7.34433 7.01899 6.60092 7.09261 5.86469 7.08004C5.70846 7.07645 5.74438 7.18957 5.74438 7.27396C5.74258 8.17176 5.74258 9.06776 5.74258 9.96376ZM1.25698 9.9494H1.25518C1.25518 10.8454 1.25877 11.7414 1.25159 12.6356C1.24979 12.7918 1.2875 12.8475 1.4545 12.8403C1.75438 12.8259 2.05605 12.8277 2.35773 12.8403C2.50497 12.8457 2.55166 12.808 2.54807 12.6536C2.53909 12.0736 2.54986 11.4936 2.54089 10.9118C2.53909 10.7556 2.56962 10.6964 2.73841 10.7071C3.04547 10.7251 3.35433 10.7053 3.66139 10.673C4.32938 10.6048 4.80704 10.2888 5.02252 9.63517C5.13564 9.29042 5.15899 8.9295 5.1123 8.57218C4.99199 7.64386 4.47483 7.16443 3.53749 7.10159C2.84256 7.0549 2.14763 7.08902 1.4527 7.07286C1.28391 7.06927 1.25338 7.12493 1.25518 7.28115C1.26057 8.17176 1.25698 9.06058 1.25698 9.9494ZM10.6717 9.96556C10.6717 10.8616 10.6753 11.7576 10.6681 12.6536C10.6663 12.8062 10.7112 12.8475 10.8585 12.8421C11.1655 12.8313 11.4744 12.8313 11.7833 12.8421C11.9287 12.8475 11.9628 12.799 11.961 12.6607C11.9538 12.0233 11.9628 11.3841 11.9556 10.7466C11.9538 10.5958 11.9987 10.5527 12.1478 10.5563C12.5841 10.5671 13.0223 10.5563 13.4604 10.5635C13.5951 10.5653 13.6543 10.5366 13.6454 10.3875C13.6328 10.181 13.6328 9.97095 13.6454 9.76445C13.6526 9.61901 13.613 9.56514 13.4568 9.57053C13.0133 9.5813 12.568 9.56873 12.1226 9.57771C11.988 9.5795 11.9538 9.53821 11.9574 9.40892C11.9664 9.02108 11.9664 8.63502 11.9574 8.24717C11.9538 8.10712 11.9933 8.06582 12.137 8.06762C12.7386 8.0748 13.3419 8.06582 13.9435 8.073C14.0817 8.0748 14.1535 8.05505 14.1428 7.89165C14.1284 7.67797 14.132 7.46071 14.1428 7.24703C14.15 7.11057 14.0979 7.08004 13.9704 7.08004C12.9307 7.08543 11.891 7.08722 10.8513 7.08004C10.6861 7.07824 10.6699 7.14289 10.6717 7.27935C10.6753 8.17176 10.6717 9.06956 10.6717 9.96556Z" fill="#D36438"/>
<path d="M22.2333 31.2721C22.1543 31.3241 22.0896 31.3044 22.0286 31.3044C17.2162 31.3062 12.4037 31.308 7.58951 31.3044C5.60529 31.3026 4.01252 29.9613 3.67852 28.0256C3.63902 27.7922 3.63722 27.5552 3.63722 27.3182C3.63722 23.4379 3.63902 19.5576 3.63184 15.6773C3.63184 15.4942 3.68032 15.4511 3.8563 15.4565C4.32856 15.4709 4.80262 15.4709 5.27668 15.4583C5.44727 15.4529 5.47241 15.5104 5.47061 15.663C5.46702 19.5361 5.48677 23.4092 5.45625 27.2823C5.44547 28.541 6.39718 29.4855 7.66134 29.4837C11.9009 29.4747 16.1387 29.4819 20.3783 29.4783C20.5328 29.4783 20.6423 29.516 20.7483 29.6363C21.2349 30.1821 21.7305 30.719 22.2333 31.2721Z" fill="#999999"/>
<path d="M13.9478 18.5914C12.0049 18.5914 10.0619 18.5896 8.11901 18.5968C7.93944 18.5968 7.88916 18.5537 7.89455 18.3742C7.90891 17.9235 7.90532 17.471 7.89455 17.0185C7.89096 16.8623 7.94303 16.8336 8.08848 16.8336C11.4518 16.8371 14.8151 16.8371 18.1766 16.8371C18.7135 16.8371 19.2522 16.8425 19.7891 16.8336C19.931 16.8318 19.9705 16.8695 19.9687 17.0113C19.9597 17.4764 19.9579 17.9432 19.9687 18.4101C19.9723 18.5663 19.9202 18.5968 19.7748 18.595C17.8354 18.5896 15.8907 18.5914 13.9478 18.5914Z" fill="#999999"/>
<path d="M13.9478 21.6492C12.0048 21.6492 10.0619 21.6474 8.119 21.6527C7.94122 21.6527 7.88915 21.6132 7.89454 21.4319C7.9089 20.974 7.90711 20.5143 7.89813 20.0565C7.89633 19.9182 7.93943 19.8931 8.06692 19.8931C11.9743 19.8967 15.8817 19.8967 19.7909 19.8931C19.931 19.8931 19.9741 19.9272 19.9705 20.0708C19.9615 20.5359 19.9597 21.0027 19.9705 21.4696C19.9741 21.6276 19.9202 21.6545 19.7766 21.6545C17.8354 21.6474 15.8907 21.6492 13.9478 21.6492Z" fill="#999999"/>
<path d="M13.9227 22.9551C15.8441 22.9551 17.7654 22.9587 19.6868 22.9497C19.8969 22.9497 19.9849 22.9838 19.9723 23.2226C19.9508 23.6518 19.958 24.0827 19.9723 24.5119C19.9777 24.6753 19.9328 24.7112 19.7712 24.7112C17.0041 24.7058 14.2369 24.7076 11.4698 24.7076C10.3439 24.7076 9.218 24.704 8.09391 24.713C7.92332 24.7148 7.89279 24.6645 7.89638 24.5101C7.90536 24.0666 7.90895 23.6213 7.89459 23.1777C7.8892 23.0018 7.93409 22.9515 8.11545 22.9515C10.0512 22.9587 11.9869 22.9569 13.9227 22.9551Z" fill="#999999"/>
<path d="M5.74261 9.96367C5.74261 9.06767 5.74261 8.17166 5.74441 7.27566C5.74441 7.18948 5.70849 7.07815 5.86472 7.08174C6.60095 7.09431 7.34436 7.02069 8.0734 7.16793C9.03409 7.36185 9.5728 7.94542 9.75237 9.0138C9.89063 9.84156 9.87267 10.6675 9.56561 11.4702C9.23521 12.3303 8.62468 12.8007 7.69631 12.8258C7.09476 12.842 6.49141 12.8312 5.88986 12.842C5.73184 12.8456 5.74261 12.7594 5.74261 12.6535C5.74261 11.7557 5.74261 10.8597 5.74261 9.96367ZM7.02473 9.94391C7.02473 10.5239 7.02473 11.1057 7.02473 11.6856C7.02473 11.7754 7.01754 11.8436 7.15042 11.8526C7.79687 11.8939 8.18294 11.6461 8.34635 11.0213C8.52592 10.3389 8.53489 9.64225 8.37687 8.95634C8.22963 8.30813 7.87049 8.05854 7.2007 8.06213C7.05885 8.06213 7.01755 8.10343 7.01934 8.24528C7.03012 8.81089 7.02473 9.3783 7.02473 9.94391Z" fill="#FDFDFD"/>
<path d="M1.25792 9.94928C1.25792 9.06046 1.26151 8.17164 1.25432 7.28462C1.25253 7.1302 1.28485 7.07274 1.45185 7.07633C2.14678 7.09249 2.8417 7.06017 3.53663 7.10506C4.47398 7.16791 4.99293 7.64553 5.11144 8.57565C5.15813 8.93297 5.13479 9.29388 5.02166 9.63864C4.80618 10.2922 4.32853 10.6083 3.66053 10.6765C3.35347 10.707 3.04462 10.7286 2.73756 10.7106C2.56876 10.6998 2.53824 10.7591 2.54003 10.9153C2.54901 11.4953 2.53824 12.0771 2.54721 12.657C2.54901 12.8115 2.50412 12.8492 2.35687 12.8438C2.05699 12.8312 1.75532 12.8294 1.45365 12.8438C1.28844 12.851 1.25073 12.7953 1.25073 12.6391C1.25792 11.7431 1.25432 10.8471 1.25432 9.95287C1.25792 9.94928 1.25792 9.94928 1.25792 9.94928ZM2.54542 8.84858C2.54542 8.95631 2.54542 9.06226 2.54542 9.16999C2.54542 9.79486 2.56876 9.81101 3.19905 9.70328C3.4271 9.66557 3.60846 9.57579 3.69106 9.34775C3.79341 9.06405 3.81317 8.77496 3.72338 8.48587C3.64437 8.2273 3.48097 8.04954 3.19366 8.02799C3.03744 8.01722 2.87941 8.02261 2.72319 8.00824C2.58672 7.99567 2.53285 8.03697 2.54003 8.18241C2.5544 8.40507 2.54542 8.62772 2.54542 8.84858Z" fill="#FDFDFD"/>
<path d="M10.6713 9.96547C10.6713 9.06947 10.6731 8.17347 10.6677 7.27747C10.6677 7.14101 10.6839 7.07637 10.8473 7.07816C11.887 7.08534 12.9267 7.08355 13.9664 7.07816C14.0939 7.07816 14.1459 7.10869 14.1388 7.24515C14.128 7.46062 14.1244 7.67609 14.1388 7.88977C14.1495 8.05317 14.0777 8.07292 13.9394 8.07112C13.3379 8.06574 12.7345 8.07472 12.133 8.06574C11.9893 8.06394 11.9498 8.10524 11.9534 8.2453C11.9624 8.63135 11.9624 9.0192 11.9534 9.40704C11.9498 9.53812 11.9839 9.57942 12.1186 9.57583C12.5621 9.56685 13.0075 9.57942 13.4528 9.56865C13.609 9.56506 13.6485 9.61713 13.6414 9.76257C13.6306 9.96906 13.6288 10.1791 13.6414 10.3856C13.6503 10.5347 13.5929 10.5634 13.4564 10.5616C13.02 10.5544 12.5819 10.5652 12.1438 10.5544C11.9929 10.5508 11.9498 10.5939 11.9516 10.7448C11.9588 11.3822 11.9516 12.0214 11.957 12.6589C11.9588 12.7971 11.9247 12.8456 11.7792 12.8402C11.4722 12.8294 11.1633 12.8294 10.8545 12.8402C10.7054 12.8456 10.6623 12.8061 10.6641 12.6517C10.6767 11.7575 10.6713 10.8615 10.6713 9.96547Z" fill="#FDFDFD"/>
<path d="M7.0244 9.94383C7.0244 9.37822 7.02979 8.81081 7.02081 8.2452C7.01901 8.10335 7.06031 8.06385 7.20217 8.06205C7.87196 8.05846 8.2311 8.30805 8.37834 8.95626C8.53457 9.64217 8.52738 10.3389 8.34781 11.0212C8.18261 11.6461 7.79834 11.8938 7.15189 11.8525C7.01901 11.8436 7.0244 11.7753 7.02619 11.6856C7.02619 11.1056 7.0244 10.5256 7.0244 9.94383Z" fill="#D36438"/>
<path d="M2.54581 8.84854C2.54581 8.62768 2.55478 8.40503 2.54221 8.18417C2.53324 8.03693 2.58711 7.99743 2.72537 8.01C2.8816 8.02436 3.03962 8.01718 3.19584 8.02975C3.48315 8.0513 3.64656 8.22906 3.72557 8.48763C3.81355 8.77672 3.7956 9.0676 3.69325 9.34951C3.61064 9.57755 3.42928 9.66553 3.20123 9.70504C2.57274 9.81098 2.5476 9.79482 2.5476 9.17175C2.54581 9.06401 2.54581 8.95628 2.54581 8.84854Z" fill="#D36438"/>
</svg>
