<svg width="40" height="40" viewBox="0 0 40 40" fill="none" xmlns="http://www.w3.org/2000/svg">
<path d="M19.5092 39.6154C30.2839 39.6154 39.0184 30.7472 39.0184 19.8077C39.0184 8.8682 30.2839 0 19.5092 0C8.73458 0 0 8.8682 0 19.8077C0 30.7472 8.73458 39.6154 19.5092 39.6154Z" fill="white"/>
<path d="M30.5555 11.0866C30.9727 11.5038 31.4598 11.858 31.6957 12.4323C31.998 13.1684 31.8451 14.0138 31.282 14.5784C30.6988 15.163 30.1065 15.7393 29.5185 16.3191C28.8114 15.6106 28.1043 14.9022 27.3979 14.1937C27.4118 14.1723 27.4229 14.1474 27.4408 14.1301C28.4212 13.1483 29.4015 12.168 30.3819 11.1863C30.431 11.1371 30.4801 11.0887 30.5562 11.0859L30.5555 11.0866Z" fill="#D0CFCF"/>
<path d="M30.5557 11.0839C30.4803 11.0866 30.4312 11.1351 30.3813 11.1842C29.401 12.1652 28.42 13.1463 27.4403 14.128C27.4223 14.146 27.4112 14.1702 27.3974 14.1916C27.3808 14.1916 27.3642 14.1896 27.3476 14.1875C27.2729 14.1052 27.2009 14.0208 27.1227 13.9419C26.507 13.3178 25.8899 12.6952 25.2734 12.0725C25.8954 11.391 26.5471 10.7372 27.2244 10.1132C27.7938 9.58878 28.9056 9.61645 29.5373 10.0994C29.915 10.3879 30.2368 10.7352 30.5564 11.0846L30.5557 11.0839Z" fill="#EDEDED"/>
<path d="M27.3477 14.1885C27.0495 14.5559 26.6946 14.8693 26.3611 15.2021C25.9294 15.6317 25.5205 16.0849 25.0563 16.4813C24.3492 15.7825 23.6421 15.0838 22.9351 14.3857C23.6912 13.6253 24.4474 12.8643 25.205 12.1047C25.2216 12.0881 25.2507 12.0839 25.2742 12.0742C25.8906 12.6969 26.5078 13.3195 27.1235 13.9436C27.2017 14.0225 27.2736 14.1076 27.3483 14.1892L27.3477 14.1885Z" fill="#FEC928"/>
<path d="M27.1939 18.6506C27.0749 18.7841 26.9559 18.9177 26.8362 19.0512C26.6065 19.2525 26.3706 19.4483 26.2024 19.7085C26.1533 19.7417 26.0973 19.768 26.0558 19.8088C24.8028 21.061 23.552 22.3153 22.3004 23.569C22.032 23.8416 21.7642 24.1134 21.4958 24.386C21.4259 24.4497 21.3533 24.5099 21.2869 24.577C19.4445 26.418 17.6035 28.2604 15.7611 30.1014C15.676 30.1865 15.584 30.2647 15.4947 30.3456C15.0879 30.356 14.9931 30.2778 14.9177 29.8897C14.8375 29.4766 14.7406 29.0664 14.67 28.652C14.6465 28.5136 14.5891 28.4859 14.4673 28.488C14.1567 28.4928 13.8461 28.4908 13.5354 28.4887C13.4164 28.488 13.2905 28.4984 13.2109 28.378C13.2732 28.3074 13.332 28.2327 13.3984 28.1663C17.214 24.3501 21.0302 20.5345 24.8464 16.719C24.9128 16.6526 24.9855 16.591 25.0554 16.5273C25.768 17.2351 26.4799 17.9436 27.1925 18.6513L27.1939 18.6506Z" fill="#3587CA"/>
<path d="M25.057 16.526C24.9871 16.5897 24.9145 16.6506 24.8481 16.7177C21.0318 20.5332 17.2156 24.3488 13.4001 28.165C13.3337 28.2314 13.2748 28.3061 13.2126 28.3767C13.1981 28.3739 13.1828 28.3705 13.1683 28.367C13.1088 28.2494 13.0915 28.1249 13.0936 27.9934C13.0977 27.7187 13.0818 27.4434 13.0991 27.1694C13.1116 26.9695 13.0348 26.9037 12.8452 26.8726C12.4481 26.8083 12.0551 26.719 11.6608 26.636C11.2906 26.5578 11.2311 26.4796 11.2367 26.0936C11.7168 25.545 12.2606 25.06 12.7663 24.5369C12.9089 24.3896 13.0562 24.2457 13.2015 24.1004C13.4866 23.8229 13.7834 23.5566 14.038 23.2487C14.2593 23.0329 14.4828 22.8191 14.7014 22.6011C16.101 21.2029 17.5 19.8047 18.8961 18.4037C18.9681 18.3311 19.0981 18.2826 19.0601 18.138C19.3935 18.0107 19.5935 17.7395 19.7879 17.4621C19.8979 17.4386 19.9553 17.3459 20.0273 17.2746C20.9972 16.3123 21.9651 15.3478 22.9337 14.3848C23.6408 15.0835 24.3479 15.7823 25.0549 16.4804C25.0577 16.4956 25.0584 16.5108 25.057 16.526Z" fill="#5298D2"/>
<path d="M19.7881 17.4621C19.5937 17.7389 19.3938 18.0101 19.0603 18.1381C17.9596 17.8869 16.8602 17.6282 15.882 17.0297C15.4779 16.7828 15.1417 16.4617 14.9985 15.9878C14.8463 15.4848 14.9936 15.0351 15.2628 14.6138C15.6751 13.9704 16.2556 13.4951 16.8582 13.0447C17.431 12.6164 18.0557 12.2601 18.6037 11.7973C18.8749 11.5683 19.1316 11.3262 19.3343 11.0328C19.7176 10.48 19.6581 10.0884 19.1198 9.67887C18.7102 9.36684 18.237 9.17866 17.7527 9.02023C16.5198 8.61619 15.2455 8.40448 13.9628 8.24259C11.8042 7.9707 9.63528 7.86208 7.46149 7.82679C7.16884 7.82195 7.0028 7.67044 7.00003 7.41791C6.99727 7.15708 7.17161 6.99727 7.47948 7.00004C9.481 7.01872 11.4777 7.12249 13.4681 7.34527C14.9078 7.50647 16.3379 7.72163 17.7299 8.13674C18.3837 8.33184 19.0188 8.57537 19.5757 8.98356C20.5333 9.6844 20.6751 10.5997 19.9756 11.5607C19.5322 12.1702 18.9434 12.6206 18.3283 13.0385C17.7078 13.4598 17.0816 13.8728 16.5358 14.3931C16.2978 14.62 16.0708 14.856 15.9103 15.1465C15.6793 15.5644 15.7374 15.873 16.1124 16.1677C16.5946 16.5468 17.1619 16.7537 17.7382 16.9363C18.4114 17.1494 19.1011 17.3037 19.7888 17.4621H19.7881Z" fill="#333333"/>
<path d="M27.3475 14.1875C27.3641 14.1903 27.3807 14.1917 27.3973 14.1917C28.1044 14.9001 28.8114 15.6086 29.5178 16.317C29.1463 16.7563 28.7159 17.1389 28.3133 17.5492C27.9466 17.9228 27.5675 18.2832 27.1939 18.6499C26.4813 17.9422 25.7694 17.2337 25.0568 16.5259C25.0581 16.5107 25.0568 16.4955 25.0547 16.4803C25.5189 16.0839 25.9285 15.6307 26.3595 15.2011C26.6937 14.8683 27.0479 14.5556 27.3461 14.1875H27.3475Z" fill="#EAB101"/>
<path d="M14.038 23.2488C13.7834 23.5567 13.4866 23.8231 13.2016 24.1005C11.9819 24.1551 10.776 24.2949 9.65794 24.8249C8.65683 25.2988 8.00096 26.057 7.90618 27.1993C7.83907 28.008 8.18223 28.6909 8.64853 29.3219C8.82357 29.5585 9.03112 29.7653 9.24006 29.9715C9.42755 30.1569 9.43447 30.3921 9.26912 30.5679C9.10653 30.7408 8.88168 30.7664 8.69281 30.5879C7.64259 29.5938 6.91269 28.4432 7.10571 26.9218C7.26553 25.6648 7.99128 24.7806 9.08509 24.1849C9.99279 23.6902 10.9863 23.4841 11.9998 23.3602C12.6758 23.2779 13.3559 23.2295 14.038 23.2481V23.2488Z" fill="#333333"/>
<path d="M21.4968 24.3869C21.7652 24.1143 22.033 23.8424 22.3014 23.5698C22.3519 23.5795 22.4024 23.5961 22.4529 23.5975C23.7467 23.6203 25.039 23.6058 26.3079 23.3062C26.9084 23.1644 27.4951 22.9651 27.9372 22.5161C28.7598 21.6797 28.7252 20.9442 27.7179 20.3596C27.2391 20.0815 26.7244 19.8871 26.2027 19.71C26.3715 19.4499 26.6068 19.2541 26.8365 19.0527C27.4432 19.2561 28.0244 19.5114 28.5315 19.9085C29.4087 20.5962 29.5859 21.5039 29.0275 22.4691C28.5294 23.3311 27.72 23.7628 26.8046 24.0313C25.6022 24.3841 24.3631 24.4325 23.1219 24.4367C22.5802 24.4388 22.0378 24.4049 21.4961 24.3876L21.4968 24.3869Z" fill="#333333"/>
<path d="M13.1681 28.3672C13.1826 28.3706 13.1978 28.3734 13.2124 28.3769C13.2919 28.4973 13.4178 28.4869 13.5368 28.4876C13.8475 28.4896 14.1581 28.4917 14.4687 28.4869C14.5898 28.4848 14.6479 28.5125 14.6715 28.6508C14.742 29.0653 14.8389 29.4755 14.9191 29.8886C14.9946 30.276 15.0893 30.3549 15.4961 30.3445C15.3273 30.5853 15.1059 30.7298 14.8098 30.7893C14.1166 30.9284 13.4282 31.091 12.7377 31.2439C12.3434 30.8419 11.949 30.4393 11.5547 30.0373C11.6654 29.9176 11.7747 29.7965 11.8875 29.6782C12.3102 29.2361 12.7703 28.8314 13.1688 28.3672H13.1681Z" fill="#FDB280"/>
<path d="M13.168 28.3652C12.7688 28.8301 12.3088 29.2349 11.8867 29.6763C11.774 29.7939 11.6646 29.9156 11.554 30.0353C11.5373 30.0333 11.5214 30.0312 11.5048 30.0291C11.1215 29.6313 10.7383 29.2328 10.355 28.835C10.4449 28.1383 10.6712 27.47 10.7922 26.7809C10.8462 26.4751 11.006 26.2682 11.2371 26.0918C11.2316 26.4778 11.291 26.5567 11.6612 26.6342C12.0548 26.7172 12.4485 26.8065 12.8456 26.8708C13.0352 26.9013 13.112 26.9677 13.0995 27.1676C13.0822 27.4416 13.0982 27.7169 13.094 27.9916C13.0919 28.1231 13.1092 28.2476 13.1687 28.3652H13.168Z" fill="#FDCBAA"/>
<path d="M11.5048 30.0312C11.5214 30.0333 11.5374 30.0354 11.554 30.0375C11.9483 30.4394 12.3427 30.8414 12.737 31.2441C11.9116 31.4841 11.0655 31.6384 10.2305 31.839C10.0845 31.8743 9.91705 31.8736 9.83057 31.6965C10.42 31.1728 10.968 30.6083 11.5048 30.0312V30.0312Z" fill="#373737"/>
<path d="M11.5045 30.0288C10.9683 30.6058 10.4197 31.1704 9.83021 31.6941C9.70775 31.5993 9.71813 31.4637 9.7458 31.3405C9.92983 30.5242 10.1215 29.7092 10.3117 28.8942C10.3166 28.872 10.3394 28.854 10.3539 28.834C10.7372 29.2318 11.1205 29.6303 11.5038 30.0281L11.5045 30.0288Z" fill="#333333"/>
</svg>
