<svg width="18" height="17" viewBox="0 0 18 17" fill="none" xmlns="http://www.w3.org/2000/svg">
<path d="M0.599976 5.40001C0.699976 5.30001 0.799976 5.20001 0.899976 5.20001C1.79998 5.20001 2.69998 5.20001 3.59998 5.20001H3.69998C3.69998 5.40001 3.69998 5.60001 3.69998 5.70001C2.89998 5.70001 1.99998 5.70001 1.19998 5.70001C1.19998 6.10001 1.19998 6.50001 1.19998 7.00001C1.99998 7.00001 2.89998 7.00001 3.79998 7.00001C3.79998 7.20001 3.79998 7.40001 3.79998 7.60001C2.89998 7.60001 2.09998 7.60001 1.19998 7.60001C1.19998 10.5 1.19998 13.3 1.19998 16.2C4.79998 16.2 8.39998 16.2 12.1 16.2C12.1 15.3 12.1 14.5 12.1 13.6C12.3 13.6 12.5 13.6 12.7 13.6C12.7 13.6 12.7 13.7 12.7 13.8C12.7 14.7 12.7 15.5 12.7 16.4C12.7 16.7 12.6 16.8 12.3 16.8C8.49998 16.8 4.79998 16.8 0.999976 16.8C0.799976 16.8 0.699976 16.8 0.599976 16.6C0.599976 12.8 0.599976 9.10001 0.599976 5.40001Z" fill="#0000EE"/>
<path d="M4.89999 9.4C4.69999 9.4 4.49999 9.4 4.29999 9.4C4.29999 9.3 4.29999 9.3 4.29999 9.2C4.29999 6.8 4.29999 4.4 4.29999 2C4.29999 1.7 4.39999 1.6 4.69999 1.6C7.79999 1.6 11 1.6 14.1 1.6C14.2 1.6 14.3 1.6 14.4 1.4C14.8 0.800003 15.6 0.500003 16.3 0.800003C17 1.1 17.5 1.7 17.4 2.5C17.4 3.2 16.8 3.9 16.1 4.1H16C16 4.2 16 4.2 16 4.3C16 7.1 16 9.8 16 12.6C16 12.9 15.9 13 15.6 13C13.1 13 10.6 13 7.99999 13C7.99999 13 7.99999 13 7.89999 13C7.89999 12.8 7.89999 12.6 7.89999 12.4C10.4 12.4 12.9 12.4 15.5 12.4C15.5 9.6 15.5 6.8 15.5 4C15.3 4.1 15 4 14.8 4C11.6 4 8.29999 4 5.09999 4C4.99999 4 4.99999 4 4.89999 4C4.89999 5.8 4.89999 7.6 4.89999 9.4ZM4.89999 2.2C4.89999 2.6 4.89999 3 4.89999 3.4C8.09999 3.4 11.2 3.4 14.4 3.4C14.1 3 14.1 2.6 14.1 2.2C11 2.2 7.99999 2.2 4.89999 2.2ZM15.8 1.3C15.2 1.3 14.7 1.8 14.6 2.4C14.6 3 15.1 3.6 15.7 3.6C16.3 3.6 16.8 3.1 16.8 2.5C16.9 1.8 16.4 1.3 15.8 1.3Z" fill="#0000EE"/>
<path d="M2.19999 15.5C1.99999 15.3 1.89999 15.2 1.79999 15C3.19999 13.5 4.69999 12 6.19999 10.5C5.39999 10.5 4.59999 10.5 3.79999 10.5C3.79999 10.3 3.79999 10.1 3.79999 9.80002H3.89999C4.89999 9.80002 5.89999 9.80002 6.89999 9.80002C7.19999 9.80002 7.39999 9.90002 7.39999 10.2C7.39999 11.2 7.39999 12.1 7.39999 13.1C7.39999 13.2 7.39999 13.2 7.39999 13.3C7.19999 13.3 6.99999 13.3 6.69999 13.3C6.69999 12.5 6.69999 11.7 6.69999 11C6.69999 11 6.69999 11 6.59999 11C5.19999 12.5 3.69999 14 2.19999 15.5Z" fill="#0000EE"/>
<path d="M15.8 2.80002C15.7 3.00002 15.6 3.10002 15.4 3.20002C15.3 3.00002 15.1 2.90002 15 2.80002C15.1 2.70002 15.2 2.60002 15.4 2.50002C15.2 2.40002 15.1 2.30002 15 2.20002C15.2 2.00002 15.3 1.90002 15.4 1.80002C15.5 1.90002 15.6 2.00002 15.7 2.20002C15.8 2.00002 15.9 1.90002 16.1 1.80002C16.2 1.90002 16.4 2.10002 16.5 2.20002C16.4 2.30002 16.3 2.40002 16.1 2.50002C16.3 2.60002 16.4 2.70002 16.5 2.80002C16.3 3.00002 16.2 3.10002 16.1 3.20002C16 3.10002 15.9 3.00002 15.8 2.80002Z" fill="#0000EE"/>
</svg>
