<svg width="20" height="21" viewBox="0 0 20 21" fill="none" xmlns="http://www.w3.org/2000/svg">
<ellipse cx="10" cy="10.5" rx="10" ry="10.5" fill="#444444"/>
<path d="M8.25366 13.3242V13.2268C8.26449 12.1932 8.37272 11.3706 8.57837 10.759C8.78402 10.1475 9.07625 9.65232 9.45508 9.2735C9.8339 8.89467 10.2885 8.54561 10.8188 8.22632C11.1381 8.03149 11.425 7.80149 11.6793 7.53631C11.9337 7.26573 12.1339 6.95455 12.28 6.60278C12.4316 6.25102 12.5073 5.86137 12.5073 5.43384C12.5073 4.90348 12.3829 4.44348 12.1339 4.05383C11.885 3.66418 11.5521 3.36383 11.1354 3.15277C10.7187 2.94171 10.256 2.83618 9.74732 2.83618C9.30355 2.83618 8.87602 2.92818 8.46472 3.11218C8.05343 3.29618 7.70978 3.58571 7.43378 3.98077C7.15778 4.37583 6.99813 4.89266 6.95483 5.53125H4.90918C4.95247 4.61125 5.19059 3.82383 5.62354 3.169C6.06189 2.51418 6.63824 2.01359 7.3526 1.66723C8.07237 1.32088 8.87061 1.1477 9.74732 1.1477C10.6998 1.1477 11.5278 1.33712 12.2313 1.71594C12.9403 2.09477 13.4869 2.6143 13.8711 3.27453C14.2607 3.93477 14.4556 4.68701 14.4556 5.53125C14.4556 6.12654 14.3636 6.66502 14.1796 7.14667C14.001 7.62831 13.7412 8.05855 13.4003 8.43738C13.0647 8.8162 12.6589 9.15173 12.1826 9.44397C11.7064 9.74162 11.3249 10.0555 11.038 10.3856C10.7512 10.7103 10.5428 11.0973 10.413 11.5464C10.2831 11.9956 10.2127 12.5557 10.2019 13.2268V13.3242H8.25366ZM9.29273 18.1299C8.89225 18.1299 8.5486 17.9865 8.26178 17.6996C7.97496 17.4128 7.83154 17.0692 7.83154 16.6687C7.83154 16.2682 7.97496 15.9246 8.26178 15.6378C8.5486 15.3509 8.89225 15.2075 9.29273 15.2075C9.6932 15.2075 10.0368 15.3509 10.3237 15.6378C10.6105 15.9246 10.7539 16.2682 10.7539 16.6687C10.7539 16.9339 10.6863 17.1774 10.551 17.3993C10.4211 17.6212 10.2452 17.7998 10.0233 17.9351C9.80684 18.0649 9.56331 18.1299 9.29273 18.1299Z" fill="#CCCCCC"/>
<path d="M8.25366 13.3242H7.587V13.9909H8.25366V13.3242ZM8.25366 13.2268L7.587 13.2198V13.2268H8.25366ZM8.57837 10.759L7.94648 10.5465L7.94648 10.5465L8.57837 10.759ZM9.45508 9.2735L9.92648 9.7449L9.92648 9.7449L9.45508 9.2735ZM10.8188 8.22632L11.1627 8.79747L11.1661 8.79541L10.8188 8.22632ZM11.6793 7.53631L12.1605 7.99782L12.1651 7.99292L11.6793 7.53631ZM12.28 6.60278L11.6677 6.33901L11.6644 6.34704L12.28 6.60278ZM12.1339 4.05383L12.6957 3.69491L12.1339 4.05383ZM8.46472 3.11218L8.19248 2.50364L8.19248 2.50364L8.46472 3.11218ZM7.43378 3.98077L7.98028 4.36258L7.98028 4.36258L7.43378 3.98077ZM6.95483 5.53125V6.19792H7.57783L7.61997 5.57634L6.95483 5.53125ZM4.90918 5.53125L4.24325 5.49991L4.2104 6.19792H4.90918V5.53125ZM5.62354 3.169L5.06953 2.79814L5.06742 2.80133L5.62354 3.169ZM7.3526 1.66723L7.06352 1.0665L7.06175 1.06736L7.3526 1.66723ZM12.2313 1.71594L11.9153 2.30292L11.9171 2.30393L12.2313 1.71594ZM13.8711 3.27453L13.2949 3.60987L13.297 3.61337L13.8711 3.27453ZM14.1796 7.14667L13.5568 6.90874L13.5545 6.91489L14.1796 7.14667ZM13.4003 8.43738L12.9047 7.99139L12.9012 7.99535L13.4003 8.43738ZM12.1826 9.44397L11.8339 8.87573L11.8293 8.87864L12.1826 9.44397ZM11.038 10.3856L11.5377 10.827L11.5413 10.8229L11.038 10.3856ZM10.2019 13.2268L9.53524 13.2161V13.2268H10.2019ZM10.2019 13.3242V13.9909H10.8686V13.3242H10.2019ZM8.26178 17.6996L8.73319 17.2282L8.73318 17.2282L8.26178 17.6996ZM8.26178 15.6378L8.73318 16.1092L8.73319 16.1092L8.26178 15.6378ZM10.551 17.3993L9.98168 17.0522L9.97562 17.0625L10.551 17.3993ZM10.0233 17.9351L10.3663 18.5067L10.3704 18.5043L10.0233 17.9351ZM8.92033 13.3242V13.2268H7.587V13.3242H8.92033ZM8.92029 13.2338C8.93077 12.2333 9.03618 11.4892 9.21026 10.9715L7.94648 10.5465C7.70926 11.2519 7.5982 12.153 7.58703 13.2198L8.92029 13.2338ZM9.21026 10.9715C9.38973 10.4378 9.63381 10.0376 9.92648 9.7449L8.98367 8.80209C8.5187 9.26707 8.1783 9.85716 7.94648 10.5465L9.21026 10.9715ZM9.92648 9.7449C10.2616 9.40977 10.6717 9.09304 11.1627 8.79746L10.475 7.65517C9.90524 7.99818 9.40619 8.37957 8.98367 8.80209L9.92648 9.7449ZM11.1661 8.79541C11.5336 8.57118 11.8656 8.30521 12.1604 7.9978L11.1982 7.07483C10.9844 7.29777 10.7427 7.4918 10.4716 7.65722L11.1661 8.79541ZM12.1651 7.99292C12.4759 7.66224 12.7195 7.28259 12.8957 6.85852L11.6644 6.34704C11.5483 6.62651 11.3914 6.86921 11.1936 7.07971L12.1651 7.99292ZM12.8923 6.86653C13.0837 6.42228 13.174 5.94151 13.174 5.43384H11.8407C11.8407 5.78123 11.7794 6.07975 11.6678 6.33903L12.8923 6.86653ZM13.174 5.43384C13.174 4.79544 13.0228 4.20682 12.6957 3.69491L11.5721 4.41276C11.7429 4.68014 11.8407 5.01152 11.8407 5.43384H13.174ZM12.6957 3.69491C12.3819 3.20369 11.9586 2.8224 11.4367 2.55804L10.8342 3.7475C11.1457 3.90526 11.3881 4.12468 11.5721 4.41276L12.6957 3.69491ZM11.4367 2.55804C10.9185 2.29557 10.3512 2.16951 9.74732 2.16951V3.50285C10.1609 3.50285 10.519 3.58785 10.8342 3.7475L11.4367 2.55804ZM9.74732 2.16951C9.20825 2.16951 8.68807 2.28192 8.19248 2.50364L8.73697 3.72073C9.06397 3.57444 9.39885 3.50285 9.74732 3.50285V2.16951ZM8.19248 2.50364C7.6632 2.74042 7.22746 3.11203 6.88727 3.59897L7.98028 4.36258C8.1921 4.0594 8.44365 3.85195 8.73697 3.72073L8.19248 2.50364ZM6.88727 3.59897C6.52263 4.12091 6.33857 4.76519 6.28969 5.48615L7.61997 5.57634C7.65768 5.02012 7.79292 4.63076 7.98028 4.36258L6.88727 3.59897ZM6.95483 4.86458H4.90918V6.19792H6.95483V4.86458ZM5.57511 5.56259C5.61375 4.74153 5.82364 4.07513 6.17965 3.53668L5.06742 2.80133C4.55754 3.57253 4.2912 4.48096 4.24325 5.49991L5.57511 5.56259ZM6.17753 3.53986C6.54954 2.98415 7.03474 2.56224 7.64345 2.26711L7.06175 1.06736C6.24175 1.46494 5.57424 2.04421 5.06954 2.79815L6.17753 3.53986ZM7.64167 2.26797C8.26274 1.96911 8.96079 1.81437 9.74732 1.81437V0.481036C8.78042 0.481036 7.88199 0.672651 7.06353 1.0665L7.64167 2.26797ZM9.74732 1.81437C10.6106 1.81437 11.3259 1.98558 11.9153 2.30292L12.5474 1.12896C11.7297 0.688653 10.789 0.481036 9.74732 0.481036V1.81437ZM11.9171 2.30393C12.523 2.62765 12.9762 3.06221 13.2949 3.60986L14.4473 2.93921C13.9975 2.16638 13.3576 1.56188 12.5455 1.12795L11.9171 2.30393ZM13.297 3.61337C13.62 4.16078 13.7889 4.79378 13.7889 5.53125H15.1222C15.1222 4.58024 14.9015 3.70877 14.4452 2.9357L13.297 3.61337ZM13.7889 5.53125C13.7889 6.05762 13.7077 6.51384 13.5568 6.90875L14.8023 7.38458C15.0195 6.81619 15.1222 6.19547 15.1222 5.53125H13.7889ZM13.5545 6.91489C13.4049 7.31824 13.1889 7.67566 12.9047 7.9914L13.8958 8.88335C14.2935 8.44144 14.597 7.93839 14.8046 7.37844L13.5545 6.91489ZM12.9012 7.99535C12.6136 8.32009 12.2599 8.61438 11.8339 8.87575L12.5313 10.0122C13.0578 9.68908 13.5159 9.31231 13.8993 8.8794L12.9012 7.99535ZM11.8293 8.87864C11.3121 9.2019 10.8752 9.55653 10.5348 9.94837L11.5413 10.8229C11.7745 10.5545 12.1007 10.2813 12.536 10.0093L11.8293 8.87864ZM10.5384 9.94426C10.1812 10.3486 9.92761 10.825 9.77253 11.3613L11.0534 11.7316C11.1581 11.3696 11.3212 11.072 11.5377 10.827L10.5384 9.94426ZM9.77253 11.3613C9.62084 11.8859 9.54673 12.5092 9.53532 13.2161L10.8685 13.2376C10.8787 12.6022 10.9453 12.1054 11.0534 11.7316L9.77253 11.3613ZM9.53524 13.2268V13.3242H10.8686V13.2268H9.53524ZM10.2019 12.6576H8.25366V13.9909H10.2019V12.6576ZM9.29273 17.4632C9.07161 17.4632 8.89679 17.3919 8.73319 17.2282L7.79038 18.1711C8.20042 18.5811 8.7129 18.7965 9.29273 18.7965V17.4632ZM8.73318 17.2282C8.56958 17.0646 8.49821 16.8898 8.49821 16.6687H7.16488C7.16488 17.2485 7.38034 17.761 7.79038 18.1711L8.73318 17.2282ZM8.49821 16.6687C8.49821 16.4476 8.56958 16.2728 8.73318 16.1092L7.79038 15.1664C7.38034 15.5764 7.16488 16.0889 7.16488 16.6687H8.49821ZM8.73319 16.1092C8.89679 15.9456 9.07161 15.8742 9.29273 15.8742V14.5409C8.7129 14.5409 8.20042 14.7563 7.79038 15.1664L8.73319 16.1092ZM9.29273 15.8742C9.51384 15.8742 9.68866 15.9456 9.85227 16.1092L10.7951 15.1664C10.385 14.7563 9.87255 14.5409 9.29273 14.5409V15.8742ZM9.85227 16.1092C10.0159 16.2728 10.0872 16.4476 10.0872 16.6687H11.4206C11.4206 16.0889 11.2051 15.5764 10.7951 15.1664L9.85227 16.1092ZM10.0872 16.6687C10.0872 16.8141 10.052 16.9371 9.98177 17.0522L11.1202 17.7464C11.3206 17.4177 11.4206 17.0537 11.4206 16.6687H10.0872ZM9.97562 17.0625C9.90206 17.1882 9.80505 17.2873 9.67624 17.3659L10.3704 18.5043C10.6853 18.3122 10.9401 18.0542 11.1263 17.7361L9.97562 17.0625ZM9.68032 17.3634C9.57492 17.4266 9.4515 17.4632 9.29273 17.4632V18.7965C9.67513 18.7965 10.0388 18.7032 10.3663 18.5067L9.68032 17.3634Z" fill="#CCCCCC"/>
</svg>
