<svg xmlns="http://www.w3.org/2000/svg" width="72.078" height="59.827" viewBox="0 0 72.078 59.827">
  <g id="Group_20" data-name="Group 20" transform="translate(1.5 1.5)">
    <path id="Path_1" data-name="Path 1" d="M100.768,150.069H76.416a5.1,5.1,0,0,1-1.964-.373,2.513,2.513,0,0,1-1.77-2.316V102.868a4.589,4.589,0,0,1,.4-1.91,3.265,3.265,0,0,1,2.929-2.17h26.62a5.265,5.265,0,0,1,3.636,1.44l7.2,6.879a4.808,4.808,0,0,1,1.506,3.476v21.065" transform="translate(-72.682 -98.788)" fill="none" stroke="#000" stroke-linecap="round" stroke-linejoin="round" stroke-width="3"/>
    <line id="Line_1" data-name="Line 1" x2="24.077" transform="translate(8.054 15.552)" fill="none" stroke="#000" stroke-linecap="round" stroke-linejoin="round" stroke-width="3"/>
    <line id="Line_2" data-name="Line 2" x2="24.077" transform="translate(8.054 24.541)" fill="none" stroke="#000" stroke-linecap="round" stroke-linejoin="round" stroke-width="3"/>
    <line id="Line_3" data-name="Line 3" x2="24.077" transform="translate(8.054 31.685)" fill="none" stroke="#000" stroke-linecap="round" stroke-linejoin="round" stroke-width="3"/>
    <g id="Group_1" data-name="Group 1" transform="translate(54.619 34.738)">
      <path id="Path_2" data-name="Path 2" d="M309.665,268.474l.069-.134a.621.621,0,0,1,.651-.328.609.609,0,0,1,.5.525,1.4,1.4,0,0,1,.013.186q0,2.867,0,5.735a1.079,1.079,0,0,1-.036.292.6.6,0,0,1-.524.424.615.615,0,0,1-.6-.332l-.069-.133Z" transform="translate(-309.665 -263.742)"/>
      <path id="Path_3" data-name="Path 3" d="M335.222,257.363q0-3.584,0-7.168a.622.622,0,0,1,.517-.675.611.611,0,0,1,.7.492,1.5,1.5,0,0,1,.016.233q0,7.113,0,14.226c0,.4-.162.646-.481.721a.614.614,0,0,1-.749-.553c-.005-.062,0-.125,0-.187Q335.222,260.908,335.222,257.363Z" transform="translate(-329.331 -249.511)"/>
      <path id="Path_4" data-name="Path 4" d="M323.676,265.667q0,2.346,0,4.691a.612.612,0,0,1-.657.662.6.6,0,0,1-.562-.513,1.948,1.948,0,0,1-.012-.249q0-4.606,0-9.211a1.245,1.245,0,0,1,.031-.324.6.6,0,0,1,.658-.43.613.613,0,0,1,.538.542,1.918,1.918,0,0,1,0,.2Q323.677,263.353,323.676,265.667Z" transform="translate(-319.499 -257.806)"/>
      <path id="Path_5" data-name="Path 5" d="M349.229,269.382q0,1.8,0,3.6a.611.611,0,0,1-.7.646.6.6,0,0,1-.518-.5,1.818,1.818,0,0,1-.014-.248q0-3.49,0-6.98a1.239,1.239,0,0,1,.036-.338.593.593,0,0,1,.649-.418.607.607,0,0,1,.543.552c.006.062,0,.124,0,.187Q349.23,267.629,349.229,269.382Z" transform="translate(-339.161 -261.533)"/>
      <path id="Path_6" data-name="Path 6" d="M360.775,271.576c0-.976,0-1.953,0-2.929a.61.61,0,0,1,.815-.606.578.578,0,0,1,.405.5,1.811,1.811,0,0,1,.01.218q0,2.828,0,5.655a1.254,1.254,0,0,1-.031.324.612.612,0,0,1-1.2-.159c-.008-.452,0-.9,0-1.355Q360.775,272.4,360.775,271.576Z" transform="translate(-348.995 -263.741)"/>
      <path id="Path_7" data-name="Path 7" d="M374.77,278.185c0,.317,0,.633,0,.95a.624.624,0,0,1-.6.66.61.61,0,0,1-.625-.62q-.019-1,0-1.993a.607.607,0,0,1,.631-.613.622.622,0,0,1,.6.651C374.772,277.542,374.77,277.864,374.77,278.185Z" transform="translate(-358.811 -270.332)"/>
    </g>
    <path id="Path_8" data-name="Path 8" d="M221.913,231.794q0,6.706,0,13.412a2.032,2.032,0,0,1-1.831,2.2,2.111,2.111,0,0,1-1.626-.576c-3.328-2.762-6.673-5.5-9.98-8.293a2.778,2.778,0,0,0-2.054-.751c-1.516.066-3.037.023-4.557.017a2.02,2.02,0,0,1-2.189-2.19q-.007-3.842,0-7.683a2.037,2.037,0,0,1,2.188-2.2c1.78-.006,3.559.007,5.339-.012a1.124,1.124,0,0,0,.653-.236q5.292-4.36,10.566-8.742a2.042,2.042,0,0,1,3.092.213,2.293,2.293,0,0,1,.4,1.475Q221.909,225.11,221.913,231.794Z" transform="translate(-170.404 -189.089)" fill="#fecf64"/>
  </g>
</svg>
