<?xml version="1.0" encoding="utf-8"?>
<!-- Generator: Adobe Illustrator 26.4.1, SVG Export Plug-In . SVG Version: 6.00 Build 0)  -->
<svg version="1.1" id="Layer_1" xmlns="http://www.w3.org/2000/svg" xmlns:xlink="http://www.w3.org/1999/xlink" x="0px" y="0px"
	 viewBox="0 0 18 18" style="enable-background:new 0 0 18 18;" xml:space="preserve">
<style type="text/css">
	.st0{fill:#FFFFFF;}
</style>
<g>
	<path class="st0" d="M2,9.4c0-0.3,0-0.5,0-0.8c0,0,0-0.1,0-0.1c0.1-1.1,0.4-2.1,1-3c1.3-2.1,3.2-3.2,5.7-3.4c1.4-0.1,2.7,0.2,3.9,1
		c2.1,1.3,3.2,3.2,3.4,5.7c0.1,1.3-0.2,2.5-0.8,3.6c-1.1,2-2.7,3.2-4.9,3.6c-0.3,0.1-0.5,0.1-0.8,0.1c-0.3,0-0.5,0-0.8,0
		c0,0-0.1,0-0.1,0c-1-0.1-1.9-0.3-2.8-0.8c-2-1.1-3.2-2.7-3.6-4.9C2.1,9.9,2.1,9.7,2,9.4z M9,3.2C5.8,3.2,3.2,5.8,3.2,9
		c0,3.2,2.6,5.8,5.8,5.8c3.2,0,5.8-2.6,5.8-5.8C14.8,5.8,12.2,3.2,9,3.2z"/>
	<path class="st0" d="M11,9c0,0.6,0,1.2,0,1.8c0,0.2,0,0.2-0.2,0.2c-1.2,0-2.3,0-3.5,0C7,11,7,11,7,10.8c0-1.2,0-2.4,0-3.5
		C7,7,7,7,7.3,7c1.2,0,2.3,0,3.5,0C11,7,11,7,11,7.3C11,7.8,11,8.4,11,9z"/>
</g>
</svg>
