<svg width="22" height="29" viewBox="0 0 22 29" fill="none" xmlns="http://www.w3.org/2000/svg">
<path d="M7.40156 21.0349C9.4075 21.0349 11.4227 21.0349 13.4565 21.0349C13.4565 20.7191 13.4658 20.4127 13.4565 20.0969C13.438 19.6604 13.7444 19.4375 14.023 19.4375C14.3666 19.4283 14.5988 19.7069 14.5988 20.1155C14.5988 20.5891 14.5988 21.072 14.5988 21.5456C14.5988 21.9635 14.3666 22.1957 13.958 22.1957C11.5992 22.1957 9.23105 22.1957 6.87221 22.1957C6.46359 22.1957 6.23142 21.9635 6.23142 21.5456C6.23142 21.0349 6.22214 20.5334 6.23142 20.0226C6.23142 19.7161 6.44502 19.484 6.73291 19.4375C7.00223 19.4004 7.27154 19.5768 7.34584 19.8462C7.3737 19.939 7.36441 20.0505 7.36441 20.1433C7.36441 20.4219 7.36441 20.7005 7.3737 20.9884C7.3737 20.9977 7.39227 21.0163 7.40156 21.0349Z" fill="#D36438"/>
<path d="M6.4729 15.4811C7.03011 15.4811 7.55017 15.4811 8.07023 15.4811C8.18167 15.4811 8.21881 15.4625 8.21881 15.3418C8.21881 13.9209 8.21881 12.4907 8.21881 11.0699C8.21881 10.717 8.37669 10.5498 8.73887 10.5498C9.59325 10.5498 10.4476 10.5498 11.2927 10.5498C11.5713 10.5498 11.8499 10.5498 12.1285 10.5498C12.2586 10.5498 12.3886 10.5777 12.5 10.6612C12.6115 10.7448 12.6486 10.8563 12.6486 10.9956C12.6486 12.4443 12.6486 13.893 12.6486 15.3418C12.6486 15.4532 12.6672 15.4904 12.7879 15.4904C13.2894 15.4811 13.8002 15.4904 14.3016 15.4904C14.3202 15.4904 14.3388 15.4811 14.3574 15.4997C14.3481 15.5461 14.3109 15.5647 14.2831 15.5925C13.0294 16.9763 11.7756 18.3507 10.5219 19.7344C10.4476 19.8087 10.4198 19.8273 10.3362 19.7437C9.10106 18.3786 7.86592 17.0227 6.63078 15.6668C6.58434 15.6018 6.53791 15.5554 6.4729 15.4811Z" fill="#D36438"/>
<path d="M13.6052 0.00928451C14.5803 0.176446 15.2675 0.807945 15.9547 1.45802C17.4592 2.89747 18.9729 4.32763 20.4867 5.74851C21.2203 6.43573 21.5732 7.27154 21.5732 8.27451C21.5639 13.9023 21.5732 19.5301 21.5639 25.1579C21.5639 26.6716 20.6538 27.8696 19.2237 28.2132C18.9636 28.2782 18.6943 28.2968 18.4343 28.2968C13.3359 28.3061 8.2467 28.3061 3.14826 28.2968C1.31877 28.2968 0.0093361 26.9781 0.0093361 25.1393C0.0093361 17.8213 0.0186223 10.5126 4.87654e-05 3.19465C-0.00923801 1.37444 1.30948 0.185732 2.59106 0.0371437C2.61892 0.0371437 2.63749 0.00928677 2.66535 0C6.30577 0.00928677 9.95547 0.00928451 13.6052 0.00928451ZM12.9458 1.67162C12.8065 1.67162 12.7136 1.67162 12.6208 1.67162C9.48184 1.67162 6.33363 1.67162 3.1947 1.67162C2.22887 1.67162 1.66238 2.22882 1.66238 3.19465C1.66238 10.5126 1.66238 17.8213 1.66238 25.1393C1.66238 26.1051 2.22887 26.6623 3.1947 26.6623C8.25599 26.6623 13.3173 26.6623 18.3693 26.6623C19.3537 26.6623 19.9016 26.1051 19.9016 25.1207C19.9016 19.623 19.9016 14.1159 19.9016 8.61812C19.9016 8.52526 19.9016 8.4231 19.9016 8.31166C19.7623 8.31166 19.6601 8.31166 19.5673 8.31166C18.0628 8.31166 16.5677 8.31166 15.0632 8.31166C13.7259 8.31166 12.9365 7.52229 12.9365 6.1757C12.9365 4.78269 12.9365 3.38967 12.9365 2.00594C12.9458 1.8945 12.9458 1.79235 12.9458 1.67162ZM14.5989 2.47956C14.5989 3.80757 14.5989 5.06129 14.5989 6.31501C14.5989 6.58432 14.7567 6.64933 14.9982 6.64933C16.2705 6.64933 17.5428 6.64933 18.8058 6.64933C18.8429 6.64933 18.8893 6.64004 18.9822 6.63075C17.5149 5.23774 16.0847 3.88187 14.5989 2.47956Z" fill="black"/>
</svg>
