<svg width="22" height="29" viewBox="0 0 22 29" fill="none" xmlns="http://www.w3.org/2000/svg">
<path d="M7.40156 21.0352C9.4075 21.0352 11.4227 21.0352 13.4565 21.0352C13.4565 20.7195 13.4658 20.413 13.4565 20.0973C13.438 19.6608 13.7444 19.4379 14.023 19.4379C14.3666 19.4286 14.5988 19.7072 14.5988 20.1158C14.5988 20.5895 14.5988 21.0724 14.5988 21.546C14.5988 21.9639 14.3666 22.1961 13.958 22.1961C11.5992 22.1961 9.23105 22.1961 6.87221 22.1961C6.46359 22.1961 6.23142 21.9639 6.23142 21.546C6.23142 21.0352 6.22214 20.5337 6.23142 20.023C6.23142 19.7165 6.44502 19.4843 6.73291 19.4379C7.00223 19.4008 7.27154 19.5772 7.34584 19.8465C7.3737 19.9394 7.36441 20.0508 7.36441 20.1437C7.36441 20.4223 7.36441 20.7009 7.3737 20.9888C7.3737 20.9981 7.39227 21.0167 7.40156 21.0352Z" fill="#D36438"/>
<path d="M6.47302 15.4812C7.03023 15.4812 7.55029 15.4812 8.07035 15.4812C8.18179 15.4812 8.21893 15.4626 8.21893 15.3419C8.21893 13.921 8.21893 12.4909 8.21893 11.07C8.21893 10.7171 8.37681 10.5499 8.73899 10.5499C9.59338 10.5499 10.4478 10.5499 11.2929 10.5499C11.5715 10.5499 11.8501 10.5499 12.1287 10.5499C12.2587 10.5499 12.3887 10.5778 12.5001 10.6614C12.6116 10.745 12.6487 10.8564 12.6487 10.9957C12.6487 12.4444 12.6487 13.8932 12.6487 15.3419C12.6487 15.4533 12.6673 15.4905 12.788 15.4905C13.2895 15.4812 13.8003 15.4905 14.3018 15.4905C14.3203 15.4905 14.3389 15.4812 14.3575 15.4998C14.3482 15.5462 14.3111 15.5648 14.2832 15.5926C13.0295 16.9764 11.7758 18.3508 10.5221 19.7345C10.4478 19.8088 10.4199 19.8274 10.3363 19.7438C9.10118 18.3787 7.86604 17.0228 6.6309 15.6669C6.58446 15.6019 6.53803 15.5555 6.47302 15.4812Z" fill="#D36438"/>
<path d="M13.6052 0.00928451C14.5803 0.176446 15.2675 0.807945 15.9547 1.45802C17.4592 2.89747 18.9729 4.32763 20.4867 5.74851C21.2203 6.43573 21.5732 7.27154 21.5732 8.27451C21.5639 13.9023 21.5732 19.5301 21.5639 25.1579C21.5639 26.6716 20.6538 27.8696 19.2237 28.2132C18.9636 28.2782 18.6943 28.2968 18.4343 28.2968C13.3359 28.3061 8.2467 28.3061 3.14826 28.2968C1.31877 28.2968 0.00933611 26.9781 0.00933611 25.1393C0.00933611 17.8213 0.0186223 10.5126 4.87654e-05 3.19465C-0.00923801 1.37444 1.30948 0.185732 2.59106 0.0371437C2.61892 0.0371437 2.63749 0.00928677 2.66535 0C6.30577 0.00928677 9.95547 0.00928451 13.6052 0.00928451ZM12.9458 1.67162C12.8065 1.67162 12.7136 1.67162 12.6208 1.67162C9.48185 1.67162 6.33363 1.67162 3.1947 1.67162C2.22887 1.67162 1.66238 2.22882 1.66238 3.19465C1.66238 10.5126 1.66238 17.8213 1.66238 25.1393C1.66238 26.1051 2.22887 26.6623 3.1947 26.6623C8.25599 26.6623 13.3173 26.6623 18.3693 26.6623C19.3537 26.6623 19.9016 26.1051 19.9016 25.1207C19.9016 19.623 19.9016 14.1159 19.9016 8.61812C19.9016 8.52526 19.9016 8.4231 19.9016 8.31166C19.7623 8.31166 19.6601 8.31166 19.5673 8.31166C18.0628 8.31166 16.5677 8.31166 15.0632 8.31166C13.7259 8.31166 12.9365 7.52229 12.9365 6.1757C12.9365 4.78269 12.9365 3.38967 12.9365 2.00594C12.9458 1.8945 12.9458 1.79235 12.9458 1.67162ZM14.5989 2.47956C14.5989 3.80757 14.5989 5.06129 14.5989 6.31501C14.5989 6.58432 14.7567 6.64933 14.9982 6.64933C16.2705 6.64933 17.5428 6.64933 18.8058 6.64933C18.8429 6.64933 18.8893 6.64004 18.9822 6.63075C17.5149 5.23774 16.0847 3.88187 14.5989 2.47956Z" fill="black"/>
</svg>
