<svg width="107" height="82" viewBox="0 0 107 82" fill="none" xmlns="http://www.w3.org/2000/svg">
<path d="M40.3838 71.6571H7.48252C6.57984 71.6571 5.67715 71.5015 4.83672 71.1591C3.68502 70.6922 2.43994 69.7584 2.43994 68.0464V7.90891C2.43994 7.03735 2.6267 6.13466 3.00023 5.32536C3.59164 4.01802 4.77447 2.39941 6.95336 2.39941H42.9051C44.7416 2.39941 46.5159 3.08421 47.8232 4.32929L57.5348 13.6052C58.8422 14.8502 59.5581 16.5311 59.5581 18.3053V46.7555" stroke="#FFEBAB" stroke-width="3.11271" stroke-miterlimit="10" stroke-linecap="round" stroke-linejoin="round"/>
<path d="M13.3037 23.4092H45.8315" stroke="white" stroke-width="2.17889" stroke-miterlimit="10" stroke-linecap="round" stroke-linejoin="round"/>
<path d="M13.3037 35.5527H45.8315" stroke="white" stroke-width="2.17889" stroke-miterlimit="10" stroke-linecap="round" stroke-linejoin="round"/>
<path d="M13.3037 45.2012H45.8315" stroke="white" stroke-width="2.17889" stroke-miterlimit="10" stroke-linecap="round" stroke-linejoin="round"/>
<path d="M77.457 54.2594C77.4882 54.166 77.5504 54.1037 77.5815 54.0103C77.7994 53.5746 78.2975 53.3255 78.7644 53.4189C79.2624 53.5123 79.6048 53.8858 79.6671 54.3839C79.6671 54.5084 79.6982 54.6018 79.6982 54.7263C79.6982 58.2125 79.6982 61.6987 79.6982 65.185C79.6982 65.3717 79.6671 65.5585 79.6359 65.7141C79.5114 66.1499 79.1068 66.4612 78.671 66.4923C78.2041 66.5234 77.7683 66.3055 77.5815 65.9009C77.5504 65.8075 77.4882 65.7452 77.457 65.6519C77.457 61.8232 77.457 58.0569 77.457 54.2594Z" fill="white"/>
<path d="M88.1963 59.9559C88.1963 55.5981 88.1963 51.2403 88.1963 46.8825C88.1963 46.1977 88.5387 45.7619 89.1301 45.6374C89.7215 45.544 90.3129 45.9487 90.4063 46.5401C90.4374 46.6646 90.4374 46.8202 90.4374 46.9759C90.4374 55.6292 90.4374 64.2825 90.4374 72.9359C90.4374 73.6829 90.1262 74.1187 89.5659 74.2432C88.9122 74.3988 88.2585 73.9319 88.1963 73.2471C88.1963 73.1226 88.1963 73.0292 88.1963 72.9047C88.1963 68.5781 88.1963 64.2514 88.1963 59.9559Z" fill="white"/>
<path d="M85.0836 59.9594C85.0836 62.8231 85.0836 65.6556 85.0836 68.5193C85.0836 69.2664 84.5855 69.7644 83.8696 69.7333C83.3716 69.7021 82.9047 69.2975 82.8424 68.7995C82.8113 68.6438 82.8113 68.4882 82.8113 68.3326C82.8113 62.7297 82.8113 57.1268 82.8113 51.5239C82.8113 51.3372 82.8113 51.1193 82.8735 50.9325C83.0292 50.4034 83.5272 50.0921 84.0875 50.1544C84.5855 50.1855 85.0213 50.6213 85.0524 51.1504C85.0524 51.2749 85.0524 51.3994 85.0524 51.5239C85.0836 54.3254 85.0836 57.1579 85.0836 59.9594Z" fill="white"/>
<path d="M95.8224 59.9281C95.8224 62.107 95.8224 64.3171 95.8224 66.496C95.8224 67.243 95.2622 67.7722 94.5462 67.6788C94.0482 67.6165 93.6747 67.243 93.6124 66.745C93.5813 66.5893 93.5813 66.4337 93.5813 66.2781C93.5813 62.0448 93.5813 57.7804 93.5813 53.5471C93.5813 53.3292 93.5813 53.1113 93.6435 52.9246C93.7992 52.3954 94.2972 52.1153 94.8264 52.1775C95.3555 52.2398 95.7602 52.6444 95.8224 53.1736C95.8224 53.2981 95.8224 53.3915 95.8224 53.516C95.8224 55.6949 95.8224 57.8115 95.8224 59.9281Z" fill="white"/>
<path d="M98.9355 59.9249C98.9355 58.1507 98.9355 56.3764 98.9355 54.5711C98.9355 53.7306 99.6826 53.2015 100.43 53.4505C100.865 53.6061 101.114 53.9174 101.177 54.3843C101.208 54.5088 101.208 54.6333 101.208 54.789C101.208 58.2129 101.208 61.668 101.208 65.092C101.208 65.2788 101.208 65.4967 101.146 65.6834C100.99 66.2126 100.492 66.5239 99.9316 66.4616C99.4025 66.3994 98.9667 65.9324 98.9355 65.3722C98.9355 64.5629 98.9355 63.7224 98.9355 62.9131C98.9355 61.9171 98.9355 60.921 98.9355 59.9249Z" fill="white"/>
<path d="M106.561 59.9557C106.561 60.5471 106.561 61.1074 106.561 61.6988C106.561 62.3836 106.094 62.8817 105.471 62.9128C104.849 62.9439 104.351 62.4459 104.32 61.7922C104.289 60.5783 104.289 59.3643 104.32 58.1504C104.32 57.4656 104.849 56.9987 105.471 57.0298C106.094 57.0609 106.561 57.5589 106.561 58.2126C106.561 58.7729 106.561 59.3643 106.561 59.9557Z" fill="white"/>
<path d="M72.0095 60.0768C72.0095 66.1154 72.0095 72.1541 72.0095 78.1927C72.0095 79.8425 71.0446 80.9942 69.5505 81.1498C68.7101 81.2432 67.9941 80.9008 67.3405 80.3716C62.8582 76.6364 58.3136 72.9323 53.8625 69.1659C53.022 68.45 52.2127 68.1076 51.0922 68.1387C49.0378 68.2321 46.9834 68.1698 44.929 68.1698C43.0925 68.1698 41.9719 67.0493 41.9719 65.2128C41.9719 61.7577 41.9719 58.3026 41.9719 54.8475C41.9719 53.011 43.0925 51.8904 44.929 51.8593C47.3258 51.8593 49.7226 51.8592 52.1505 51.8281C52.4617 51.8281 52.8041 51.7036 53.022 51.5169C57.7845 47.5948 62.5469 43.6417 67.2782 39.7197C68.7101 38.5369 70.4221 38.6614 71.4492 39.9998C71.9162 40.5913 71.9784 41.2761 71.9784 41.992C72.0095 48.0306 72.0095 54.0693 72.0095 60.0768Z" fill="#FFEBAB"/>
</svg>
