<svg width="22" height="24" viewBox="0 0 22 24" fill="none" xmlns="http://www.w3.org/2000/svg">
<rect width="22" height="24" fill="#444444"/>
<circle cx="11" cy="11" r="10" fill="#444444" stroke="#6BFF21" stroke-width="2"/>
<path d="M16.5973 6.5373L16.5973 6.53732C16.9071 6.85573 16.9073 7.36977 16.5973 7.68825L16.5973 6.5373ZM16.5973 6.5373C16.2843 6.21574 15.7746 6.21574 15.4617 6.5373L15.4617 6.5373L8.46342 13.7285L5.86334 11.0567L5.86332 11.0567C5.5504 10.7352 5.04076 10.7352 4.72782 11.0567L4.72779 11.0567C4.41786 11.3752 4.41786 11.8892 4.72779 12.2077L4.72779 12.2077L7.89561 15.4627C8.20852 15.7844 8.7185 15.7841 9.0312 15.4628C9.03121 15.4628 9.03121 15.4628 9.03121 15.4628L16.5973 7.68826L16.5973 6.5373Z" fill="#6BFF21" stroke="#6BFF21" stroke-width="0.407747"/>
</svg>
