<svg width="21" height="20" viewBox="0 0 21 20" fill="none" xmlns="http://www.w3.org/2000/svg">
<path d="M11.2194 16.2499C13.849 16.2499 15.4797 14.8912 15.4797 12.7212C15.4797 11.0887 14.2511 9.86742 12.5779 9.73867V9.66992C13.2187 9.57334 13.8039 9.25069 14.2279 8.76018C14.6519 8.26967 14.8869 7.6436 14.8904 6.99492C14.8904 5.10742 13.4395 3.91992 11.127 3.91992H5.7666V16.2499H11.2194ZM8.34503 5.84242H10.4627C11.6652 5.84242 12.3569 6.40617 12.3569 7.39742C12.3569 8.43992 11.5715 9.04742 10.1968 9.04742H8.34503V5.84117V5.84242ZM8.34503 14.3274V10.7474H10.5052C12.0248 10.7474 12.8526 11.3624 12.8526 12.5162C12.8526 13.6949 12.0497 14.3274 10.5651 14.3274H8.34379H8.34503Z" fill="#333333"/>
</svg>
