<svg width="39" height="38" viewBox="0 0 39 38" fill="none" xmlns="http://www.w3.org/2000/svg">
<path d="M38.0221 19.2872C37.7893 29.6481 29.4871 37.965 19.1715 37.7913C8.92481 37.6199 0.732668 29.0547 0.948251 18.4938C1.16383 8.0362 9.61468 -0.234495 19.926 0.00507586C30.0757 0.242449 38.2053 8.80986 38.0221 19.2872ZM20.7172 11.8825C20.8681 12.0232 20.9608 12.1067 21.0492 12.1946C21.7068 12.8628 22.3578 13.5331 23.0175 14.1969C23.5694 14.7508 24.3002 14.775 24.8112 14.2694C25.3329 13.7507 25.3178 12.9881 24.7573 12.4144C23.3128 10.9352 21.8663 9.45823 20.4132 7.98784C19.829 7.39661 19.1262 7.4032 18.5398 7.99883C17.0976 9.46263 15.6596 10.9286 14.2239 12.399C13.6569 12.9793 13.6245 13.7266 14.1376 14.254C14.6507 14.7837 15.3902 14.7596 15.9572 14.1881C16.6255 13.5156 17.2873 12.8342 17.9535 12.1573C18.0289 12.0803 18.1151 12.0144 18.2445 11.9001C18.2445 12.0979 18.2445 12.2276 18.2445 12.3551C18.2445 14.2848 18.2445 16.2146 18.2445 18.1443C18.2445 19.7202 18.2402 21.2939 18.2467 22.8698C18.251 23.6962 18.8718 24.2677 19.6458 24.1754C20.2796 24.1006 20.7172 23.549 20.7172 22.8083C20.7194 19.329 20.7172 15.8519 20.7172 12.3726C20.7172 12.2364 20.7172 12.0979 20.7172 11.8825ZM12.9735 25.1798C12.9541 25.138 12.9325 25.1161 12.9325 25.0919C12.9282 24.4743 12.9304 23.8589 12.9217 23.2412C12.9196 23.0193 12.926 22.7885 12.8721 22.5797C12.7148 21.9841 12.1176 21.5928 11.5441 21.6763C10.9082 21.7709 10.4641 22.272 10.4555 22.9533C10.4425 24.0677 10.449 25.1842 10.4512 26.2985C10.4533 27.2063 10.9513 27.7184 11.8352 27.7184C16.9316 27.7206 22.0301 27.7206 27.1265 27.7184C28.0147 27.7184 28.5063 27.2107 28.5106 26.2985C28.5149 25.2479 28.5127 24.1995 28.5106 23.1489C28.5084 22.2588 28.0039 21.6544 27.2602 21.6676C26.6479 21.6785 25.9818 22.1709 26.0314 23.127C26.0659 23.8039 26.0378 24.4831 26.0378 25.1798C21.6529 25.1798 17.3088 25.1798 12.9735 25.1798Z" fill="#636363"/>
<path d="M20.7173 11.8825C20.7173 12.0979 20.7173 12.2364 20.7173 12.3726C20.7173 15.8519 20.7173 19.329 20.7173 22.8082C20.7173 23.5489 20.2797 24.1006 19.6459 24.1753C18.8719 24.2654 18.251 23.694 18.2467 22.8698C18.2403 21.2939 18.2446 19.7202 18.2446 18.1443C18.2446 16.2145 18.2446 14.2848 18.2446 12.355C18.2446 12.2254 18.2446 12.0979 18.2446 11.9001C18.1152 12.0122 18.029 12.0803 17.9535 12.1572C17.2874 12.8342 16.6255 13.5133 15.9572 14.1881C15.3881 14.7595 14.6508 14.7837 14.1377 14.254C13.6246 13.7265 13.6548 12.9792 14.2239 12.399C15.6597 10.9308 17.0977 9.46261 18.5399 7.99881C19.1285 7.40318 19.8312 7.39659 20.4133 7.98782C21.8642 9.46041 23.3129 10.9352 24.7573 12.4144C25.3178 12.988 25.3329 13.7507 24.8112 14.2694C24.3003 14.7771 23.5695 14.7529 23.0176 14.1969C22.3579 13.5331 21.7047 12.8606 21.0493 12.1946C20.9609 12.1067 20.8682 12.0254 20.7173 11.8825Z" fill="white"/>
<path d="M12.9734 25.1798C17.3088 25.1798 21.6528 25.1798 26.0399 25.1798C26.0399 24.4831 26.068 23.8039 26.0335 23.127C25.9839 22.1731 26.65 21.6786 27.2623 21.6676C28.006 21.6544 28.5105 22.2566 28.5127 23.149C28.5148 24.1996 28.5148 25.248 28.5127 26.2986C28.5084 27.2129 28.0168 27.7184 27.1286 27.7184C22.0322 27.7206 16.9337 27.7206 11.8373 27.7184C10.9534 27.7184 10.4554 27.2063 10.4533 26.2986C10.4489 25.1842 10.4425 24.0677 10.4576 22.9534C10.4662 22.272 10.9103 21.7709 11.5463 21.6764C12.1197 21.5929 12.7169 21.9841 12.8743 22.5797C12.9303 22.7907 12.9217 23.0215 12.9238 23.2413C12.9325 23.8567 12.9303 24.4743 12.9346 25.0919C12.9325 25.1161 12.954 25.1381 12.9734 25.1798Z" fill="white"/>
</svg>
