<svg width="35" height="35" viewBox="0 0 35 35" fill="none" xmlns="http://www.w3.org/2000/svg">
<path d="M0 0H35V35H0V0Z" fill="#ED1B23"/>
<path d="M6.00002 16.9937C6.0188 10.9118 10.9494 5.99375 17.025 6.00001C23.0631 6.00626 28.0187 10.9744 27.9999 17C27.9812 23.1257 23.0381 28.0124 16.8811 27.9874C10.9118 27.9686 5.98751 22.988 6.00002 16.9937ZM17.9949 17.9886C18.12 17.9886 18.2139 17.9886 18.3077 17.9886C19.5153 17.9886 20.7292 17.9886 21.9368 17.9886C22.4374 17.9886 22.8066 17.732 22.9442 17.3066C23.157 16.6558 22.6939 16.0051 21.9869 15.9988C20.7542 15.9863 19.5216 15.9988 18.2889 15.9926C18.2013 15.9926 18.1075 15.9926 17.9949 15.9926C17.9949 15.8674 17.9949 15.7736 17.9949 15.6797C17.9949 14.4721 17.9949 13.2582 17.9949 12.0506C17.9949 11.55 17.7383 11.1809 17.3128 11.0432C16.6621 10.8305 16.0114 11.2935 16.0051 12.0006C15.9926 13.2332 16.0051 14.4658 15.9989 15.6985C15.9989 15.7861 15.9989 15.8799 15.9989 15.9926C15.8737 15.9926 15.7799 15.9926 15.686 15.9926C14.4659 15.9926 13.252 15.9926 12.0319 15.9926C11.5501 15.9926 11.1809 16.2554 11.0432 16.6746C10.8305 17.3253 11.2935 17.9761 12.0006 17.9823C13.2332 17.9948 14.4659 17.9886 15.6985 17.9886C15.7861 17.9886 15.88 17.9886 15.9926 17.9886C15.9926 18.1137 15.9926 18.2076 15.9926 18.3014C15.9926 19.5028 15.9863 20.7042 15.9989 21.9055C16.0051 22.1245 16.0677 22.3748 16.1803 22.5625C16.3993 22.9317 16.8561 23.0693 17.269 22.9442C17.682 22.8191 17.9698 22.4687 17.9761 22.0307C17.9886 20.9232 17.9823 19.8157 17.9823 18.7082C17.9949 18.4829 17.9949 18.2576 17.9949 17.9886Z" fill="#F8EFEB"/>
<path d="M17.9882 18.0048C17.9882 18.2676 17.9882 18.4929 17.9882 18.7182C17.9882 19.8258 17.9945 20.9335 17.9819 22.0412C17.9757 22.4793 17.688 22.836 17.2752 22.9549C16.8624 23.08 16.4058 22.9424 16.1869 22.5731C16.0743 22.3854 16.0055 22.1351 16.0055 21.916C15.9868 20.7145 15.9993 19.5129 15.9993 18.3114C15.9993 18.2175 15.9993 18.1299 15.9993 17.9985C15.8867 17.9985 15.7929 17.9985 15.7053 17.9985C14.4732 17.9985 13.2411 18.0048 12.009 17.9922C11.3022 17.986 10.8394 17.3351 11.052 16.6843C11.1896 16.265 11.5586 16.0084 12.0402 16.0022C13.2598 15.9959 14.4732 16.0022 15.6928 16.0022C15.7866 16.0022 15.8742 16.0022 16.0055 16.0022C16.0055 15.8895 16.0055 15.7957 16.0055 15.708C16.0055 14.4752 15.9993 13.2424 16.0118 12.0095C16.0181 11.3024 16.6623 10.8393 17.319 11.0521C17.7443 11.1897 18.0007 11.559 18.0007 12.0596C18.0007 13.2674 18.0007 14.4815 18.0007 15.6893C18.0007 15.7831 18.0007 15.8708 18.0007 16.0022C18.1133 16.0022 18.2071 16.0022 18.2947 16.0022C19.5268 16.0022 20.7589 15.9959 21.991 16.0084C22.6978 16.0147 23.1606 16.6655 22.948 17.3164C22.8104 17.7419 22.4414 17.9985 21.941 17.9985C20.7339 17.9985 19.5205 17.9985 18.3134 17.9985C18.2071 18.0048 18.1133 18.0048 17.9882 18.0048Z" fill="#333333"/>
</svg>
