<svg width="32" height="39" viewBox="0 0 32 39" fill="none" xmlns="http://www.w3.org/2000/svg">
<path d="M29.5321 38.1702H2.46794C1.10918 38.1702 0 36.8968 0 35.3369V2.83332C0 1.2734 1.10918 0 2.46794 0H29.5321C30.8908 0 32 1.2734 32 2.83332V35.3688C32 36.9287 30.9185 38.1702 29.5321 38.1702Z" fill="#F59223"/>
<path d="M13.8372 21.8019C13.8372 23.9139 13.8372 26.0258 13.8372 28.1378C13.8372 28.3563 13.8372 28.3563 13.6596 28.2592C13.1268 27.9922 12.5717 27.7252 12.0389 27.4581C11.1508 27.0212 10.2627 26.5599 9.37467 26.123C8.59761 25.7345 7.82055 25.3461 7.04348 24.9577C6.73266 24.8121 6.42183 24.6421 6.11101 24.4965C6.0222 24.4479 6 24.3994 6 24.278C6 20.0297 6 15.8057 6 11.5574C6 11.339 6 11.339 6.17762 11.4361C7.06569 11.873 7.95376 12.31 8.81963 12.747C9.79651 13.2325 10.7956 13.718 11.7725 14.2278C12.4385 14.5434 13.0824 14.8832 13.7484 15.1988C13.8372 15.2474 13.8816 15.2959 13.8816 15.4173C13.8372 17.5536 13.8372 19.6656 13.8372 21.8019Z" fill="#FDD4A9"/>
<path d="M25.5818 11.8722C25.604 12.0907 25.5596 12.3335 25.5818 12.5519C25.604 12.649 25.5818 12.7461 25.5818 12.819C25.5818 13.086 25.5818 13.3773 25.5818 13.6443C25.5818 13.8871 25.5818 14.1541 25.5818 14.3969C25.5818 14.5426 25.604 14.6882 25.5818 14.8339C25.5818 15.1009 25.5818 15.3679 25.5818 15.635C25.5818 15.9506 25.5818 16.2661 25.5818 16.5817C25.5818 16.8002 25.5818 17.0187 25.5818 17.2372C25.5818 17.5042 25.5818 17.7712 25.5818 18.0383C25.5818 18.281 25.604 18.5481 25.5818 18.7908C25.5818 18.9122 25.604 19.0093 25.5818 19.1307C25.5818 19.5191 25.5818 19.8832 25.5818 20.2717C25.5818 20.5144 25.5818 20.7814 25.5818 21.0242C25.5818 21.267 25.604 21.534 25.5818 21.7768C25.5818 22.0681 25.604 22.3837 25.5818 22.675C25.5818 22.7721 25.604 22.8692 25.5818 22.9663C25.5596 23.2333 25.5818 23.4761 25.5818 23.7431C25.5818 23.8645 25.5818 23.9859 25.5818 24.1072C25.5818 24.1558 25.5818 24.2043 25.5818 24.2772C25.5818 24.35 25.5596 24.3985 25.493 24.4228C25.2932 24.5199 25.1156 24.617 24.9158 24.7141C24.3163 25.0054 23.7169 25.321 23.0952 25.6123C22.296 26.0008 21.4967 26.3892 20.6974 26.8019C19.7428 27.2631 18.8103 27.7486 17.8556 28.2099C17.7002 28.2827 17.7002 28.2827 17.7002 28.1128C17.7002 23.8645 17.7002 19.6162 17.7002 15.3679C17.7002 15.2466 17.7446 15.198 17.8334 15.1494C18.6105 14.761 19.3653 14.3969 20.1424 14.0085C20.9639 13.5958 21.7631 13.2074 22.5846 12.7947C23.4949 12.3335 24.3829 11.8965 25.2932 11.4352C25.3598 11.411 25.4042 11.3867 25.4708 11.3624C25.5818 11.3139 25.5818 11.3381 25.604 11.4595C25.5818 11.6295 25.5818 11.7508 25.5818 11.8722Z" fill="#FDD4A9"/>
<path d="M16.7124 15.0358C16.7124 15.0601 16.7124 15.0601 16.7346 15.0601C16.9122 15.1572 16.9344 15.3028 16.9344 15.497C16.9344 19.6725 16.9344 23.8479 16.9344 27.9991C16.9344 28.0962 16.9344 28.169 16.89 28.2661C16.8678 28.3147 16.8234 28.3632 16.7568 28.3632C16.7346 28.3632 16.7124 28.3632 16.668 28.3632C15.8021 28.3632 14.914 28.3632 14.0482 28.3632C13.8483 28.3632 13.8039 28.2419 13.8039 28.0719C13.8039 27.7563 13.8039 27.465 13.8039 27.1495C13.8039 23.2653 13.8039 19.3812 13.8039 15.497C13.8039 15.4485 13.8039 15.3999 13.8039 15.3514C13.8261 15.1815 13.9149 15.0844 14.0482 15.0358C14.1148 15.0115 14.1592 15.0115 14.2258 15.0115C14.9584 15.0115 15.6689 15.0115 16.4015 15.0115C16.4459 15.0115 16.4904 15.0115 16.5348 15.0115C16.557 14.963 16.5126 14.963 16.4903 14.9387C16.4459 14.8902 16.3793 14.8416 16.3349 14.7688C16.0907 14.4289 15.7577 14.259 15.3803 14.2347C15.0694 14.2104 14.7808 14.259 14.5144 14.4532C14.3812 14.5503 14.248 14.6474 14.1592 14.793C14.0482 14.963 13.8927 14.9873 13.7151 14.8902C13.6485 14.8416 13.5597 14.793 13.4931 14.7688C12.7826 14.3804 12.0722 13.9919 11.3839 13.6035C10.6513 13.2151 9.94082 12.8024 9.20816 12.414C8.60871 12.0742 7.98706 11.7343 7.36541 11.3944C6.96578 11.1759 6.56615 10.9575 6.18871 10.739C6.12211 10.7147 6.07771 10.6662 6.0333 10.5933C5.9889 10.4962 5.9889 10.3991 6.0333 10.3263C6.09991 10.2292 6.18872 10.1564 6.32193 10.1806C6.36633 10.1806 6.41073 10.2049 6.47734 10.2535C7.01018 10.5448 7.54302 10.8361 8.07587 11.1274C8.69752 11.4673 9.29697 11.8071 9.91862 12.147C10.5403 12.4868 11.1619 12.8267 11.7836 13.1666C12.4274 13.5307 13.0935 13.8948 13.7373 14.259C13.7817 14.2833 13.8261 14.3318 13.8483 14.2833C13.8705 14.2347 13.8039 14.2104 13.7817 14.1861C13.3599 13.9191 12.9603 13.6521 12.5384 13.3608C11.8502 12.8995 11.1619 12.4626 10.4737 12.0013C9.6966 11.4915 8.89733 10.9575 8.12027 10.4477C8.05367 10.3991 7.98706 10.3748 7.94266 10.302C7.85385 10.2049 7.83165 10.1078 7.87605 10.0107C7.92046 9.88933 7.98706 9.84077 8.12027 9.84077C8.20908 9.84077 8.27568 9.86505 8.34229 9.9136C8.96394 10.3263 9.60779 10.739 10.2294 11.1759C10.8289 11.5644 11.4061 11.9528 12.0056 12.3412C12.605 12.7296 13.2045 13.118 13.8039 13.5307C13.9815 13.6521 14.1592 13.7735 14.3368 13.8948C14.3812 13.9191 14.4256 13.9434 14.47 13.9191C14.7586 13.7735 15.0472 13.7249 15.3581 13.7249C15.6245 13.7249 15.8909 13.7735 16.1351 13.9191C16.2017 13.9677 16.2683 13.9434 16.3349 13.8948C16.5126 13.7492 16.7124 13.6278 16.89 13.5064C17.445 13.1423 18.0001 12.7782 18.5551 12.414C19.2878 11.9285 20.0204 11.443 20.7531 10.9817C21.2637 10.6419 21.7966 10.302 22.3072 9.96215C22.396 9.9136 22.4848 9.88933 22.5736 9.9136C22.6624 9.9136 22.7513 9.98643 22.7735 10.0835C22.7957 10.1806 22.7957 10.2777 22.7291 10.3748C22.6847 10.4234 22.6402 10.4477 22.5736 10.4962C21.8188 11.006 21.0417 11.4915 20.2869 12.0013C19.3322 12.6325 18.3553 13.2637 17.4006 13.8948C17.2008 14.0162 17.001 14.1619 16.8234 14.2833C16.8012 14.2833 16.8012 14.3075 16.779 14.3075C16.7568 14.3318 16.7346 14.3318 16.7568 14.3561C16.779 14.3804 16.8012 14.3804 16.8234 14.3804C16.8456 14.3804 16.8456 14.3561 16.8678 14.3561C17.3562 14.089 17.8225 13.822 18.3109 13.555C18.7549 13.3122 19.2212 13.0452 19.6652 12.8024C20.1537 12.5354 20.6421 12.2441 21.1527 11.977C21.6856 11.6857 22.2406 11.3702 22.7735 11.0788C23.2397 10.8118 23.7281 10.5448 24.1944 10.2777C24.2832 10.2292 24.372 10.2049 24.483 10.2292C24.5718 10.2777 24.6384 10.3263 24.6606 10.4477C24.6828 10.569 24.6384 10.6662 24.5496 10.739C24.3498 10.8604 24.15 10.9575 23.9724 11.0788C23.2841 11.4673 22.5958 11.8314 21.9076 12.2198C21.3081 12.5597 20.7087 12.8995 20.1092 13.2151C19.5098 13.5307 18.9325 13.8706 18.3553 14.1861C17.9113 14.4289 17.4894 14.6717 17.0454 14.9144C16.8456 14.9144 16.8012 14.9873 16.7124 15.0358Z" fill="#FDD4A9"/>
<path d="M11.6837 11.7304C11.5949 11.6576 11.5283 11.5605 11.4839 11.4877C11.1953 11.075 10.9511 10.638 10.7956 10.1768C10.6402 9.71555 10.5514 9.23003 10.5292 8.74451C10.507 8.4532 10.5292 8.16189 10.5514 7.87058C10.5958 7.50644 10.6846 7.16658 10.7956 6.82672C11.0621 6.02562 11.5061 5.3459 12.0833 4.78755C12.5496 4.32631 13.0824 3.98645 13.6597 3.71941C14.1037 3.5252 14.5477 3.40383 15.014 3.331C15.4358 3.28245 15.8576 3.25817 16.2795 3.30672C16.5903 3.331 16.9011 3.40383 17.212 3.47665C17.4784 3.54948 17.7448 3.64658 17.989 3.76796C18.3665 3.93789 18.7217 4.15638 19.0547 4.39914C19.6542 4.88465 20.1648 5.46727 20.52 6.19555C20.6976 6.55968 20.8308 6.9481 20.9419 7.33651C21.0529 7.77348 21.0751 8.23472 21.0751 8.69596C21.0307 9.7641 20.6976 10.6866 20.0982 11.512C20.0982 11.5362 20.076 11.5362 20.0538 11.5605C20.0316 11.5848 20.0094 11.6091 19.9872 11.6091C19.9428 11.6091 19.965 11.5605 19.965 11.5362C19.965 11.4391 19.965 11.342 19.965 11.2449C19.965 10.5895 19.965 9.93403 19.965 9.30286C19.965 8.74451 19.7652 8.25899 19.3655 7.89486C19.2989 7.82203 19.2101 7.77348 19.1213 7.72493C19.0547 7.70065 19.0325 7.70065 19.0325 7.79775C19.0325 7.82203 19.0325 7.87058 19.0325 7.89486C19.0325 8.47748 19.0325 9.0601 19.0325 9.61844C19.0325 9.64272 19.0325 9.69127 19.0325 9.71554C19.0325 9.78837 19.0103 9.81265 18.9437 9.81265C18.9215 9.81265 18.8771 9.81265 18.8549 9.81265C18.2554 9.81265 17.656 9.81265 17.0787 9.81265C16.9233 9.81265 16.9233 9.81265 16.9011 9.64272C16.8123 9.23003 16.7457 8.81734 16.6569 8.38037C16.5903 8.42892 16.5903 8.52603 16.5903 8.57458C16.5459 8.93872 16.5015 9.32713 16.4571 9.69127C16.4571 9.7641 16.4127 9.78837 16.3683 9.78837C16.3239 9.78837 16.3017 9.78837 16.2573 9.78837C15.014 9.78837 13.7929 9.78837 12.5496 9.78837C12.372 9.78837 12.372 9.78837 12.372 9.59417C12.372 9.03582 12.372 8.4532 12.372 7.89486C12.372 7.72493 12.3498 7.72493 12.2166 7.79775C12.0611 7.87058 11.9723 8.01624 11.9057 8.16189C11.8169 8.38037 11.7503 8.62313 11.7503 8.89017C11.7503 9.78837 11.7503 10.6866 11.7503 11.5848C11.7059 11.6333 11.7059 11.6819 11.6837 11.7304Z" fill="#FDD4A9"/>
<path d="M20.6742 32.0433C20.6207 31.9836 20.6663 31.8889 20.7465 31.8888C21.106 31.8883 21.4496 31.8869 21.7938 31.8907C21.881 31.8917 21.9093 31.8717 21.9085 31.7691C21.9051 30.5503 21.906 29.3315 21.906 28.1128C21.906 27.8113 22.033 27.6696 22.313 27.6687C22.9799 27.6669 23.6469 27.6678 24.3139 27.6678C24.5332 27.6678 24.7517 27.6678 24.9709 27.6678C25.0756 27.6678 25.1753 27.6914 25.2617 27.7613C25.348 27.8321 25.3813 27.9266 25.3813 28.0447C25.3796 29.2852 25.3813 30.5258 25.3788 31.7663C25.3788 31.8617 25.3962 31.8926 25.4901 31.8917C25.8846 31.8853 26.28 31.8889 26.6745 31.8889C26.7073 31.8889 26.7201 31.9202 26.6987 31.945C26.6874 31.9581 26.674 31.9695 26.6629 31.9825C25.6811 33.1631 24.6977 34.3428 23.7167 35.5252C23.6619 35.5906 23.637 35.6079 23.573 35.5298C22.6087 34.3655 21.641 33.2049 20.6742 32.0433Z" fill="#FDD4A9"/>
</svg>
