<svg width="33" height="32" viewBox="0 0 33 32" fill="none" xmlns="http://www.w3.org/2000/svg">
<rect width="33" height="31.6531" rx="2.02041" fill="#ED1B23"/>
<path d="M9.48088 24.3632C9.32953 24.3413 9.16918 24.2998 9.08699 24.1709C8.99133 24.0208 8.96814 23.8475 8.96814 23.651C8.96814 18.4492 8.96814 13.2474 8.96814 8.06874C8.96814 7.51389 9.12997 7.35205 9.68483 7.35205C13.2221 7.35205 16.7593 7.35205 20.2965 7.35205C20.8514 7.35205 21.0132 7.51389 21.0132 8.06874C21.0132 8.97039 21.0132 9.84891 21.0132 10.7506C21.0132 10.9355 20.967 11.0742 20.8282 11.2129C20.6436 11.3975 20.4693 11.5924 20.2916 11.7906C20.1574 11.9403 19.9497 11.8995 19.9497 11.6984C19.9497 10.7274 19.9497 9.73332 19.9497 8.76232C19.9497 8.55425 19.8804 8.48489 19.6723 8.48489C16.5512 8.48489 13.4301 8.48489 10.2859 8.48489C10.0547 8.48489 9.98538 8.55424 9.98538 8.78543C9.98538 13.5248 9.98538 18.2411 9.98538 22.9806C9.98538 23.2118 10.0547 23.2811 10.2859 23.2811C13.407 23.2811 16.5281 23.2811 19.626 23.2811C19.8804 23.2811 19.9497 23.2118 19.9266 22.9574C19.9266 21.7784 19.9266 20.5762 19.9266 19.3971C19.9266 19.2121 19.9728 19.0734 20.1115 18.9347C20.3427 18.7035 20.5508 18.4492 20.782 18.218C20.8282 18.1718 20.8745 18.1024 20.9438 18.1256C21.0363 18.1487 20.9901 18.2411 20.9901 18.2874C20.9901 20.16 20.9901 22.0096 20.9901 23.8822C20.9901 23.9994 20.9544 24.0869 20.9012 24.1627C20.7987 24.3089 20.6124 24.3717 20.4343 24.3849C20.3884 24.3883 20.3424 24.3908 20.2965 24.3908C16.7584 24.3908 13.2431 24.3908 9.70529 24.3908C9.66094 24.3908 9.61674 24.3862 9.5731 24.3783C9.54335 24.3729 9.51251 24.3678 9.48088 24.3632Z" fill="#F5AF96"/>
<path d="M6.77187 13.6636C6.77187 11.0973 6.77187 8.53113 6.77187 5.94179C6.77187 5.34069 6.88747 5.2251 7.46544 5.2251C10.9564 5.2251 14.4705 5.2251 17.9615 5.2251C18.5395 5.2251 18.6551 5.34069 18.6551 5.91867C18.6551 6.05739 18.6551 6.17298 18.6551 6.31169C18.6551 6.88967 18.5395 6.98215 17.9615 6.88967C17.7534 6.84343 17.7997 6.70472 17.7997 6.58912C17.7766 6.17298 17.7997 6.17298 17.3604 6.17298C14.2393 6.17298 11.1183 6.17298 8.0203 6.17298C7.69664 6.17298 7.62728 6.26546 7.62728 6.56601C7.62728 11.2823 7.62728 15.9986 7.62728 20.7149C7.62728 21.1542 7.62728 21.1542 8.04342 21.1542C8.15902 21.1542 8.25149 21.1542 8.36709 21.1542C8.45957 21.1542 8.52892 21.2004 8.52892 21.316C8.52892 21.5241 8.52892 21.7321 8.52892 21.9402C8.52892 22.0789 8.43645 22.0789 8.32085 22.0789C7.95095 22.0789 7.58104 22.0789 7.21114 22.0789C6.95682 22.0789 6.81811 21.9171 6.77187 21.6859C6.74875 21.5703 6.77187 21.4778 6.77187 21.3622C6.77187 18.7729 6.77187 16.2067 6.77187 13.6636Z" fill="#F5AF96"/>
<path d="M4.71423 11.629C4.71423 9.03971 4.71423 6.47349 4.71423 3.88415C4.71423 3.32929 4.82983 3.23682 5.36157 3.23682C8.89879 3.23682 12.4129 3.23682 15.9501 3.23682C16.4587 3.23682 16.5975 3.37553 16.5975 3.88415C16.5975 4.02287 16.5975 4.13846 16.5975 4.27718C16.5975 4.90139 16.6668 4.7858 16.0657 4.80892C15.7883 4.83203 15.6958 4.71644 15.742 4.46213C15.7883 4.20782 15.6727 4.16158 15.4184 4.16158C12.2279 4.16158 9.06062 4.16158 5.87019 4.16158C5.639 4.16158 5.56964 4.23094 5.56964 4.46213C5.56964 9.24778 5.56964 14.0566 5.56964 18.8422C5.56964 19.1196 5.68524 19.1659 5.91643 19.1428C6.05514 19.1428 6.28633 19.0503 6.33257 19.2121C6.40193 19.4664 6.40193 19.7439 6.33257 20.0213C6.30945 20.0906 6.19386 20.0906 6.1245 20.0906C5.84707 20.0906 5.56964 20.0906 5.31533 20.0906C4.87607 20.0906 4.73735 19.9288 4.73735 19.4895C4.73735 17.0389 4.73735 14.5883 4.73735 12.1377C4.71423 11.9527 4.71423 11.7909 4.71423 11.629Z" fill="#F5AF96"/>
<path d="M17.7302 17.3159C17.7302 17.1078 17.8227 16.946 17.9614 16.7842C19.1867 15.4895 20.3889 14.1717 21.6142 12.8771C21.8454 12.6227 22.0766 12.3915 22.3078 12.1372C22.4234 11.9985 22.5159 11.9985 22.6315 12.1372C22.8164 12.3453 22.9783 12.5534 23.1863 12.7383C23.325 12.8771 23.3019 12.9695 23.1863 13.1082C22.539 13.7787 21.9148 14.4723 21.2674 15.1658C20.4814 15.9981 19.6953 16.8535 18.9093 17.6858C18.7012 17.8939 18.47 18.0557 18.1464 17.917C17.8689 17.8245 17.7533 17.5933 17.7302 17.3159Z" fill="#F5AF96"/>
<path d="M14.956 10.7272C13.8232 10.7272 12.6904 10.7272 11.5575 10.7272C11.2801 10.7272 11.072 10.6347 11.0027 10.3342C10.9333 10.0105 11.1645 9.7793 11.5113 9.7793C12.2742 9.7793 13.0603 9.7793 13.8232 9.7793C15.3259 9.7793 16.8518 9.7793 18.3545 9.7793C18.5857 9.7793 18.7938 9.82553 18.8863 10.0567C19.0481 10.3804 18.7938 10.7041 18.3777 10.7041C17.2679 10.7272 16.112 10.7272 14.956 10.7272Z" fill="#F5AF96"/>
<path d="M14.9791 13.0392C13.8232 13.0392 12.6672 13.0392 11.5113 13.0392C11.2801 13.0392 11.1182 12.9467 11.0489 12.7155C10.9795 12.5075 11.0489 12.3225 11.2107 12.1838C11.3032 12.0913 11.4419 12.0913 11.5575 12.0913C13.8463 12.0913 16.1351 12.0913 18.4239 12.0913C18.7707 12.0913 18.9787 12.2531 18.9787 12.5306C18.9787 12.8311 18.7707 12.993 18.4008 12.993C17.2679 13.0392 16.112 13.0392 14.9791 13.0392Z" fill="#F5AF96"/>
<path d="M23.2327 9.87227C23.6026 9.87227 23.8801 9.98786 24.0881 10.1959C24.3887 10.5196 24.7124 10.8433 24.9898 11.1669C25.429 11.6756 25.4059 12.4154 24.9204 12.9471C24.5274 13.4095 24.5274 13.4095 24.1113 12.9702C23.4639 12.2767 22.8166 11.5831 22.1693 10.8895C22.0186 10.7389 21.9882 10.6283 22.1338 10.4646C22.1566 10.439 22.1832 10.417 22.2106 10.3964C22.5402 10.1475 22.8332 9.85007 23.2327 9.87227Z" fill="#F5AF96"/>
<path d="M17.5454 14.4492C17.6731 14.4492 17.7275 14.5999 17.6396 14.6925C17.4412 14.9017 17.2557 15.0916 17.083 15.2815C16.9905 15.374 16.8981 15.374 16.7825 15.374C15.0485 15.374 13.2915 15.374 11.5575 15.374C11.2108 15.374 11.0027 15.2121 11.0027 14.9116C11.0027 14.6111 11.1876 14.4492 11.5575 14.4492C13.5458 14.4492 15.534 14.4492 17.5454 14.4492Z" fill="#F5AF96"/>
<path d="M23.9513 13.5104C24.0899 13.6212 24.1074 13.8264 24.0057 13.9719C23.996 13.9858 23.9897 13.9931 23.9782 14.0055C22.5735 15.5252 21.1461 17.0447 19.7416 18.5413C19.5797 18.7031 19.3948 18.8881 19.1636 18.68C18.9324 18.4488 19.0711 18.2408 19.233 18.0558C20.3658 16.8305 21.4986 15.6283 22.6546 14.403C22.932 14.1024 23.2094 13.8019 23.4869 13.5245C23.5562 13.4551 23.6025 13.2933 23.7412 13.3626C23.8145 13.4045 23.8831 13.4559 23.9513 13.5104Z" fill="#F5AF96"/>
<path d="M17.0135 16.253C17.0135 16.0912 17.106 15.9756 17.1985 15.86C18.6088 14.3573 20.019 12.8545 21.4062 11.3518C21.4987 11.2593 21.5911 11.0281 21.753 11.2593C21.8454 11.4211 22.2153 11.4905 21.9148 11.8141C20.5739 13.2244 19.2561 14.6578 17.9152 16.0912C17.7765 16.2299 17.6609 16.3917 17.499 16.5073C17.291 16.6692 17.0135 16.5304 17.0135 16.253Z" fill="#F5AF96"/>
<path d="M13.7538 16.7612C14.4704 16.7612 15.164 16.7612 15.8807 16.7612C16.0888 16.7612 16.1581 16.8075 16.1119 17.0387C15.9732 17.686 15.9732 17.686 15.3027 17.686C14.0312 17.686 12.7828 17.686 11.5112 17.686C11.0951 17.686 10.887 17.3392 11.0719 17.0155C11.1875 16.8075 11.3494 16.7612 11.5806 16.7612C12.2973 16.7612 13.0139 16.7612 13.7538 16.7612Z" fill="#F5AF96"/>
<path d="M15.9732 19.6975C16.1813 18.7958 16.4125 17.8711 16.6205 16.9694C16.6437 16.8307 16.6899 16.8307 16.8055 16.9C17.0829 17.0619 17.2679 17.2006 17.291 17.5936C17.3141 18.1254 17.7765 18.4953 18.3314 18.5184C18.4701 18.5184 18.84 19.0039 18.7937 19.1195C18.7786 19.165 18.7335 19.1806 18.6913 19.1925C18.6512 19.2039 18.6118 19.2177 18.5717 19.2291C17.7815 19.4535 16.9704 19.6569 16.1813 19.8824C16.0194 19.9055 15.927 19.9055 15.9732 19.6975Z" fill="#F5AF96"/>
<path d="M13.4302 19.0962C14.0544 19.0962 14.7017 19.0962 15.326 19.0962C15.534 19.0962 15.6265 19.1193 15.5571 19.3736C15.3491 20.1597 15.5571 20.021 14.748 20.021C13.7076 20.021 12.6904 20.021 11.65 20.021C11.2108 20.021 11.0027 19.8591 11.0027 19.5586C11.0027 19.2349 11.1876 19.1193 11.65 19.1193C12.2511 19.0962 12.8291 19.0962 13.4302 19.0962Z" fill="#F5AF96"/>
<path d="M22.1603 24.8691C22.0991 24.8066 22.1469 24.7013 22.2344 24.7012C22.6659 24.7007 23.078 24.6991 23.4908 24.7033C23.5944 24.7043 23.628 24.6826 23.627 24.5711C23.623 23.2466 23.624 21.9221 23.624 20.5976C23.624 20.27 23.775 20.116 24.1077 20.115C24.9002 20.113 25.6928 20.114 26.4853 20.114C26.7459 20.114 27.0055 20.114 27.266 20.114C27.3904 20.114 27.5088 20.1397 27.6115 20.2157C27.7141 20.2927 27.7536 20.3953 27.7536 20.5236C27.7516 21.8718 27.7536 23.2199 27.7507 24.5681C27.7507 24.6717 27.7714 24.7053 27.8829 24.7043C28.3517 24.6974 28.8216 24.7014 29.2904 24.7014C29.3286 24.7014 29.3435 24.7373 29.3168 24.7647C29.3039 24.7779 29.289 24.7897 29.2766 24.803C28.1099 26.086 26.9413 27.3681 25.7757 28.6531C25.7105 28.7242 25.6809 28.7429 25.6049 28.658C24.459 27.3928 23.3092 26.1314 22.1603 24.8691Z" fill="#F8B49B"/>
</svg>
